<?xml version="1.0" encoding="UTF-8"?>
<!DOCTYPE svg PUBLIC "-//W3C//DTD SVG 1.1//EN" "http://www.w3.org/Graphics/SVG/1.1/DTD/svg11.dtd">
<svg version="1.2" xmlns="http://www.w3.org/2000/svg" xmlns:xlink="http://www.w3.org/1999/xlink" width="436" height="436" viewBox="0 0 41.12 29.46">
  <desc>Generated by the Chemistry Development Kit (http://github.com/cdk)</desc>
  <g stroke-linecap="round" stroke-linejoin="round" stroke="#000000" stroke-width=".21" fill="#FF0D0D">
    <rect x=".0" y=".0" width="42.0" height="30.0" fill="#FFFFFF" stroke="none"/>
    <g id="mol1" class="mol">
      <path id="mol1bnd1" class="bond" d="M35.48 15.23v.21l5.08 .55v-.63v-.63z" stroke="none" fill="#000000"/>
      <line id="mol1bnd2" class="bond" x1="35.48" y1="15.33" x2="32.6" y2="19.36"/>
      <path id="mol1bnd3" class="bond" d="M27.79 17.67l-.07 .2l4.61 2.05l.37 -.52l.4 -.55z" stroke="none" fill="#000000"/>
      <line id="mol1bnd4" class="bond" x1="27.75" y1="17.77" x2="23.45" y2="20.21"/>
      <g id="mol1bnd5" class="bond">
        <line x1="23.36" y1="20.26" x2="23.54" y2="20.16"/>
        <line x1="23.3" y1="21.04" x2="23.61" y2="20.86"/>
        <line x1="23.23" y1="21.81" x2="23.67" y2="21.56"/>
        <line x1="23.17" y1="22.59" x2="23.74" y2="22.27"/>
        <line x1="23.1" y1="23.37" x2="23.8" y2="22.97"/>
        <line x1="23.03" y1="24.14" x2="23.87" y2="23.67"/>
        <line x1="22.97" y1="24.92" x2="23.94" y2="24.38"/>
        <line x1="22.9" y1="25.7" x2="24.0" y2="25.08"/>
      </g>
      <line id="mol1bnd6" class="bond" x1="23.45" y1="25.39" x2="18.95" y2="27.93"/>
      <line id="mol1bnd7" class="bond" x1="18.95" y1="27.93" x2="14.55" y2="25.39"/>
      <g id="mol1bnd8" class="bond">
        <line x1="10.24" y1="27.93" x2="14.55" y2="25.39"/>
        <line x1="10.24" y1="26.99" x2="13.73" y2="24.93"/>
      </g>
      <line id="mol1bnd9" class="bond" x1="10.24" y1="27.93" x2="5.81" y2="25.39"/>
      <g id="mol1bnd10" class="bond">
        <line x1="6.22" y1="25.62" x2="2.8" y2="27.6"/>
        <line x1="5.81" y1="24.92" x2="2.39" y2="26.9"/>
      </g>
      <line id="mol1bnd11" class="bond" x1="5.81" y1="25.39" x2="5.81" y2="20.21"/>
      <g id="mol1bnd12" class="bond">
        <line x1="10.24" y1="17.77" x2="5.81" y2="20.21"/>
        <line x1="10.24" y1="18.7" x2="6.62" y2="20.69"/>
      </g>
      <line id="mol1bnd13" class="bond" x1="10.24" y1="17.77" x2="14.55" y2="20.21"/>
      <line id="mol1bnd14" class="bond" x1="14.55" y1="25.39" x2="14.55" y2="20.21"/>
      <path id="mol1bnd15" class="bond" d="M14.44 20.21h.21l.55 -5.08h-.63h-.63z" stroke="none" fill="#000000"/>
      <line id="mol1bnd16" class="bond" x1="14.55" y1="20.21" x2="18.95" y2="17.77"/>
      <line id="mol1bnd17" class="bond" x1="23.45" y1="20.21" x2="18.95" y2="17.77"/>
      <g id="mol1bnd18" class="bond">
        <line x1="19.05" y1="17.77" x2="18.84" y2="17.77"/>
        <line x1="19.11" y1="18.5" x2="18.75" y2="18.49"/>
        <line x1="19.16" y1="19.23" x2="18.65" y2="19.21"/>
        <line x1="19.22" y1="19.95" x2="18.56" y2="19.94"/>
        <line x1="19.28" y1="20.68" x2="18.47" y2="20.66"/>
        <line x1="19.33" y1="21.41" x2="18.37" y2="21.38"/>
      </g>
      <line id="mol1bnd19" class="bond" x1="18.95" y1="17.77" x2="18.95" y2="12.79"/>
      <path id="mol1bnd20" class="bond" d="M18.9 12.88l.11 -.18l-3.02 -2.2l-.25 .42l-.25 .42z" stroke="none" fill="#000000"/>
      <line id="mol1bnd21" class="bond" x1="18.95" y1="12.79" x2="23.45" y2="10.22"/>
      <line id="mol1bnd22" class="bond" x1="23.45" y1="10.22" x2="27.75" y2="12.79"/>
      <line id="mol1bnd23" class="bond" x1="27.75" y1="17.77" x2="27.75" y2="12.79"/>
      <path id="mol1bnd24" class="bond" d="M27.65 12.78l.21 .02l1.08 -4.99l-.63 -.07l-.63 -.07z" stroke="none" fill="#000000"/>
      <line id="mol1bnd25" class="bond" x1="27.75" y1="12.79" x2="32.6" y2="11.2"/>
      <line id="mol1bnd26" class="bond" x1="35.48" y1="15.33" x2="32.6" y2="11.2"/>
      <g id="mol1bnd27" class="bond">
        <line x1="32.55" y1="11.11" x2="32.65" y2="11.29"/>
        <line x1="33.14" y1="10.69" x2="33.32" y2="11.0"/>
        <line x1="33.74" y1="10.27" x2="33.99" y2="10.71"/>
        <line x1="34.33" y1="9.85" x2="34.66" y2="10.42"/>
        <line x1="34.93" y1="9.43" x2="35.33" y2="10.13"/>
        <line x1="35.53" y1="9.01" x2="36.0" y2="9.84"/>
      </g>
      <path id="mol1bnd28" class="bond" d="M32.5 11.24l.19 -.08l-2.35 -6.71l-.45 .61l-.76 -.08z" stroke="none" fill="#000000"/>
      <g id="mol1bnd29" class="bond">
        <line x1="29.9" y1="5.06" x2="26.12" y2="4.65"/>
        <line x1="29.52" y1="4.2" x2="26.2" y2="3.84"/>
      </g>
      <line id="mol1bnd30" class="bond" x1="29.9" y1="5.06" x2="32.9" y2=".97"/>
      <line id="mol1bnd31" class="bond" x1="32.9" y1=".97" x2="36.68" y2="1.38"/>
      <path id="mol1atm11" class="atom" d="M1.41 27.18q-.27 .0 -.43 .2q-.16 .2 -.16 .55q.0 .35 .16 .55q.16 .2 .43 .2q.27 .0 .43 -.2q.16 -.2 .16 -.55q.0 -.35 -.16 -.55q-.16 -.2 -.43 -.2zM1.41 26.98q.39 .0 .62 .26q.23 .26 .23 .7q.0 .44 -.23 .7q-.23 .26 -.62 .26q-.39 .0 -.62 -.26q-.23 -.26 -.23 -.7q.0 -.43 .23 -.7q.23 -.26 .62 -.26z" stroke="none"/>
      <path id="mol1atm17" class="atom" d="M18.28 21.92h1.06v.21h-.81v.54h.73v.21h-.73v.88h-.25v-1.85z" stroke="none" fill="#90E050"/>
      <g id="mol1atm19" class="atom">
        <path d="M14.56 9.49q-.27 .0 -.43 .2q-.16 .2 -.16 .55q.0 .35 .16 .55q.16 .2 .43 .2q.27 .0 .43 -.2q.16 -.2 .16 -.55q.0 -.35 -.16 -.55q-.16 -.2 -.43 -.2zM14.56 9.28q.39 .0 .62 .26q.23 .26 .23 .7q.0 .44 -.23 .7q-.23 .26 -.62 .26q-.39 .0 -.62 -.26q-.23 -.26 -.23 -.7q.0 -.43 .23 -.7q.23 -.26 .62 -.26z" stroke="none"/>
        <path d="M12.09 9.32h.25v.76h.91v-.76h.25v1.85h-.25v-.88h-.91v.88h-.25v-1.85z" stroke="none"/>
      </g>
      <g id="mol1atm24" class="atom">
        <path d="M37.03 7.96q-.27 .0 -.43 .2q-.16 .2 -.16 .55q.0 .35 .16 .55q.16 .2 .43 .2q.27 .0 .43 -.2q.16 -.2 .16 -.55q.0 -.35 -.16 -.55q-.16 -.2 -.43 -.2zM37.03 7.75q.39 .0 .62 .26q.23 .26 .23 .7q.0 .44 -.23 .7q-.23 .26 -.62 .26q-.39 .0 -.62 -.26q-.23 -.26 -.23 -.7q.0 -.43 .23 -.7q.23 -.26 .62 -.26z" stroke="none"/>
        <path d="M38.09 7.79h.25v.76h.91v-.76h.25v1.85h-.25v-.88h-.91v.88h-.25v-1.85z" stroke="none"/>
      </g>
      <path id="mol1atm26" class="atom" d="M24.89 3.35q-.27 .0 -.43 .2q-.16 .2 -.16 .55q.0 .35 .16 .55q.16 .2 .43 .2q.27 .0 .43 -.2q.16 -.2 .16 -.55q.0 -.35 -.16 -.55q-.16 -.2 -.43 -.2zM24.89 3.15q.39 .0 .62 .26q.23 .26 .23 .7q.0 .44 -.23 .7q-.23 .26 -.62 .26q-.39 .0 -.62 -.26q-.23 -.26 -.23 -.7q.0 -.43 .23 -.7q.23 -.26 .62 -.26z" stroke="none"/>
      <g id="mol1atm28" class="atom">
        <path d="M37.95 .76q-.27 .0 -.43 .2q-.16 .2 -.16 .55q.0 .35 .16 .55q.16 .2 .43 .2q.27 .0 .43 -.2q.16 -.2 .16 -.55q.0 -.35 -.16 -.55q-.16 -.2 -.43 -.2zM37.95 .56q.39 .0 .62 .26q.23 .26 .23 .7q.0 .44 -.23 .7q-.23 .26 -.62 .26q-.39 .0 -.62 -.26q-.23 -.26 -.23 -.7q.0 -.43 .23 -.7q.23 -.26 .62 -.26z" stroke="none"/>
        <path d="M39.01 .59h.25v.76h.91v-.76h.25v1.85h-.25v-.88h-.91v.88h-.25v-1.85z" stroke="none"/>
      </g>
    </g>
  </g>
</svg>