<?xml version="1.0" encoding="UTF-8"?>
<!DOCTYPE svg PUBLIC "-//W3C//DTD SVG 1.1//EN" "http://www.w3.org/Graphics/SVG/1.1/DTD/svg11.dtd">
<svg version="1.2" xmlns="http://www.w3.org/2000/svg" xmlns:xlink="http://www.w3.org/1999/xlink" width="436" height="436" viewBox="0 0 61.09 34.66">
  <desc>Generated by the Chemistry Development Kit (http://github.com/cdk)</desc>
  <g stroke-linecap="round" stroke-linejoin="round" stroke="#000000" stroke-width=".21" fill="#FF0D0D">
    <rect x=".0" y=".0" width="62.0" height="35.0" fill="#FFFFFF" stroke="none"/>
    <g id="mol1" class="mol">
      <line id="mol1bnd1" class="bond" x1="60.39" y1="17.55" x2="56.02" y2="14.96"/>
      <line id="mol1bnd2" class="bond" x1="56.02" y1="14.96" x2="51.59" y2="17.44"/>
      <line id="mol1bnd3" class="bond" x1="51.59" y1="17.44" x2="47.22" y2="14.85"/>
      <line id="mol1bnd4" class="bond" x1="47.22" y1="14.85" x2="42.79" y2="17.34"/>
      <g id="mol1bnd5" class="bond">
        <line x1="43.2" y1="17.11" x2="43.15" y2="21.04"/>
        <line x1="42.39" y1="17.1" x2="42.34" y2="21.04"/>
      </g>
      <line id="mol1bnd6" class="bond" x1="42.79" y1="17.34" x2="38.2" y2="14.61"/>
      <g id="mol1bnd7" class="bond">
        <line x1="32.55" y1="16.31" x2="32.65" y2="16.49"/>
        <line x1="33.14" y1="15.89" x2="33.32" y2="16.2"/>
        <line x1="33.74" y1="15.47" x2="33.99" y2="15.91"/>
        <line x1="34.33" y1="15.05" x2="34.66" y2="15.62"/>
        <line x1="34.93" y1="14.63" x2="35.33" y2="15.33"/>
        <line x1="35.53" y1="14.21" x2="36.0" y2="15.04"/>
      </g>
      <line id="mol1bnd8" class="bond" x1="32.6" y1="16.4" x2="35.48" y2="20.53"/>
      <path id="mol1bnd9" class="bond" d="M35.48 20.43v.21l5.08 .55v-.63v-.63z" stroke="none" fill="#000000"/>
      <line id="mol1bnd10" class="bond" x1="35.48" y1="20.53" x2="32.6" y2="24.56"/>
      <path id="mol1bnd11" class="bond" d="M27.79 22.87l-.07 .2l4.61 2.05l.37 -.52l.4 -.55z" stroke="none" fill="#000000"/>
      <line id="mol1bnd12" class="bond" x1="27.75" y1="22.97" x2="23.45" y2="25.41"/>
      <g id="mol1bnd13" class="bond">
        <line x1="23.36" y1="25.46" x2="23.54" y2="25.36"/>
        <line x1="23.3" y1="26.24" x2="23.61" y2="26.06"/>
        <line x1="23.23" y1="27.02" x2="23.67" y2="26.77"/>
        <line x1="23.17" y1="27.79" x2="23.74" y2="27.47"/>
        <line x1="23.1" y1="28.57" x2="23.8" y2="28.17"/>
        <line x1="23.03" y1="29.35" x2="23.87" y2="28.88"/>
        <line x1="22.97" y1="30.12" x2="23.94" y2="29.58"/>
        <line x1="22.9" y1="30.9" x2="24.0" y2="30.28"/>
      </g>
      <line id="mol1bnd14" class="bond" x1="23.45" y1="30.59" x2="18.95" y2="33.13"/>
      <line id="mol1bnd15" class="bond" x1="18.95" y1="33.13" x2="14.55" y2="30.59"/>
      <g id="mol1bnd16" class="bond">
        <line x1="10.24" y1="33.13" x2="14.55" y2="30.59"/>
        <line x1="10.24" y1="32.19" x2="13.73" y2="30.13"/>
      </g>
      <line id="mol1bnd17" class="bond" x1="10.24" y1="33.13" x2="5.81" y2="30.59"/>
      <g id="mol1bnd18" class="bond">
        <line x1="6.22" y1="30.83" x2="2.8" y2="32.81"/>
        <line x1="5.81" y1="30.12" x2="2.39" y2="32.1"/>
      </g>
      <line id="mol1bnd19" class="bond" x1="5.81" y1="30.59" x2="5.81" y2="25.41"/>
      <g id="mol1bnd20" class="bond">
        <line x1="10.24" y1="22.97" x2="5.81" y2="25.41"/>
        <line x1="10.24" y1="23.9" x2="6.62" y2="25.89"/>
      </g>
      <line id="mol1bnd21" class="bond" x1="10.24" y1="22.97" x2="14.55" y2="25.41"/>
      <line id="mol1bnd22" class="bond" x1="14.55" y1="30.59" x2="14.55" y2="25.41"/>
      <path id="mol1bnd23" class="bond" d="M14.44 25.41h.21l.55 -5.08h-.63h-.63z" stroke="none" fill="#000000"/>
      <line id="mol1bnd24" class="bond" x1="14.55" y1="25.41" x2="18.95" y2="22.97"/>
      <line id="mol1bnd25" class="bond" x1="23.45" y1="25.41" x2="18.95" y2="22.97"/>
      <g id="mol1bnd26" class="bond">
        <line x1="19.05" y1="22.98" x2="18.84" y2="22.97"/>
        <line x1="19.11" y1="23.7" x2="18.75" y2="23.69"/>
        <line x1="19.16" y1="24.43" x2="18.65" y2="24.42"/>
        <line x1="19.22" y1="25.16" x2="18.56" y2="25.14"/>
        <line x1="19.28" y1="25.88" x2="18.47" y2="25.86"/>
        <line x1="19.33" y1="26.61" x2="18.37" y2="26.59"/>
      </g>
      <line id="mol1bnd27" class="bond" x1="18.95" y1="22.97" x2="18.95" y2="17.99"/>
      <path id="mol1bnd28" class="bond" d="M18.9 18.08l.11 -.18l-3.02 -2.2l-.25 .42l-.25 .42z" stroke="none" fill="#000000"/>
      <line id="mol1bnd29" class="bond" x1="18.95" y1="17.99" x2="23.45" y2="15.42"/>
      <line id="mol1bnd30" class="bond" x1="23.45" y1="15.42" x2="27.75" y2="17.99"/>
      <line id="mol1bnd31" class="bond" x1="32.6" y1="16.4" x2="27.75" y2="17.99"/>
      <line id="mol1bnd32" class="bond" x1="27.75" y1="22.97" x2="27.75" y2="17.99"/>
      <path id="mol1bnd33" class="bond" d="M27.65 17.98l.21 .02l1.08 -4.99l-.63 -.07l-.63 -.07z" stroke="none" fill="#000000"/>
      <path id="mol1bnd34" class="bond" d="M32.5 16.44l.19 -.08l-2.35 -6.71l-.45 .61l-.76 -.08z" stroke="none" fill="#000000"/>
      <g id="mol1bnd35" class="bond">
        <line x1="29.9" y1="10.26" x2="26.12" y2="9.85"/>
        <line x1="29.52" y1="9.41" x2="26.2" y2="9.04"/>
      </g>
      <line id="mol1bnd36" class="bond" x1="29.9" y1="10.26" x2="32.9" y2="6.17"/>
      <line id="mol1bnd37" class="bond" x1="32.9" y1="6.17" x2="31.43" y2="2.83"/>
      <path id="mol1atm6" class="atom" d="M42.73 21.66q-.27 .0 -.43 .2q-.16 .2 -.16 .55q.0 .35 .16 .55q.16 .2 .43 .2q.27 .0 .43 -.2q.16 -.2 .16 -.55q.0 -.35 -.16 -.55q-.16 -.2 -.43 -.2zM42.73 21.46q.39 .0 .62 .26q.23 .26 .23 .7q.0 .44 -.23 .7q-.23 .26 -.62 .26q-.39 .0 -.62 -.26q-.23 -.26 -.23 -.7q.0 -.43 .23 -.7q.23 -.26 .62 -.26z" stroke="none"/>
      <path id="mol1atm7" class="atom" d="M37.03 13.16q-.27 .0 -.43 .2q-.16 .2 -.16 .55q.0 .35 .16 .55q.16 .2 .43 .2q.27 .0 .43 -.2q.16 -.2 .16 -.55q.0 -.35 -.16 -.55q-.16 -.2 -.43 -.2zM37.03 12.96q.39 .0 .62 .26q.23 .26 .23 .7q.0 .44 -.23 .7q-.23 .26 -.62 .26q-.39 .0 -.62 -.26q-.23 -.26 -.23 -.7q.0 -.43 .23 -.7q.23 -.26 .62 -.26z" stroke="none"/>
      <path id="mol1atm19" class="atom" d="M1.41 32.39q-.27 .0 -.43 .2q-.16 .2 -.16 .55q.0 .35 .16 .55q.16 .2 .43 .2q.27 .0 .43 -.2q.16 -.2 .16 -.55q.0 -.35 -.16 -.55q-.16 -.2 -.43 -.2zM1.41 32.18q.39 .0 .62 .26q.23 .26 .23 .7q.0 .44 -.23 .7q-.23 .26 -.62 .26q-.39 .0 -.62 -.26q-.23 -.26 -.23 -.7q.0 -.43 .23 -.7q.23 -.26 .62 -.26z" stroke="none"/>
      <path id="mol1atm25" class="atom" d="M18.28 27.13h1.06v.21h-.81v.54h.73v.21h-.73v.88h-.25v-1.85z" stroke="none" fill="#90E050"/>
      <g id="mol1atm27" class="atom">
        <path d="M14.56 14.69q-.27 .0 -.43 .2q-.16 .2 -.16 .55q.0 .35 .16 .55q.16 .2 .43 .2q.27 .0 .43 -.2q.16 -.2 .16 -.55q.0 -.35 -.16 -.55q-.16 -.2 -.43 -.2zM14.56 14.49q.39 .0 .62 .26q.23 .26 .23 .7q.0 .44 -.23 .7q-.23 .26 -.62 .26q-.39 .0 -.62 -.26q-.23 -.26 -.23 -.7q.0 -.43 .23 -.7q.23 -.26 .62 -.26z" stroke="none"/>
        <path d="M12.09 14.52h.25v.76h.91v-.76h.25v1.85h-.25v-.88h-.91v.88h-.25v-1.85z" stroke="none"/>
      </g>
      <path id="mol1atm32" class="atom" d="M24.89 8.55q-.27 .0 -.43 .2q-.16 .2 -.16 .55q.0 .35 .16 .55q.16 .2 .43 .2q.27 .0 .43 -.2q.16 -.2 .16 -.55q.0 -.35 -.16 -.55q-.16 -.2 -.43 -.2zM24.89 8.35q.39 .0 .62 .26q.23 .26 .23 .7q.0 .44 -.23 .7q-.23 .26 -.62 .26q-.39 .0 -.62 -.26q-.23 -.26 -.23 -.7q.0 -.43 .23 -.7q.23 -.26 .62 -.26z" stroke="none"/>
      <g id="mol1atm34" class="atom">
        <path d="M30.85 .76q-.27 .0 -.43 .2q-.16 .2 -.16 .55q.0 .35 .16 .55q.16 .2 .43 .2q.27 .0 .43 -.2q.16 -.2 .16 -.55q.0 -.35 -.16 -.55q-.16 -.2 -.43 -.2zM30.85 .56q.39 .0 .62 .26q.23 .26 .23 .7q.0 .44 -.23 .7q-.23 .26 -.62 .26q-.39 .0 -.62 -.26q-.23 -.26 -.23 -.7q.0 -.43 .23 -.7q.23 -.26 .62 -.26z" stroke="none"/>
        <path d="M28.38 .59h.25v.76h.91v-.76h.25v1.85h-.25v-.88h-.91v.88h-.25v-1.85z" stroke="none"/>
      </g>
    </g>
  </g>
</svg>