<?xml version="1.0" encoding="UTF-8"?>
<!DOCTYPE svg PUBLIC "-//W3C//DTD SVG 1.1//EN" "http://www.w3.org/Graphics/SVG/1.1/DTD/svg11.dtd">
<svg version="1.2" xmlns="http://www.w3.org/2000/svg" xmlns:xlink="http://www.w3.org/1999/xlink" width="436" height="436" viewBox="0 0 46.54 34.34">
  <desc>Generated by the Chemistry Development Kit (http://github.com/cdk)</desc>
  <g stroke-linecap="round" stroke-linejoin="round" stroke="#000000" stroke-width=".21" fill="#000000">
    <rect x=".0" y=".0" width="47.0" height="35.0" fill="#FFFFFF" stroke="none"/>
    <g id="mol1" class="mol">
      <line id="mol1bnd1" class="bond" x1="45.83" y1="8.44" x2="41.43" y2="10.96"/>
      <g id="mol1bnd2" class="bond">
        <line x1="41.83" y1="10.73" x2="41.82" y2="14.67"/>
        <line x1="41.02" y1="10.73" x2="41.01" y2="14.67"/>
      </g>
      <line id="mol1bnd3" class="bond" x1="41.43" y1="10.96" x2="38.22" y2="9.1"/>
      <g id="mol1bnd4" class="bond">
        <line x1="32.57" y1="10.85" x2="32.68" y2="11.03"/>
        <line x1="33.17" y1="10.42" x2="33.35" y2="10.74"/>
        <line x1="33.76" y1="10.0" x2="34.01" y2="10.44"/>
        <line x1="34.35" y1="9.57" x2="34.68" y2="10.14"/>
        <line x1="34.94" y1="9.15" x2="35.35" y2="9.85"/>
        <line x1="35.54" y1="8.72" x2="36.01" y2="9.55"/>
      </g>
      <line id="mol1bnd5" class="bond" x1="32.63" y1="10.94" x2="35.61" y2="15.07"/>
      <line id="mol1bnd6" class="bond" x1="35.61" y1="15.07" x2="32.63" y2="19.17"/>
      <path id="mol1bnd7" class="bond" d="M27.85 17.48l-.07 .2l4.57 2.04l.38 -.52l.4 -.55z" stroke="none"/>
      <line id="mol1bnd8" class="bond" x1="27.82" y1="17.58" x2="23.42" y2="20.15"/>
      <g id="mol1bnd9" class="bond">
        <line x1="23.32" y1="20.21" x2="23.51" y2="20.1"/>
        <line x1="23.26" y1="20.97" x2="23.57" y2="20.79"/>
        <line x1="23.19" y1="21.73" x2="23.64" y2="21.48"/>
        <line x1="23.13" y1="22.49" x2="23.7" y2="22.17"/>
        <line x1="23.06" y1="23.26" x2="23.77" y2="22.86"/>
        <line x1="23.0" y1="24.02" x2="23.83" y2="23.54"/>
        <line x1="22.93" y1="24.78" x2="23.9" y2="24.23"/>
        <line x1="22.87" y1="25.54" x2="23.96" y2="24.92"/>
      </g>
      <g id="mol1bnd10" class="bond">
        <line x1="19.01" y1="27.74" x2="23.42" y2="25.23"/>
        <line x1="19.01" y1="26.8" x2="22.6" y2="24.76"/>
      </g>
      <line id="mol1bnd11" class="bond" x1="19.01" y1="27.74" x2="19.01" y2="31.43"/>
      <line id="mol1bnd12" class="bond" x1="19.01" y1="27.74" x2="14.61" y2="25.23"/>
      <g id="mol1bnd13" class="bond">
        <line x1="10.21" y1="27.74" x2="14.61" y2="25.23"/>
        <line x1="10.21" y1="26.8" x2="13.8" y2="24.76"/>
      </g>
      <line id="mol1bnd14" class="bond" x1="10.21" y1="27.74" x2="5.8" y2="25.23"/>
      <g id="mol1bnd15" class="bond">
        <line x1="6.21" y1="25.47" x2="2.8" y2="27.45"/>
        <line x1="5.8" y1="24.76" x2="2.39" y2="26.75"/>
      </g>
      <line id="mol1bnd16" class="bond" x1="5.8" y1="25.23" x2="5.8" y2="20.15"/>
      <g id="mol1bnd17" class="bond">
        <line x1="5.7" y1="20.15" x2="5.91" y2="20.15"/>
        <line x1="5.62" y1="19.43" x2="5.98" y2="19.43"/>
        <line x1="5.55" y1="18.7" x2="6.06" y2="18.7"/>
        <line x1="5.47" y1="17.98" x2="6.13" y2="17.98"/>
        <line x1="5.4" y1="17.25" x2="6.21" y2="17.25"/>
        <line x1="5.33" y1="16.52" x2="6.28" y2="16.52"/>
        <line x1="5.25" y1="15.8" x2="6.36" y2="15.8"/>
        <line x1="5.18" y1="15.07" x2="6.43" y2="15.07"/>
      </g>
      <g id="mol1bnd18" class="bond">
        <line x1="10.16" y1="17.67" x2="10.26" y2="17.49"/>
        <line x1="9.49" y1="17.38" x2="9.67" y2="17.07"/>
        <line x1="8.82" y1="17.09" x2="9.08" y2="16.64"/>
        <line x1="8.16" y1="16.79" x2="8.48" y2="16.22"/>
        <line x1="7.49" y1="16.5" x2="7.89" y2="15.8"/>
        <line x1="6.83" y1="16.21" x2="7.3" y2="15.37"/>
        <line x1="6.16" y1="15.91" x2="6.71" y2="14.95"/>
        <line x1="5.49" y1="15.62" x2="6.12" y2="14.53"/>
      </g>
      <line id="mol1bnd19" class="bond" x1="5.8" y1="20.15" x2="10.21" y2="17.58"/>
      <line id="mol1bnd20" class="bond" x1="10.21" y1="17.58" x2="14.61" y2="20.15"/>
      <line id="mol1bnd21" class="bond" x1="14.61" y1="25.23" x2="14.61" y2="20.15"/>
      <path id="mol1bnd22" class="bond" d="M14.51 20.15h.21l.52 -5.08h-.63h-.63z" stroke="none"/>
      <line id="mol1bnd23" class="bond" x1="14.61" y1="20.15" x2="19.01" y2="17.58"/>
      <line id="mol1bnd24" class="bond" x1="23.42" y1="20.15" x2="19.01" y2="17.58"/>
      <path id="mol1bnd25" class="bond" d="M18.91 17.58h.21l.56 -5.58l-.67 .38l-.59 .34z" stroke="none"/>
      <line id="mol1bnd26" class="bond" x1="19.01" y1="12.5" x2="23.42" y2="9.99"/>
      <line id="mol1bnd27" class="bond" x1="23.42" y1="9.99" x2="27.82" y2="12.5"/>
      <line id="mol1bnd28" class="bond" x1="32.63" y1="10.94" x2="27.82" y2="12.5"/>
      <line id="mol1bnd29" class="bond" x1="27.82" y1="17.58" x2="27.82" y2="12.5"/>
      <path id="mol1bnd30" class="bond" d="M27.71 12.49l.21 .02l1.04 -5.0l-.63 -.06l-.63 -.06z" stroke="none"/>
      <path id="mol1bnd31" class="bond" d="M32.53 10.98l.19 -.09l-2.36 -6.7l-.45 .62l-.76 -.08z" stroke="none"/>
      <line id="mol1bnd32" class="bond" x1="29.91" y1="4.81" x2="32.9" y2=".71"/>
      <g id="mol1bnd33" class="bond">
        <line x1="29.91" y1="4.81" x2="26.13" y2="4.41"/>
        <line x1="29.53" y1="3.95" x2="26.22" y2="3.6"/>
      </g>
      <path id="mol1atm3" class="atom" d="M41.41 15.29q-.27 .0 -.43 .2q-.16 .2 -.16 .55q.0 .35 .16 .55q.16 .2 .43 .2q.27 .0 .43 -.2q.16 -.2 .16 -.55q.0 -.35 -.16 -.55q-.16 -.2 -.43 -.2zM41.41 15.09q.39 .0 .62 .26q.23 .26 .23 .7q.0 .44 -.23 .7q-.23 .26 -.62 .26q-.39 .0 -.62 -.26q-.23 -.26 -.23 -.7q.0 -.43 .23 -.7q.23 -.26 .62 -.26z" stroke="none" fill="#FF0D0D"/>
      <path id="mol1atm4" class="atom" d="M37.03 7.66q-.27 .0 -.43 .2q-.16 .2 -.16 .55q.0 .35 .16 .55q.16 .2 .43 .2q.27 .0 .43 -.2q.16 -.2 .16 -.55q.0 -.35 -.16 -.55q-.16 -.2 -.43 -.2zM37.03 7.46q.39 .0 .62 .26q.23 .26 .23 .7q.0 .44 -.23 .7q-.23 .26 -.62 .26q-.39 .0 -.62 -.26q-.23 -.26 -.23 -.7q.0 -.43 .23 -.7q.23 -.26 .62 -.26z" stroke="none" fill="#FF0D0D"/>
      <path id="mol1atm12" class="atom" d="M19.76 32.04v.26q-.13 -.12 -.27 -.18q-.14 -.06 -.3 -.06q-.32 .0 -.49 .19q-.17 .19 -.17 .56q.0 .36 .17 .56q.17 .19 .49 .19q.16 .0 .3 -.06q.14 -.06 .27 -.17v.26q-.13 .09 -.28 .14q-.15 .04 -.31 .04q-.42 .0 -.66 -.26q-.24 -.26 -.24 -.7q.0 -.44 .24 -.7q.24 -.26 .66 -.26q.16 .0 .31 .05q.15 .04 .28 .13zM20.13 31.82h.23v1.92h-.23v-1.92z" stroke="none" fill="#1FF01F"/>
      <path id="mol1atm16" class="atom" d="M1.41 27.03q-.27 .0 -.43 .2q-.16 .2 -.16 .55q.0 .35 .16 .55q.16 .2 .43 .2q.27 .0 .43 -.2q.16 -.2 .16 -.55q.0 -.35 -.16 -.55q-.16 -.2 -.43 -.2zM1.41 26.83q.39 .0 .62 .26q.23 .26 .23 .7q.0 .44 -.23 .7q-.23 .26 -.62 .26q-.39 .0 -.62 -.26q-.23 -.26 -.23 -.7q.0 -.43 .23 -.7q.23 -.26 .62 -.26z" stroke="none" fill="#FF0D0D"/>
      <path id="mol1atm29" class="atom" d="M24.9 3.11q-.27 .0 -.43 .2q-.16 .2 -.16 .55q.0 .35 .16 .55q.16 .2 .43 .2q.27 .0 .43 -.2q.16 -.2 .16 -.55q.0 -.35 -.16 -.55q-.16 -.2 -.43 -.2zM24.9 2.91q.39 .0 .62 .26q.23 .26 .23 .7q.0 .44 -.23 .7q-.23 .26 -.62 .26q-.39 .0 -.62 -.26q-.23 -.26 -.23 -.7q.0 -.43 .23 -.7q.23 -.26 .62 -.26z" stroke="none" fill="#FF0D0D"/>
    </g>
  </g>
</svg>