<?xml version="1.0" encoding="UTF-8"?>
<!DOCTYPE svg PUBLIC "-//W3C//DTD SVG 1.1//EN" "http://www.w3.org/Graphics/SVG/1.1/DTD/svg11.dtd">
<svg version="1.2" xmlns="http://www.w3.org/2000/svg" xmlns:xlink="http://www.w3.org/1999/xlink" width="436" height="436" viewBox="0 0 43.3 29.28">
  <desc>Generated by the Chemistry Development Kit (http://github.com/cdk)</desc>
  <g stroke-linecap="round" stroke-linejoin="round" stroke="#000000" stroke-width=".21" fill="#000000">
    <rect x=".0" y=".0" width="44.0" height="30.0" fill="#FFFFFF" stroke="none"/>
    <g id="mol1" class="mol">
      <path id="mol1bnd1" class="bond" d="M30.97 13.33l.21 .02l1.05 -4.99l-.63 -.07l-.63 -.07z" stroke="none"/>
      <line id="mol1bnd2" class="bond" x1="31.08" y1="13.34" x2="26.68" y2="10.8"/>
      <line id="mol1bnd3" class="bond" x1="26.68" y1="10.8" x2="22.28" y2="13.34"/>
      <path id="mol1bnd4" class="bond" d="M22.17 18.42h.21l.56 -5.58l-.67 .39l-.59 .34z" stroke="none"/>
      <line id="mol1bnd5" class="bond" x1="22.28" y1="18.42" x2="26.68" y2="20.96"/>
      <g id="mol1bnd6" class="bond">
        <line x1="26.59" y1="21.01" x2="26.77" y2="20.9"/>
        <line x1="26.52" y1="21.77" x2="26.83" y2="21.59"/>
        <line x1="26.46" y1="22.54" x2="26.9" y2="22.28"/>
        <line x1="26.39" y1="23.3" x2="26.96" y2="22.97"/>
        <line x1="26.33" y1="24.06" x2="27.03" y2="23.66"/>
        <line x1="26.26" y1="24.82" x2="27.09" y2="24.34"/>
        <line x1="26.2" y1="25.59" x2="27.16" y2="25.03"/>
        <line x1="26.13" y1="26.35" x2="27.22" y2="25.72"/>
      </g>
      <line id="mol1bnd7" class="bond" x1="26.68" y1="26.03" x2="22.28" y2="28.57"/>
      <line id="mol1bnd8" class="bond" x1="22.28" y1="28.57" x2="17.88" y2="26.03"/>
      <g id="mol1bnd9" class="bond">
        <line x1="13.48" y1="28.57" x2="17.88" y2="26.03"/>
        <line x1="13.48" y1="27.63" x2="17.06" y2="25.56"/>
      </g>
      <line id="mol1bnd10" class="bond" x1="13.48" y1="28.57" x2="9.08" y2="26.03"/>
      <g id="mol1bnd11" class="bond">
        <line x1="9.08" y1="20.96" x2="9.08" y2="26.03"/>
        <line x1="9.89" y1="21.43" x2="9.89" y2="25.56"/>
      </g>
      <line id="mol1bnd12" class="bond" x1="9.08" y1="20.96" x2="13.48" y2="18.42"/>
      <line id="mol1bnd13" class="bond" x1="13.48" y1="18.42" x2="17.88" y2="20.96"/>
      <line id="mol1bnd14" class="bond" x1="22.28" y1="18.42" x2="17.88" y2="20.96"/>
      <line id="mol1bnd15" class="bond" x1="17.88" y1="26.03" x2="17.88" y2="20.96"/>
      <path id="mol1bnd16" class="bond" d="M17.77 20.96h.21l.52 -5.08h-.63h-.63z" stroke="none"/>
      <line id="mol1bnd17" class="bond" x1="9.08" y1="20.96" x2="4.27" y2="19.4"/>
      <g id="mol1bnd18" class="bond">
        <line x1="4.27" y1="19.4" x2="2.19" y2="22.23"/>
        <line x1="4.58" y1="20.35" x2="2.84" y2="22.72"/>
      </g>
      <line id="mol1bnd19" class="bond" x1="2.19" y1="24.76" x2="3.46" y2="26.49"/>
      <line id="mol1bnd20" class="bond" x1="9.08" y1="26.03" x2="5.52" y2="27.19"/>
      <line id="mol1bnd21" class="bond" x1="26.68" y1="20.96" x2="31.08" y2="18.42"/>
      <line id="mol1bnd22" class="bond" x1="31.08" y1="13.34" x2="31.08" y2="18.42"/>
      <path id="mol1bnd23" class="bond" d="M31.11 18.32l-.06 .2l4.56 2.01l.38 -.52l.41 -.55z" stroke="none"/>
      <line id="mol1bnd24" class="bond" x1="35.88" y1="19.98" x2="38.9" y2="15.88"/>
      <line id="mol1bnd25" class="bond" x1="38.9" y1="15.88" x2="35.88" y2="11.78"/>
      <line id="mol1bnd26" class="bond" x1="31.08" y1="13.34" x2="35.88" y2="11.78"/>
      <path id="mol1bnd27" class="bond" d="M35.83 11.69l.11 .18l3.4 -1.54l-.25 -.42l-.25 -.42z" stroke="none"/>
      <g id="mol1bnd28" class="bond">
        <line x1="35.79" y1="11.83" x2="35.98" y2="11.74"/>
        <line x1="35.43" y1="11.17" x2="35.73" y2="11.04"/>
        <line x1="35.07" y1="10.52" x2="35.48" y2="10.33"/>
        <line x1="34.72" y1="9.86" x2="35.23" y2="9.63"/>
        <line x1="34.36" y1="9.2" x2="34.98" y2="8.93"/>
        <line x1="34.0" y1="8.55" x2="34.73" y2="8.22"/>
        <line x1="33.65" y1="7.89" x2="34.48" y2="7.52"/>
        <line x1="33.29" y1="7.23" x2="34.23" y2="6.82"/>
        <line x1="32.93" y1="6.58" x2="33.98" y2="6.11"/>
        <line x1="32.58" y1="5.92" x2="33.72" y2="5.41"/>
      </g>
      <g id="mol1bnd29" class="bond">
        <line x1="33.15" y1="5.67" x2="31.08" y2="1.03"/>
        <line x1="32.41" y1="6.0" x2="30.34" y2="1.36"/>
        <line x1="33.89" y1="5.33" x2="31.82" y2=".7"/>
      </g>
      <path id="mol1atm17" class="atom" d="M.56 22.57h.33l.82 1.54v-1.54h.24v1.85h-.34l-.82 -1.54v1.54h-.24v-1.85z" stroke="none" fill="#3050F8"/>
      <path id="mol1atm18" class="atom" d="M4.27 26.84q-.27 .0 -.43 .2q-.16 .2 -.16 .55q.0 .35 .16 .55q.16 .2 .43 .2q.27 .0 .43 -.2q.16 -.2 .16 -.55q.0 -.35 -.16 -.55q-.16 -.2 -.43 -.2zM4.27 26.63q.39 .0 .62 .26q.23 .26 .23 .7q.0 .44 -.23 .7q-.23 .26 -.62 .26q-.39 .0 -.62 -.26q-.23 -.26 -.23 -.7q.0 -.43 .23 -.7q.23 -.26 .62 -.26z" stroke="none" fill="#FF0D0D"/>
      <g id="mol1atm23" class="atom">
        <path d="M40.27 8.48q-.27 .0 -.43 .2q-.16 .2 -.16 .55q.0 .35 .16 .55q.16 .2 .43 .2q.27 .0 .43 -.2q.16 -.2 .16 -.55q.0 -.35 -.16 -.55q-.16 -.2 -.43 -.2zM40.27 8.27q.39 .0 .62 .26q.23 .26 .23 .7q.0 .44 -.23 .7q-.23 .26 -.62 .26q-.39 .0 -.62 -.26q-.23 -.26 -.23 -.7q.0 -.43 .23 -.7q.23 -.26 .62 -.26z" stroke="none" fill="#FF0D0D"/>
        <path d="M41.34 8.31h.25v.76h.91v-.76h.25v1.85h-.25v-.88h-.91v.88h-.25v-1.85z" stroke="none" fill="#FF0D0D"/>
      </g>
    </g>
  </g>
</svg>