<?xml version="1.0" encoding="UTF-8"?>
<!DOCTYPE svg PUBLIC "-//W3C//DTD SVG 1.1//EN" "http://www.w3.org/Graphics/SVG/1.1/DTD/svg11.dtd">
<svg version="1.2" xmlns="http://www.w3.org/2000/svg" xmlns:xlink="http://www.w3.org/1999/xlink" width="436" height="436" viewBox="0 0 71.89 19.88">
  <desc>Generated by the Chemistry Development Kit (http://github.com/cdk)</desc>
  <g stroke-linecap="round" stroke-linejoin="round" stroke="#000000" stroke-width=".21" fill="#FF0D0D">
    <rect x=".0" y=".0" width="72.0" height="20.0" fill="#FFFFFF" stroke="none"/>
    <g id="mol1" class="mol">
      <line id="mol1bnd1" class="bond" x1=".7" y1="18.44" x2="5.08" y2="15.86"/>
      <line id="mol1bnd2" class="bond" x1="5.08" y1="15.86" x2="8.31" y2="17.69"/>
      <line id="mol1bnd3" class="bond" x1="10.68" y1="17.68" x2="13.88" y2="15.79"/>
      <g id="mol1bnd4" class="bond">
        <line x1="13.88" y1="15.79" x2="18.45" y2="18.33"/>
        <line x1="14.69" y1="15.31" x2="18.44" y2="17.39"/>
      </g>
      <line id="mol1bnd5" class="bond" x1="18.45" y1="18.33" x2="22.75" y2="15.79"/>
      <g id="mol1bnd6" class="bond">
        <line x1="22.75" y1="15.79" x2="22.75" y2="10.71"/>
        <line x1="21.94" y1="15.33" x2="21.94" y2="11.17"/>
      </g>
      <line id="mol1bnd7" class="bond" x1="22.75" y1="10.71" x2="18.45" y2="8.17"/>
      <g id="mol1bnd8" class="bond">
        <line x1="18.45" y1="8.17" x2="13.88" y2="10.71"/>
        <line x1="18.44" y1="9.11" x2="14.69" y2="11.19"/>
      </g>
      <line id="mol1bnd9" class="bond" x1="13.88" y1="15.79" x2="13.88" y2="10.71"/>
      <line id="mol1bnd10" class="bond" x1="22.75" y1="10.71" x2="27.17" y2="8.19"/>
      <line id="mol1bnd11" class="bond" x1="27.17" y1="8.19" x2="30.45" y2="4.32"/>
      <line id="mol1bnd12" class="bond" x1="27.17" y1="8.19" x2="23.92" y2="4.28"/>
      <line id="mol1bnd13" class="bond" x1="27.17" y1="8.19" x2="31.55" y2="10.75"/>
      <line id="mol1bnd14" class="bond" x1="31.55" y1="10.75" x2="34.78" y2="8.91"/>
      <line id="mol1bnd15" class="bond" x1="37.14" y1="8.92" x2="40.35" y2="10.8"/>
      <line id="mol1bnd16" class="bond" x1="40.35" y1="10.8" x2="44.76" y2="8.28"/>
      <g id="mol1bnd17" class="bond">
        <line x1="44.76" y1="8.28" x2="49.15" y2="10.84"/>
        <line x1="45.58" y1="7.81" x2="49.15" y2="9.9"/>
      </g>
      <line id="mol1bnd18" class="bond" x1="49.15" y1="10.84" x2="53.56" y2="8.32"/>
      <line id="mol1bnd19" class="bond" x1="53.56" y1="8.32" x2="56.77" y2="10.19"/>
      <line id="mol1bnd20" class="bond" x1="59.14" y1="10.19" x2="62.36" y2="8.35"/>
      <g id="mol1bnd21" class="bond">
        <line x1="62.36" y1="8.35" x2="66.76" y2="10.9"/>
        <line x1="63.18" y1="7.88" x2="66.76" y2="9.96"/>
      </g>
      <line id="mol1bnd22" class="bond" x1="66.76" y1="10.9" x2="71.17" y2="8.37"/>
      <g id="mol1bnd23" class="bond">
        <line x1="71.17" y1="8.37" x2="71.18" y2="3.29"/>
        <line x1="70.36" y1="7.9" x2="70.37" y2="3.76"/>
      </g>
      <line id="mol1bnd24" class="bond" x1="71.18" y1="3.29" x2="66.79" y2=".74"/>
      <g id="mol1bnd25" class="bond">
        <line x1="66.79" y1=".74" x2="62.38" y2="3.27"/>
        <line x1="66.79" y1="1.68" x2="63.19" y2="3.74"/>
      </g>
      <line id="mol1bnd26" class="bond" x1="62.36" y1="8.35" x2="62.38" y2="3.27"/>
      <g id="mol1bnd27" class="bond">
        <line x1="53.56" y1="8.32" x2="53.57" y2="3.26"/>
        <line x1="52.75" y1="7.85" x2="52.76" y2="3.73"/>
      </g>
      <line id="mol1bnd28" class="bond" x1="53.57" y1="3.26" x2="49.18" y2=".7"/>
      <g id="mol1bnd29" class="bond">
        <line x1="49.18" y1=".7" x2="44.79" y2="3.2"/>
        <line x1="49.18" y1="1.64" x2="45.6" y2="3.67"/>
      </g>
      <line id="mol1bnd30" class="bond" x1="44.76" y1="8.28" x2="44.79" y2="3.2"/>
      <path id="mol1atm3" class="atom" d="M9.5 17.61q-.27 .0 -.43 .2q-.16 .2 -.16 .55q.0 .35 .16 .55q.16 .2 .43 .2q.27 .0 .43 -.2q.16 -.2 .16 -.55q.0 -.35 -.16 -.55q-.16 -.2 -.43 -.2zM9.5 17.41q.39 .0 .62 .26q.23 .26 .23 .7q.0 .44 -.23 .7q-.23 .26 -.62 .26q-.39 .0 -.62 -.26q-.23 -.26 -.23 -.7q.0 -.43 .23 -.7q.23 -.26 .62 -.26z" stroke="none"/>
      <path id="mol1atm14" class="atom" d="M35.97 7.48q-.27 .0 -.43 .2q-.16 .2 -.16 .55q.0 .35 .16 .55q.16 .2 .43 .2q.27 .0 .43 -.2q.16 -.2 .16 -.55q.0 -.35 -.16 -.55q-.16 -.2 -.43 -.2zM35.97 7.28q.39 .0 .62 .26q.23 .26 .23 .7q.0 .44 -.23 .7q-.23 .26 -.62 .26q-.39 .0 -.62 -.26q-.23 -.26 -.23 -.7q.0 -.43 .23 -.7q.23 -.26 .62 -.26z" stroke="none"/>
      <path id="mol1atm19" class="atom" d="M57.96 10.12q-.27 .0 -.43 .2q-.16 .2 -.16 .55q.0 .35 .16 .55q.16 .2 .43 .2q.27 .0 .43 -.2q.16 -.2 .16 -.55q.0 -.35 -.16 -.55q-.16 -.2 -.43 -.2zM57.96 9.91q.39 .0 .62 .26q.23 .26 .23 .7q.0 .44 -.23 .7q-.23 .26 -.62 .26q-.39 .0 -.62 -.26q-.23 -.26 -.23 -.7q.0 -.43 .23 -.7q.23 -.26 .62 -.26z" stroke="none"/>
    </g>
  </g>
</svg>