<?xml version="1.0" encoding="UTF-8"?>
<!DOCTYPE svg PUBLIC "-//W3C//DTD SVG 1.1//EN" "http://www.w3.org/Graphics/SVG/1.1/DTD/svg11.dtd">
<svg version="1.2" xmlns="http://www.w3.org/2000/svg" xmlns:xlink="http://www.w3.org/1999/xlink" width="436" height="436" viewBox="0 0 49.08 40.81">
  <desc>Generated by the Chemistry Development Kit (http://github.com/cdk)</desc>
  <g stroke-linecap="round" stroke-linejoin="round" stroke="#000000" stroke-width=".21" fill="#000000">
    <rect x=".0" y=".0" width="50.0" height="41.0" fill="#FFFFFF" stroke="none"/>
    <g id="mol1" class="mol">
      <path id="mol1bnd1" class="bond" d="M11.9 35.89l-.16 -.13l-3.66 3.57l.48 .4l.48 .4z" stroke="none"/>
      <line id="mol1bnd2" class="bond" x1="11.82" y1="35.82" x2="7.42" y2="33.28"/>
      <line id="mol1bnd3" class="bond" x1="7.42" y1="33.28" x2="7.39" y2="28.24"/>
      <line id="mol1bnd4" class="bond" x1="7.39" y1="28.24" x2="11.75" y2="25.7"/>
      <line id="mol1bnd5" class="bond" x1="11.75" y1="25.7" x2="16.16" y2="28.2"/>
      <line id="mol1bnd6" class="bond" x1="16.16" y1="28.2" x2="16.19" y2="33.25"/>
      <line id="mol1bnd7" class="bond" x1="11.82" y1="35.82" x2="16.19" y2="33.25"/>
      <path id="mol1bnd8" class="bond" d="M16.24 33.16l-.11 .18l3.9 2.82l.59 -.34l.67 -.39z" stroke="none"/>
      <line id="mol1bnd9" class="bond" x1="20.53" y1="35.75" x2="24.93" y2="33.21"/>
      <line id="mol1bnd10" class="bond" x1="24.93" y1="33.21" x2="24.89" y2="28.13"/>
      <line id="mol1bnd11" class="bond" x1="24.89" y1="28.13" x2="20.49" y2="25.66"/>
      <line id="mol1bnd12" class="bond" x1="16.16" y1="28.2" x2="20.49" y2="25.66"/>
      <path id="mol1bnd13" class="bond" d="M20.39 25.66h.21l.53 -5.43l-.67 .39l-.67 -.38z" stroke="none"/>
      <g id="mol1bnd14" class="bond">
        <line x1="20.46" y1="20.62" x2="17.23" y2="18.78"/>
        <line x1="20.45" y1="19.68" x2="17.64" y2="18.07"/>
      </g>
      <line id="mol1bnd15" class="bond" x1="20.46" y1="20.62" x2="24.83" y2="18.08"/>
      <g id="mol1bnd16" class="bond">
        <line x1="29.2" y1="20.58" x2="24.83" y2="18.08"/>
        <line x1="28.39" y1="21.05" x2="24.83" y2="19.01"/>
      </g>
      <line id="mol1bnd17" class="bond" x1="29.2" y1="20.58" x2="29.23" y2="25.63"/>
      <line id="mol1bnd18" class="bond" x1="24.89" y1="28.13" x2="29.23" y2="25.63"/>
      <line id="mol1bnd19" class="bond" x1="29.23" y1="25.63" x2="33.63" y2="28.1"/>
      <line id="mol1bnd20" class="bond" x1="33.63" y1="28.1" x2="37.83" y2="26.14"/>
      <line id="mol1bnd21" class="bond" x1="37.83" y1="26.14" x2="37.9" y2="20.51"/>
      <line id="mol1bnd22" class="bond" x1="37.9" y1="20.51" x2="33.53" y2="18.01"/>
      <line id="mol1bnd23" class="bond" x1="29.2" y1="20.58" x2="33.53" y2="18.01"/>
      <g id="mol1bnd24" class="bond">
        <line x1="33.62" y1="17.95" x2="33.44" y2="18.06"/>
        <line x1="33.68" y1="17.07" x2="33.35" y2="17.26"/>
        <line x1="33.75" y1="16.18" x2="33.27" y2="16.47"/>
        <line x1="33.81" y1="15.3" x2="33.18" y2="15.67"/>
        <line x1="33.88" y1="14.41" x2="33.09" y2="14.88"/>
        <line x1="33.94" y1="13.52" x2="33.01" y2="14.08"/>
        <line x1="34.0" y1="12.64" x2="32.92" y2="13.28"/>
      </g>
      <line id="mol1bnd25" class="bond" x1="33.46" y1="12.96" x2="37.83" y2="10.35"/>
      <line id="mol1bnd26" class="bond" x1="37.83" y1="10.35" x2="42.3" y2="12.83"/>
      <line id="mol1bnd27" class="bond" x1="42.3" y1="12.83" x2="42.3" y2="17.91"/>
      <line id="mol1bnd28" class="bond" x1="37.9" y1="20.51" x2="42.3" y2="17.91"/>
      <path id="mol1bnd29" class="bond" d="M37.75 10.29l.16 .13l3.88 -3.89l-.76 -.12l-.28 -.72z" stroke="none"/>
      <g id="mol1bnd30" class="bond">
        <line x1="41.03" y1="6.41" x2="39.73" y2="3.01"/>
        <line x1="41.62" y1="5.68" x2="40.49" y2="2.72"/>
      </g>
      <line id="mol1bnd31" class="bond" x1="41.03" y1="6.41" x2="44.78" y2="7.0"/>
      <g id="mol1bnd32" class="bond">
        <line x1="37.75" y1="10.42" x2="37.91" y2="10.28"/>
        <line x1="37.22" y1="9.92" x2="37.49" y2="9.69"/>
        <line x1="36.69" y1="9.42" x2="37.07" y2="9.09"/>
        <line x1="36.16" y1="8.92" x2="36.66" y2="8.49"/>
        <line x1="35.62" y1="8.42" x2="36.24" y2="7.89"/>
        <line x1="35.09" y1="7.93" x2="35.82" y2="7.3"/>
        <line x1="34.56" y1="7.43" x2="35.4" y2="6.7"/>
        <line x1="34.03" y1="6.93" x2="34.98" y2="6.1"/>
      </g>
      <path id="mol1bnd33" class="bond" d="M37.95 20.42l-.11 .18l4.14 3.0l.32 -.55l.32 -.55z" stroke="none"/>
      <g id="mol1bnd34" class="bond">
        <line x1="29.33" y1="25.63" x2="29.12" y2="25.63"/>
        <line x1="29.41" y1="26.35" x2="29.05" y2="26.35"/>
        <line x1="29.49" y1="27.08" x2="28.98" y2="27.08"/>
        <line x1="29.57" y1="27.8" x2="28.91" y2="27.81"/>
        <line x1="29.65" y1="28.53" x2="28.84" y2="28.53"/>
        <line x1="29.73" y1="29.25" x2="28.77" y2="29.26"/>
        <line x1="29.81" y1="29.98" x2="28.7" y2="29.99"/>
        <line x1="29.89" y1="30.7" x2="28.63" y2="30.71"/>
      </g>
      <path id="mol1bnd35" class="bond" d="M24.79 28.13h.21l.54 -5.08h-.63h-.63z" stroke="none"/>
      <path id="mol1bnd36" class="bond" d="M16.05 28.2h.21l.49 -5.08h-.63h-.63z" stroke="none"/>
      <path id="mol1bnd37" class="bond" d="M7.47 33.37l-.11 -.18l-3.4 1.54l.25 .42l.25 .42z" stroke="none"/>
      <g id="mol1bnd38" class="bond">
        <line x1="11.9" y1="35.75" x2="11.74" y2="35.89"/>
        <line x1="12.43" y1="36.26" x2="12.15" y2="36.49"/>
        <line x1="12.96" y1="36.76" x2="12.57" y2="37.09"/>
        <line x1="13.48" y1="37.27" x2="12.98" y2="37.69"/>
        <line x1="14.01" y1="37.77" x2="13.39" y2="38.3"/>
        <line x1="14.54" y1="38.28" x2="13.81" y2="38.9"/>
        <line x1="15.06" y1="38.78" x2="14.22" y2="39.5"/>
        <line x1="15.59" y1="39.29" x2="14.63" y2="40.1"/>
      </g>
      <path id="mol1atm13" class="atom" d="M16.25 16.99q-.27 .0 -.43 .2q-.16 .2 -.16 .55q.0 .35 .16 .55q.16 .2 .43 .2q.27 .0 .43 -.2q.16 -.2 .16 -.55q.0 -.35 -.16 -.55q-.16 -.2 -.43 -.2zM16.25 16.79q.39 .0 .62 .26q.23 .26 .23 .7q.0 .44 -.23 .7q-.23 .26 -.62 .26q-.39 .0 -.62 -.26q-.23 -.26 -.23 -.7q.0 -.43 .23 -.7q.23 -.26 .62 -.26z" stroke="none" fill="#FF0D0D"/>
      <path id="mol1atm26" class="atom" d="M39.59 .76q-.27 .0 -.43 .2q-.16 .2 -.16 .55q.0 .35 .16 .55q.16 .2 .43 .2q.27 .0 .43 -.2q.16 -.2 .16 -.55q.0 -.35 -.16 -.55q-.16 -.2 -.43 -.2zM39.59 .56q.39 .0 .62 .26q.23 .26 .23 .7q.0 .44 -.23 .7q-.23 .26 -.62 .26q-.39 .0 -.62 -.26q-.23 -.26 -.23 -.7q.0 -.43 .23 -.7q.23 -.26 .62 -.26z" stroke="none" fill="#FF0D0D"/>
      <g id="mol1atm27" class="atom">
        <path d="M46.05 6.45q-.27 .0 -.43 .2q-.16 .2 -.16 .55q.0 .35 .16 .55q.16 .2 .43 .2q.27 .0 .43 -.2q.16 -.2 .16 -.55q.0 -.35 -.16 -.55q-.16 -.2 -.43 -.2zM46.05 6.24q.39 .0 .62 .26q.23 .26 .23 .7q.0 .44 -.23 .7q-.23 .26 -.62 .26q-.39 .0 -.62 -.26q-.23 -.26 -.23 -.7q.0 -.43 .23 -.7q.23 -.26 .62 -.26z" stroke="none" fill="#FF0D0D"/>
        <path d="M47.11 6.28h.25v.76h.91v-.76h.25v1.85h-.25v-.88h-.91v.88h-.25v-1.85z" stroke="none" fill="#FF0D0D"/>
      </g>
      <g id="mol1atm33" class="atom">
        <path d="M3.03 35.08q-.27 .0 -.43 .2q-.16 .2 -.16 .55q.0 .35 .16 .55q.16 .2 .43 .2q.27 .0 .43 -.2q.16 -.2 .16 -.55q.0 -.35 -.16 -.55q-.16 -.2 -.43 -.2zM3.03 34.88q.39 .0 .62 .26q.23 .26 .23 .7q.0 .44 -.23 .7q-.23 .26 -.62 .26q-.39 .0 -.62 -.26q-.23 -.26 -.23 -.7q.0 -.43 .23 -.7q.23 -.26 .62 -.26z" stroke="none" fill="#FF0D0D"/>
        <path d="M.56 34.91h.25v.76h.91v-.76h.25v1.85h-.25v-.88h-.91v.88h-.25v-1.85z" stroke="none" fill="#FF0D0D"/>
      </g>
    </g>
  </g>
</svg>