<?xml version="1.0" encoding="UTF-8"?>
<!DOCTYPE svg PUBLIC "-//W3C//DTD SVG 1.1//EN" "http://www.w3.org/Graphics/SVG/1.1/DTD/svg11.dtd">
<svg version="1.2" xmlns="http://www.w3.org/2000/svg" xmlns:xlink="http://www.w3.org/1999/xlink" width="436" height="436" viewBox="0 0 40.08 30.13">
  <desc>Generated by the Chemistry Development Kit (http://github.com/cdk)</desc>
  <g stroke-linecap="round" stroke-linejoin="round" stroke="#000000" stroke-width=".21" fill="#000000">
    <rect x=".0" y=".0" width="41.0" height="31.0" fill="#FFFFFF" stroke="none"/>
    <g id="mol1" class="mol">
      <path id="mol1bnd1" class="bond" d="M27.71 13.37l.21 .02l1.04 -5.0l-.63 -.06l-.63 -.06z" stroke="none"/>
      <line id="mol1bnd2" class="bond" x1="27.81" y1="13.38" x2="23.41" y2="10.84"/>
      <line id="mol1bnd3" class="bond" x1="23.41" y1="10.84" x2="19.01" y2="13.38"/>
      <path id="mol1bnd4" class="bond" d="M18.91 18.45h.21l.56 -5.58l-.67 .39l-.59 .34z" stroke="none"/>
      <line id="mol1bnd5" class="bond" x1="19.01" y1="18.45" x2="23.41" y2="20.99"/>
      <g id="mol1bnd6" class="bond">
        <line x1="23.32" y1="21.04" x2="23.5" y2="20.94"/>
        <line x1="23.25" y1="21.81" x2="23.57" y2="21.63"/>
        <line x1="23.19" y1="22.57" x2="23.63" y2="22.32"/>
        <line x1="23.12" y1="23.33" x2="23.7" y2="23.0"/>
        <line x1="23.06" y1="24.1" x2="23.76" y2="23.69"/>
        <line x1="23.0" y1="24.86" x2="23.83" y2="24.38"/>
        <line x1="22.93" y1="25.62" x2="23.89" y2="25.07"/>
        <line x1="22.87" y1="26.38" x2="23.96" y2="25.75"/>
      </g>
      <line id="mol1bnd7" class="bond" x1="23.41" y1="26.07" x2="19.01" y2="28.61"/>
      <line id="mol1bnd8" class="bond" x1="19.01" y1="28.61" x2="14.61" y2="26.07"/>
      <g id="mol1bnd9" class="bond">
        <line x1="10.21" y1="28.61" x2="14.61" y2="26.07"/>
        <line x1="10.21" y1="27.67" x2="13.8" y2="25.6"/>
      </g>
      <line id="mol1bnd10" class="bond" x1="10.21" y1="28.61" x2="5.81" y2="26.07"/>
      <g id="mol1bnd11" class="bond">
        <line x1="6.22" y1="26.3" x2="2.8" y2="28.28"/>
        <line x1="5.81" y1="25.6" x2="2.39" y2="27.57"/>
      </g>
      <line id="mol1bnd12" class="bond" x1="5.81" y1="26.07" x2="5.81" y2="20.99"/>
      <line id="mol1bnd13" class="bond" x1="5.81" y1="20.99" x2="10.21" y2="18.45"/>
      <g id="mol1bnd14" class="bond">
        <line x1="14.52" y1="21.04" x2="14.7" y2="20.94"/>
        <line x1="13.83" y1="20.72" x2="14.14" y2="20.54"/>
        <line x1="13.13" y1="20.39" x2="13.57" y2="20.14"/>
        <line x1="12.44" y1="20.07" x2="13.01" y2="19.74"/>
        <line x1="11.75" y1="19.74" x2="12.45" y2="19.34"/>
        <line x1="11.05" y1="19.42" x2="11.88" y2="18.94"/>
        <line x1="10.36" y1="19.09" x2="11.32" y2="18.54"/>
        <line x1="9.66" y1="18.77" x2="10.76" y2="18.14"/>
      </g>
      <line id="mol1bnd15" class="bond" x1="19.01" y1="18.45" x2="14.61" y2="20.99"/>
      <line id="mol1bnd16" class="bond" x1="14.61" y1="26.07" x2="14.61" y2="20.99"/>
      <line id="mol1bnd17" class="bond" x1="23.41" y1="20.99" x2="27.81" y2="18.45"/>
      <line id="mol1bnd18" class="bond" x1="27.81" y1="13.38" x2="27.81" y2="18.45"/>
      <path id="mol1bnd19" class="bond" d="M27.84 18.35l-.06 .2l4.6 2.01l.38 -.52l.4 -.55z" stroke="none"/>
      <line id="mol1bnd20" class="bond" x1="32.65" y1="20.01" x2="35.63" y2="15.91"/>
      <line id="mol1bnd21" class="bond" x1="35.63" y1="15.91" x2="32.65" y2="11.79"/>
      <line id="mol1bnd22" class="bond" x1="27.81" y1="13.38" x2="32.65" y2="11.79"/>
      <path id="mol1bnd23" class="bond" d="M32.6 11.69l.1 .18l3.41 -1.52l-.24 -.42l-.24 -.42z" stroke="none"/>
      <g id="mol1bnd24" class="bond">
        <line x1="32.56" y1="11.83" x2="32.75" y2="11.74"/>
        <line x1="32.2" y1="11.17" x2="32.5" y2="11.04"/>
        <line x1="31.84" y1="10.52" x2="32.25" y2="10.34"/>
        <line x1="31.48" y1="9.86" x2="32.0" y2="9.63"/>
        <line x1="31.13" y1="9.2" x2="31.75" y2="8.93"/>
        <line x1="30.77" y1="8.55" x2="31.49" y2="8.22"/>
        <line x1="30.41" y1="7.89" x2="31.24" y2="7.52"/>
        <line x1="30.06" y1="7.23" x2="30.99" y2="6.82"/>
        <line x1="29.7" y1="6.58" x2="30.74" y2="6.11"/>
        <line x1="29.34" y1="5.92" x2="30.49" y2="5.41"/>
      </g>
      <g id="mol1bnd25" class="bond">
        <line x1="29.92" y1="5.67" x2="27.85" y2="1.03"/>
        <line x1="29.18" y1="6.0" x2="27.11" y2="1.36"/>
        <line x1="30.66" y1="5.33" x2="28.59" y2=".7"/>
      </g>
      <path id="mol1atm12" class="atom" d="M1.41 27.85q-.27 .0 -.43 .2q-.16 .2 -.16 .55q.0 .35 .16 .55q.16 .2 .43 .2q.27 .0 .43 -.2q.16 -.2 .16 -.55q.0 -.35 -.16 -.55q-.16 -.2 -.43 -.2zM1.41 27.65q.39 .0 .62 .26q.23 .26 .23 .7q.0 .44 -.23 .7q-.23 .26 -.62 .26q-.39 .0 -.62 -.26q-.23 -.26 -.23 -.7q.0 -.43 .23 -.7q.23 -.26 .62 -.26z" stroke="none" fill="#FF0D0D"/>
      <g id="mol1atm20" class="atom">
        <path d="M37.05 8.5q-.27 .0 -.43 .2q-.16 .2 -.16 .55q.0 .35 .16 .55q.16 .2 .43 .2q.27 .0 .43 -.2q.16 -.2 .16 -.55q.0 -.35 -.16 -.55q-.16 -.2 -.43 -.2zM37.05 8.29q.39 .0 .62 .26q.23 .26 .23 .7q.0 .44 -.23 .7q-.23 .26 -.62 .26q-.39 .0 -.62 -.26q-.23 -.26 -.23 -.7q.0 -.43 .23 -.7q.23 -.26 .62 -.26z" stroke="none" fill="#FF0D0D"/>
        <path d="M38.11 8.33h.25v.76h.91v-.76h.25v1.85h-.25v-.88h-.91v.88h-.25v-1.85z" stroke="none" fill="#FF0D0D"/>
      </g>
    </g>
  </g>
</svg>