<?xml version="1.0" encoding="UTF-8"?>
<!DOCTYPE svg PUBLIC "-//W3C//DTD SVG 1.1//EN" "http://www.w3.org/Graphics/SVG/1.1/DTD/svg11.dtd">
<svg version="1.2" xmlns="http://www.w3.org/2000/svg" xmlns:xlink="http://www.w3.org/1999/xlink" width="436" height="436" viewBox="0 0 54.49 25.5">
  <desc>Generated by the Chemistry Development Kit (http://github.com/cdk)</desc>
  <g stroke-linecap="round" stroke-linejoin="round" stroke="#000000" stroke-width=".21" fill="#FF0D0D">
    <rect x=".0" y=".0" width="55.0" height="26.0" fill="#FFFFFF" stroke="none"/>
    <g id="mol1" class="mol">
      <g id="mol1bnd1" class="bond">
        <line x1="25.03" y1="16.85" x2="25.11" y2="16.66"/>
        <line x1="24.33" y1="16.63" x2="24.48" y2="16.3"/>
        <line x1="23.64" y1="16.4" x2="23.85" y2="15.93"/>
        <line x1="22.95" y1="16.17" x2="23.21" y2="15.57"/>
        <line x1="22.25" y1="15.95" x2="22.58" y2="15.21"/>
        <line x1="21.56" y1="15.72" x2="21.95" y2="14.84"/>
        <line x1="20.87" y1="15.49" x2="21.32" y2="14.48"/>
        <line x1="20.17" y1="15.27" x2="20.68" y2="14.12"/>
      </g>
      <line id="mol1bnd2" class="bond" x1="25.07" y1="16.76" x2="25.07" y2="11.68"/>
      <line id="mol1bnd3" class="bond" x1="25.07" y1="11.68" x2="29.47" y2="9.14"/>
      <g id="mol1bnd4" class="bond">
        <line x1="33.78" y1="11.73" x2="33.96" y2="11.63"/>
        <line x1="33.08" y1="11.41" x2="33.39" y2="11.23"/>
        <line x1="32.39" y1="11.08" x2="32.83" y2="10.82"/>
        <line x1="31.7" y1="10.75" x2="32.27" y2="10.42"/>
        <line x1="31.0" y1="10.43" x2="31.7" y2="10.02"/>
        <line x1="30.31" y1="10.1" x2="31.14" y2="9.62"/>
        <line x1="29.62" y1="9.78" x2="30.58" y2="9.22"/>
        <line x1="28.92" y1="9.45" x2="30.01" y2="8.82"/>
      </g>
      <line id="mol1bnd5" class="bond" x1="33.87" y1="11.68" x2="33.87" y2="16.76"/>
      <path id="mol1bnd6" class="bond" d="M33.92 16.67l-.1 .18l3.96 2.85l.59 -.34l.67 -.39z" stroke="none" fill="#000000"/>
      <line id="mol1bnd7" class="bond" x1="38.27" y1="19.3" x2="42.67" y2="16.76"/>
      <path id="mol1bnd8" class="bond" d="M42.77 11.68h-.21l-.56 5.59l.67 -.39l.59 -.34z" stroke="none" fill="#000000"/>
      <line id="mol1bnd9" class="bond" x1="42.67" y1="11.68" x2="47.07" y2="9.14"/>
      <line id="mol1bnd10" class="bond" x1="47.07" y1="9.14" x2="47.07" y2="4.06"/>
      <g id="mol1bnd11" class="bond">
        <line x1="47.01" y1="3.97" x2="47.12" y2="4.15"/>
        <line x1="47.6" y1="3.54" x2="47.78" y2="3.85"/>
        <line x1="48.2" y1="3.11" x2="48.45" y2="3.55"/>
        <line x1="48.79" y1="2.68" x2="49.12" y2="3.25"/>
        <line x1="49.38" y1="2.26" x2="49.78" y2="2.96"/>
        <line x1="49.97" y1="1.83" x2="50.45" y2="2.66"/>
      </g>
      <line id="mol1bnd12" class="bond" x1="47.07" y1="4.06" x2="42.67" y2="1.52"/>
      <line id="mol1bnd13" class="bond" x1="42.67" y1="1.52" x2="38.27" y2="4.06"/>
      <line id="mol1bnd14" class="bond" x1="38.27" y1="4.06" x2="38.27" y2="9.14"/>
      <line id="mol1bnd15" class="bond" x1="33.87" y1="11.68" x2="38.27" y2="9.14"/>
      <line id="mol1bnd16" class="bond" x1="42.67" y1="11.68" x2="38.27" y2="9.14"/>
      <g id="mol1bnd17" class="bond">
        <line x1="38.21" y1="9.23" x2="38.32" y2="9.05"/>
        <line x1="37.55" y1="8.93" x2="37.73" y2="8.62"/>
        <line x1="36.88" y1="8.63" x2="37.14" y2="8.19"/>
        <line x1="36.22" y1="8.33" x2="36.55" y2="7.76"/>
        <line x1="35.55" y1="8.04" x2="35.96" y2="7.34"/>
        <line x1="34.88" y1="7.74" x2="35.36" y2="6.91"/>
        <line x1="34.22" y1="7.44" x2="34.77" y2="6.48"/>
        <line x1="33.55" y1="7.14" x2="34.18" y2="6.05"/>
      </g>
      <line id="mol1bnd18" class="bond" x1="33.87" y1="16.76" x2="29.47" y2="19.3"/>
      <line id="mol1bnd19" class="bond" x1="25.07" y1="16.76" x2="29.47" y2="19.3"/>
      <g id="mol1bnd20" class="bond">
        <line x1="29.54" y1="19.22" x2="29.4" y2="19.38"/>
        <line x1="30.13" y1="19.65" x2="29.89" y2="19.92"/>
        <line x1="30.72" y1="20.08" x2="30.38" y2="20.46"/>
        <line x1="31.31" y1="20.51" x2="30.87" y2="21.0"/>
        <line x1="31.9" y1="20.94" x2="31.35" y2="21.54"/>
        <line x1="32.49" y1="21.37" x2="31.84" y2="22.08"/>
      </g>
      <g id="mol1bnd21" class="bond">
        <line x1="28.38" y1="24.17" x2="28.44" y2="24.37"/>
        <line x1="29.05" y1="23.87" x2="29.16" y2="24.21"/>
        <line x1="29.71" y1="23.58" x2="29.87" y2="24.06"/>
        <line x1="30.38" y1="23.28" x2="30.58" y2="23.91"/>
        <line x1="31.05" y1="22.99" x2="31.3" y2="23.75"/>
        <line x1="31.71" y1="22.69" x2="32.01" y2="23.6"/>
      </g>
      <line id="mol1bnd22" class="bond" x1="29.47" y1="19.3" x2="28.41" y2="24.27"/>
      <line id="mol1bnd23" class="bond" x1="28.41" y1="24.27" x2="23.36" y2="24.8"/>
      <line id="mol1bnd24" class="bond" x1="23.36" y1="24.8" x2="21.29" y2="20.16"/>
      <line id="mol1bnd25" class="bond" x1="25.07" y1="16.76" x2="21.29" y2="20.16"/>
      <g id="mol1bnd26" class="bond">
        <line x1="21.27" y1="20.26" x2="21.32" y2="20.05"/>
        <line x1="20.55" y1="20.18" x2="20.62" y2="19.83"/>
        <line x1="19.82" y1="20.1" x2="19.93" y2="19.61"/>
        <line x1="19.1" y1="20.03" x2="19.23" y2="19.38"/>
        <line x1="18.37" y1="19.95" x2="18.54" y2="19.16"/>
        <line x1="17.64" y1="19.87" x2="17.84" y2="18.93"/>
        <line x1="16.92" y1="19.79" x2="17.15" y2="18.71"/>
        <line x1="16.19" y1="19.72" x2="16.46" y2="18.49"/>
      </g>
      <g id="mol1bnd27" class="bond">
        <line x1="12.92" y1="22.88" x2="16.32" y2="19.1"/>
        <line x1="12.63" y1="21.98" x2="15.41" y2="18.91"/>
      </g>
      <line id="mol1bnd28" class="bond" x1="12.92" y1="22.88" x2="9.22" y2="22.09"/>
      <line id="mol1bnd29" class="bond" x1="7.51" y1="20.46" x2="6.38" y2="16.98"/>
      <g id="mol1bnd30" class="bond">
        <line x1="6.53" y1="17.43" x2="2.59" y2="16.59"/>
        <line x1="6.7" y1="16.63" x2="2.76" y2="15.8"/>
      </g>
      <line id="mol1bnd31" class="bond" x1="6.38" y1="16.98" x2="9.78" y2="13.21"/>
      <g id="mol1bnd32" class="bond">
        <line x1="14.75" y1="14.27" x2="9.78" y2="13.21"/>
        <line x1="14.13" y1="14.96" x2="10.07" y2="14.1"/>
      </g>
      <line id="mol1bnd33" class="bond" x1="16.32" y1="19.1" x2="14.75" y2="14.27"/>
      <g id="mol1atm12" class="atom">
        <path d="M51.47 .76q-.27 .0 -.43 .2q-.16 .2 -.16 .55q.0 .35 .16 .55q.16 .2 .43 .2q.27 .0 .43 -.2q.16 -.2 .16 -.55q.0 -.35 -.16 -.55q-.16 -.2 -.43 -.2zM51.47 .56q.39 .0 .62 .26q.23 .26 .23 .7q.0 .44 -.23 .7q-.23 .26 -.62 .26q-.39 .0 -.62 -.26q-.23 -.26 -.23 -.7q.0 -.43 .23 -.7q.23 -.26 .62 -.26z" stroke="none"/>
        <path d="M52.53 .59h.25v.76h.91v-.76h.25v1.85h-.25v-.88h-.91v.88h-.25v-1.85z" stroke="none"/>
      </g>
      <path id="mol1atm18" class="atom" d="M33.24 21.94q-.27 .0 -.43 .2q-.16 .2 -.16 .55q.0 .35 .16 .55q.16 .2 .43 .2q.27 .0 .43 -.2q.16 -.2 .16 -.55q.0 -.35 -.16 -.55q-.16 -.2 -.43 -.2zM33.24 21.74q.39 .0 .62 .26q.23 .26 .23 .7q.0 .44 -.23 .7q-.23 .26 -.62 .26q-.39 .0 -.62 -.26q-.23 -.26 -.23 -.7q.0 -.43 .23 -.7q.23 -.26 .62 -.26z" stroke="none"/>
      <path id="mol1atm24" class="atom" d="M7.96 21.06q-.27 .0 -.43 .2q-.16 .2 -.16 .55q.0 .35 .16 .55q.16 .2 .43 .2q.27 .0 .43 -.2q.16 -.2 .16 -.55q.0 -.35 -.16 -.55q-.16 -.2 -.43 -.2zM7.96 20.86q.39 .0 .62 .26q.23 .26 .23 .7q.0 .44 -.23 .7q-.23 .26 -.62 .26q-.39 .0 -.62 -.26q-.23 -.26 -.23 -.7q.0 -.43 .23 -.7q.23 -.26 .62 -.26z" stroke="none"/>
      <path id="mol1atm26" class="atom" d="M1.41 15.17q-.27 .0 -.43 .2q-.16 .2 -.16 .55q.0 .35 .16 .55q.16 .2 .43 .2q.27 .0 .43 -.2q.16 -.2 .16 -.55q.0 -.35 -.16 -.55q-.16 -.2 -.43 -.2zM1.41 14.97q.39 .0 .62 .26q.23 .26 .23 .7q.0 .44 -.23 .7q-.23 .26 -.62 .26q-.39 .0 -.62 -.26q-.23 -.26 -.23 -.7q.0 -.43 .23 -.7q.23 -.26 .62 -.26z" stroke="none"/>
    </g>
  </g>
</svg>