<?xml version="1.0" encoding="utf-8"?>
<!-- Generator: Adobe Illustrator 26.4.1, SVG Export Plug-In . SVG Version: 6.00 Build 0)  -->
<svg version="1.1" id="Lager_1" xmlns="http://www.w3.org/2000/svg" xmlns:xlink="http://www.w3.org/1999/xlink" x="0px" y="0px"
	 viewBox="0 0 452.67 463.03" style="enable-background:new 0 0 452.67 463.03;" xml:space="preserve">
<style type="text/css">
	.st0{fill:none;}
	.st1{fill:#F2F2F2;}
</style>
<path class="st0" d="M166.16,467.78c5.74,0.11,10.85-2.12,16.04-3.72c1.49-0.63,2.99-1.26,4.48-1.92h-24.01
	c0.13,0.74,0.26,1.49,0.4,2.23C163.2,466.18,164.57,467.35,166.16,467.78z"/>
<path class="st0" d="M114.99,462.15h-6.62C110.54,462.32,112.78,462.32,114.99,462.15z"/>
<path class="st0" d="M0.57,225.36v-1.98c-0.3,0.14-0.6,0.29-0.89,0.46C-0.2,224.52,0.14,225.01,0.57,225.36z"/>
<path class="st1" d="M0.57,121.86v-4.8C-1.09,118.56-0.04,119.96,0.57,121.86z"/>
<path class="st1" d="M0.57,129.77v-2.85C0.39,127.88,0.28,128.84,0.57,129.77z"/>
<path class="st0" d="M74.08,454.5l-4.55-5.55c0,0-1.11,1.51-1.52,2.88c-1.87,3.26-3.25,6.77-4.49,10.31h17.31
	C78.04,460.26,75.63,457.88,74.08,454.5z"/>
<path class="st0" d="M154.16,447.17c0-1.17-1.6-2.65-2.45-0.96c-3.28,4.88-4.88,10.62-10.18,14.45c-0.48,0.55-0.99,1.03-1.51,1.48
	h16.12C155.47,457.17,154.71,452.21,154.16,447.17z"/>
<path class="st0" d="M3.83,443.98c-1.04-1.31-2.14-2.6-3.26-3.9v22.07h23.68c-0.87-0.66-1.73-1.32-2.58-2.02
	C16.04,454.71,9.56,449.71,3.83,443.98z"/>
<path class="st0" d="M98.91,201.85c-0.53-1.28-1.91-1.06-3.08-1.28c-0.53,0.22-1.17,0.53-1.7,0.96c-2.24,2.34-0.21,5.42,0.32,7.86
	c0.43,1.6,2.66,2.34,2.12,4.36c-0.03,0.17-0.08,0.31-0.16,0.45l-0.37,0l0.37,0c-0.45,0.82-1.67,1.08-2.49,0.72
	c-0.33-0.21-0.65-0.44-0.95-0.7l-0.04,0c-3.64-2.87-5.19-7.5-7.84-11.21l-1.59-1.05c-1.81-0.43-3.61-0.1-4.88,1.39
	c-0.22,0.83-0.43,1.91,0,2.65c3.24,2.19,5.33,5.32,7.81,8.2l-6.83-0.02c-0.77-0.68-1.62-1.28-2.57-1.8
	c-3.93-1.29-5.63-7.44-10.73-6.06c-1.92,0.11-3.5,1.6-4.57,3.08c-0.74,0.75-0.53,2.13,0.22,2.86c0.94,0.65,1.88,1.26,2.83,1.9
	l0.06,0c2.14,1.37,4.27,2.72,6.25,4.48c2.55,0.21,4.14,2.65,6.8,2.65c0.96,0.53,1.92,1.49,1.7,2.76c-0.31,0.75-1.06,1.49-2.02,1.49
	c-4.68-2.34-9.99-3.19-14.44-6.17c-3.29-0.84-6.92-0.95-9.78-2.76c-2.13,0.11-4.67-2.44-6.37,0.21c-0.1,0.53-0.53,1.6,0.43,1.91
	c6.28,2.13,12.64,4.03,18.17,7.86c5.41,0.32,9.66,3.71,14.24,6.07c4.36,1.69,6.58-3.51,9.45-5.86l0.11-1.06
	c-4.07-3.18-5.92-8.21-9.75-11.56l6.83,0c0.52,0.61,1.07,1.21,1.64,1.78c2.97,1.28,3.73,5.84,7.43,5.2
	c1.61-0.85,3.94-1.59,4.57-3.51c-0.31-1.11-0.61-2.27-0.86-3.47h0C98.37,210.19,98.01,205.86,98.91,201.85z"/>
<path class="st0" d="M135.68,284.3c-0.21,0.02-0.44,0.08-0.65,0.22l-0.08,0c-0.59,0.28-1.05,0.82-0.76,1.59
	c5.96,9.24,10.53,19.01,17.53,27.83c1.3,1.38,3.3,1.16,5.1,1.16c2.13-0.1,4.05-0.54,5.73-1.7c0.34-0.64,0-1.48-0.2-2.12
	c-2.97-3.61-5.84-7.65-9.56-11.15c-4.04-4.36-8.3-8.83-12.55-12.32c-2.06-0.18-2.1-2.59-3.41-3.29l2.89-0.02l-2.89-0.01
	C136.52,284.32,136.15,284.24,135.68,284.3z"/>
<path class="st0" d="M149.71,283.98c-2.35-1.17-3.83-4.68-6.61-4.79c-0.73,0.22-1.38,0.75-1.48,1.49c0,1.38,0.96,2.75,2.12,3.39
	c0.17,0.12,0.34,0.24,0.51,0.4l0.05,0c8.22,5.85,14.49,14.42,22.5,20.65c5.1,3.61,10.2,7.12,15.93,9.35
	c3.95,1.28,8.5,0.96,12.75,1.39c0.85-0.32,2.23,0,2.66-0.85c-3.4-1.49-6.37-4.04-9.45-6.28c-5.65-5.84-12.99-7.53-19.24-11.88
	c-6.44-3.46-11.47-9.68-18.2-12.32h0C150.76,284.31,150.24,284.14,149.71,283.98z"/>
<path class="st0" d="M230.44,404.25c2.45,2.54,5.1,6.58,8.93,5.73c3.2-4.18,6.6-8.36,8.86-12.95l9.45,0.02
	c-2.62,5.1-5.97,9.93-8.12,15.27c-3.19,8.5-11.04,14.98-15.29,23.04c-9.05,8.57-16.34,19.18-25.97,26.78h47.47
	c0.66-1.15,1.28-2.26,0.7-3.04c-2.75-3.74-10.15-11.35-16.1-13.69c-3.41-0.94-3.97,0.52-5.99,2.97c-1.17,0.96-2.59,1.36-3.87,0.83
	c-1.39-0.64-1.33-1.96-0.91-3.13c1.28-3.4,5.42-5.63,7.24-8.71c3.39-5.95,7.42-9.49,11.57-15.24c3.91-2.54,6.63,2.07,10.15,3.03
	c0.94,0.86,2.02,2.03,1.15,3.19c-3.91,1.38-8.39,1.38-11.88,4.05c-1.39,1.27-3.63,2.54-3.84,4.57c1.27,2.43,4.44,5.23,6.89,5.02
	c3.29-1.37-1.18-6.27,3.5-6.27c3.39,0.1,4.55,0.57,6.23,3.23c0.23,0.52,0.76,1.37,0.23,2.02c-1.4,1.17-4.04-0.11-4.68,2.33
	c-0.1,1.16,0.16,3.75,1.44,4.6c1.17,1.7,3.3,2.12,5.19,1.7c2.45-0.64,3.41-3.29,4.79-4.99c1.7-3.5-2.23-5.75-4.15-8.19
	c-0.1-1.37,0.75-2.65,2.02-3.19c4.68,0.96,7.49,4.41,11.74,6.22c0.31,1.39-0.43,2.66-1.07,3.73c-5.62,6.74-9.56,12.93-15.51,18.97
	h4.71c5.67-6.67,9.97-14.03,14.83-21.14c4.79-6.48,6.59-14.13,10.21-21.04c2.86-6.48,4.87-13.39,7.43-20.08
	c0.16-0.96,0.35-1.9,0.54-2.86h0c1.21-5.75,2.97-11.25,4.34-16.91c0.4-2.22,2.12-5.21,0.1-7.01l-13.27-0.21
	c-7.45,0.65-15.53,0-22.32,2.34c-3.29,4.57-4.35,9.99-6.67,14.98c-0.71,2.37-1.71,4.63-2.84,6.81l-9.45-0.04
	c2.16-4.42,3.28-9.24,2.18-14.85l-0.85-1.48l-3.92-1.5c-10.95-2.97-22.21,0-33.37,0.54l-1.59,1.06c-0.21,2.66,2.35,4.46,3.83,6.48
	c3.77,2.9,6.89,6.29,9.86,9.79l-0.41,0h0.41C226.41,399.43,228.38,401.87,230.44,404.25z"/>
<path class="st0" d="M120.7,211.51c1.17-4.15,2.13-8.39,1.7-13.17c-0.32-1.6-2.23-1.91-3.4-1.28l-2.65,5.32l-0.21,6.06
	c-0.31,1.16-1.39,2.23-2.77,2.33c-3.61-1.59-1.38-6.6-1.49-9.67c-0.64-1.6-2.43-2.44-3.93-3.29c-0.96,0-2.34-0.11-3.08,0.85
	c-0.32,0.84,0,1.81,0.32,2.65c0.17,4.15-0.01,8.57,0.38,12.88h0c0.09,0.99,0.21,1.98,0.37,2.95l1.06,1.17
	c3.62,0.85,7.86,0.97,11.26-0.21c1.86-0.8,1.73-2.38,1.76-3.91l3.6-0.02l-3.6-0.02C120.02,213.21,120.1,212.27,120.7,211.51z"/>
<path class="st0" d="M244.79,284.07c-5.84-1.06-11.57-2.44-17.22-3.93c-7.42-1.37-14.13-4.24-21.56-5.41
	c-9.47-3.19-20.18-3.4-29.76-6.17c-6.78-2.65-14.55-3.08-21.56-5.31c-1.69-0.32-3.72-2.65-5.42-0.43c-0.54,3.52-2.66,6.49-3.94,9.78
	c-0.86,1.17,0.21,2.44,1.17,3.19c5.17,2.05,9.53,5.88,14.31,8.68l0.07,0c0.41,0.23,0.82,0.46,1.23,0.67
	c6.16,4.36,11.58,10.3,18.92,11.69c7.53,6.37,15.07,12.32,23.69,16.47c3.41,0,6.27,1.6,9.25,2.65c5.21,0.11,10.4,0.21,15.3,0.95
	c0.63-0.31,2.34-0.11,1.69-1.48c-3.17-2.97-7.22-4.04-10.19-7.54c-5.42-6.27-13.82-5.1-20.08-9.35c-3.61-1.49-6.37-4.89-9.97-6.16
	c-4.79-3.51-10.34-4.89-15.86-6.69c-0.96-0.21-1.92-0.61-2.87-1.12l-0.08,0c-2.37-1.17-4.74-2.74-7.29-2.97
	c-3.08-1.49-7.71-0.48-8.12-5.05c0.2-1.7,2-1.39,3.39-1.39c4.26,0.75,7.97,2.77,12.32,3.3c4.67,2.66,9.67,4.46,14.99,5.53
	c0.33,0.2,0.66,0.39,0.99,0.54l-8.68,0.02l8.68,0.03c3.89,2.19,8.13,3.62,11.66,6.85c4.04,1.91,8.28,3.51,12.2,5.84
	c3.93,1.59,7.23,4.78,11.59,5.42c1.7,1.92,4.04,3.3,6.37,4.04c3.4,1.7,5.52,5.52,9.13,6.59l7.01,0.53c1.6,0.42,2.88,1.48,4.58,1.59
	c2.33,0.32,5.51,0.85,7.12-1.49c0.31-1.6,0.63-3.93-0.21-5.42c-3.3-3.08-7.46-5.42-11.17-8.08c-6.68-1.48-12.85-4.35-19.76-5.63
	c-4.46-3.61-10.19-4.14-15.51-5.94c-2.97-1.6-7.22-0.21-9.67-3.29l-3.18-0.43c-0.56-0.2-1.12-0.4-1.69-0.61l-0.05,0
	c-5.94-2.05-12.01-3.74-17.92-5.87c-3.94-2.66-9.47-1.59-13.17-4.89c-0.65-0.74-0.21-1.91,0.62-2.34c1.5-0.74,3.72-0.95,5.43-0.32
	c6.27,3.3,13.49,3.94,20.4,5.63c8.07,2.55,16.26,4.89,24.23,7.65c0.17,0.05,0.34,0.1,0.51,0.12l-12.63,0.01l12.63,0.02
	c9.98,2.9,18.88,8.18,29.22,10.16c1.4,0.42,2.35-0.54,2.89-1.6c-0.4-3.15-0.71-6.49-3.39-8.59h-0.01
	C245.24,284.37,245.02,284.21,244.79,284.07z"/>
<path class="st0" d="M162.27,214.19l-5,0l5,0.01c-5.64,2.86-10.69,7.92-15.22,12.4c-1.16,1.17-2.01,2.66-1.48,4.36
	c2.23,2.12,0.41,6.48,3.62,7.54c5.29-1.27,9.87-4.35,15.61-4.67c4.36-0.96,9.06-1.38,13.74-1.16l10.8-0.65
	c5.2-1.6,10.53-2.86,15.95-3.82c0.31-0.43-0.11-0.97-0.11-1.39c-6.92-5.41-16.26-8.5-24.96-5.41c-7.77,4.14-15.95,6.8-23.69,10.73
	c-1.39-0.21-2.87,0-3.83-1.17c-0.32-0.65-0.23-1.49,0.41-1.81c7.11-3.08,14.04-6.69,21.26-9.35c1.9-1.8,6.37-0.84,6.28-4.25
	l-1.37-1.36l-0.34-0.34C172.88,210.83,167.34,211.63,162.27,214.19z"/>
<path class="st0" d="M131.33,198.23c-1.07,0.22-1.49,1.38-2.03,2.13c0.27,4.93-2.73,8.96-2.25,13.79h0
	c0.09,0.86,0.29,1.75,0.65,2.68c0.75,0.11,0.85-0.53,1.49-0.96c0.21-0.56,0.43-1.12,0.64-1.68l0,0c1.76-4.49,3.66-8.82,4.15-13.83
	C133.55,199.19,132.6,198.13,131.33,198.23z"/>
<path class="st0" d="M86.59,280.14c-9.35-6.47-10.83-17.62-9.88-28.47c-0.22-0.86-0.24-1.66-0.11-2.42h0
	c0.64-3.88,4.91-6.58,2.88-10.75c-3.62-2.22-7.98-2.54-11.48-4.78l-4.36-1.81c-9.98-3.51-24.19-13.47-31.16-6.43
	c-4.31,4.36,24.68,7.55,24.9,9.57c-0.32,0.64-0.78,1.7-1.43,1.92c-5.41,0.21-33.56-5.22-39.59,1c-0.99,1.02,0.43,1.81,1.17,2.23
	c6.69,0.31,13.08,2.13,19.86,1.59c7.76-0.53,15.6,1.11,23.56,1.43c3.3,1.7,9.86-0.08,9.88,2.48c0.01,2.09-1.74,0.96-2.79,2.02
	c-5.21,1.06-8.65,0-13.6,0l-28.29-0.93c-6.21-0.1-14.56-1.73-19,2.46l-0.05,0c-0.1,0.1-0.2,0.2-0.3,0.3
	c-5.14,5.42,52.27,1.19,50.36,4.16c-0.92,4.05-43.5,4.28-56.6,6.2v9.11c7.98-0.88,15.74-2.22,23.33-3.96
	c3.94-1.17,43.68-7.31,43.99-5.92c1.06,4.79-19.56,4.54-21.15,6.98c-10.16,2.49-32.85,9.48-46.16,11.13v10.38
	c3.03-1.09,6.04-2.25,9.13-3.12l0.13,0c0.27-0.07,0.53-0.15,0.8-0.22c6.16-2.66,39.43-14.77,46.14-16.15
	c1.91,0.21,12.69-4.39,13.43-1.74c-1.06,1.59-9.28,4.17-10.66,5.44c-4.3,1.48-18.79,7.48-31.12,12.67l-0.1,0
	c-8.06,3.36-15.18,6.34-17.9,7.43c-3.17,1.58-6.51,2.76-9.84,3.96v7.29c2.46-1.25,4.89-2.57,7.4-3.61c9.03-4.57,18.38-8.39,27.83-12
	c2.6-0.83,5.1-1.87,7.56-3.07l0.06,0c7.66-3.66,14.84-8.49,22.79-11.48c1.79-0.67,4.16,2.89,1.98,3.9
	c-4.28,1.98-7.94,5.21-12.18,7.58l-6.64,0.02l6.64,0.02c-1.54,0.87-3.15,1.63-4.9,2.19c-6.35,2.02-11.59,6.69-18.07,8.28
	c-10.2,5.21-21.67,7.33-30.91,14.78c-0.32,0.73-0.95,2.02,0,2.65c7.22,2.55,16.68,1.91,23.26-1.39
	c12.23-8.07,25.51-13.59,37.19-22.95c2.09-1.37,3.88-2.48,5.49-3.6l0.06,0c1.48-1,2.8-1.96,4.02-3.07c0.68-1.11,2.33-0.57,3.71,0.83
	c0.17,1.17-0.21,1.77-0.89,2.24l-3.56,0.02l3.56,0.02c-1.14,0.86-3.12,1.46-4.85,3.98c-10.95,7.64-20.72,18.17-31.87,25.29
	c-0.63,0.94-0.11,2.12,0.84,2.65c5.85,0.64,12.86,1.17,17.95-1.49c5.85-6.7,12.76-13.17,17.86-20.29c1.81-3.41,3.97-6.67,6.42-9.76
	c0.16-0.19,0.31-0.33,0.46-0.44l0.01,0c0.61-0.42,1.18-0.26,1.82,0l-1.28,0l1.28,0.01c0.48,0.2,1,0.46,1.59,0.58
	c0.85,0.96,1.13,0.68,1.13,1.95c0.12,1.91-0.73,3.61-2.22,4.56c-2.14,3.93-4.85,6.8-7.31,10.51c-3.61,4.04-8.08,6.92-9.98,11.8
	c-0.12,0.75-0.43,2.23,0.63,2.23c3.29-0.74,7.75,1.6,9.99-1.91c3.39-5.53,8.07-10.62,10.84-16.36c1.7-3.19,2.43-6.8,4.88-9.67
	c1.17-0.21,2.24,0.32,3.09,1.06c0.42,2.23,3.19,3.82,1.7,6.49c-3.08,6.69-8.3,12.42-12.54,18.59c-0.42,0.64-0.54,1.81,0.1,2.34
	c2.77,0.85,5.53,1.28,8.62,0.96c5.4-2.24,3.92-9.03,6.26-13.4c0.84-3.29-0.86-7.12,1.27-9.99c0.85-1.8,2.77-2.13,4.67-1.91
	c1.17,0.43,2.24,1.6,2.14,2.87c-1.28,4.25-1.06,9.13-2.77,13.17c-0.42,2.45-2.23,5.63,0,7.97c0.76,1.81,3.08,1.38,4.57,1.38
	c2.55-1.7,2.44-5.42,1.81-8.18c0.22-2.13,1.06-4.04,0.74-6.49c-2.13-2.44-1.06-6.16-0.43-8.93c0.54-1.37,2.14-1.8,3.61-1.59
	c2.02,0.53,3.09,2.55,3.3,4.36c-0.75,4.78-2.45,9.88-1.07,14.88c0.75,1.59,1.49,4.25,3.72,4.25c1.28-0.32,2.98-0.11,3.52-1.71
	c0.84-5.64-2.34-10.19-1.28-15.83c-1.17-3.08-2.97-5.84-3.4-9.25c-1.16-2.34-4.14-0.32-5.95-1.7c-3.07,0.96-6.68,0.32-10.09,0.52
	c-3.6-0.57-6.89-1.94-10.07-3.58h-0.04C91.92,283.14,89.28,281.56,86.59,280.14z"/>
<path class="st0" d="M158.83,209.59c1.29-0.84,3.63-0.63,3.29-2.85c-0.52-1.28-1.79-1.71-2.74-2.45c-6.93-2.05-9.65,5.48-13.09,9.9
	l-2.78,0.01l2.78,0.02c-0.31,0.4-0.62,0.77-0.95,1.12c-0.63,0.54-1.48,0.11-2.12-0.1c-0.31-0.32-0.58-0.66-0.78-1.04h-0.01
	c-0.33-0.61-0.43-1.28-0.17-1.95c2.11-3.39,4.67-6.58,7.54-9.66l0.21-1.28c-1.59-0.53-2.97-1.27-4.77-0.95
	c-4.03-0.43-4.79,4.04-6.9,6.38c-0.55,2.29-1.67,4.83-2.4,7.45h-0.01c-0.95,3.38-1.2,6.81,1.45,9.76c1.17,0.74,2.25,2.23,3.84,1.48
	c4.14-4.14,8.68-7.46,12.92-11.23h0.01C155.76,212.75,157.34,211.24,158.83,209.59z"/>
<path class="st0" d="M1.14,172l16.17,0l-16.17-0.04c5.36-3.1,10.79-6.02,16.6-8.03c9.46-4.68,18.59-9.99,28.47-13.39
	c12.86-5.42,27.31-7.11,40.69-11.26c15.42-2.87,31.67-6.37,47.72-3.61c1.79-0.54,11.06,2.08,12.65,0.49c0-0.32,0-0.64-0.32-0.74
	c-5.95-1.39-16.95-1.42-22.04-4.71c-1.61-0.85-5.27-4.17-7.29-4.17c-3.19,2.97-6.61,4.07-10.32,5.98c-6.27,2.76-8.6,1.63-15.51,2.18
	c-2.12-0.54-5.63-3.12-7.98-2.9c-1.81,0.43-6.35,4.41-7.62,5.68c-4.03,4.03-9.35,5.2-14.35,6.69c-8.49,1.92-15.5-4.03-20.29-10.52
	c-1.7-1.37-4.57-1.16-6.7-0.63c-5.63,2.66-11.78,3.83-17.31,6.58c-5.5,3.69-11.34,6.63-16.96,10.03v22.71
	C0.76,172.21,0.95,172.1,1.14,172z"/>
<path class="st0" d="M0.57,182.53v13.41c1,0.75,1.96,1.69,2.94,2.72c3.83,3.72,3.65,10.55,2.11,15.07c0,0,4.16,0.23,6.06,0.23
	c2.14-0.53,3.3-2.55,3.83-4.46c-0.21-1.7-0.32-3.72,0.54-5.2c1.17-1.39,2.98-1.91,4.79-1.49c3.51,2.02,4.03,6.06,3.51,9.57
	c-0.85,3.61-4.25,6.79-7.55,8.28c-4.99,2-11.41,0.52-16.22,2.72v1.98c0.64,0.52,1.5,0.74,2.28,0.83c2.26-0.95,3.52,1.48,2.78,3.28
	l-5.07,5.1v5.64c2.96-2.85,5.99-5.61,8.89-8.29c6.37-4.88,12.54-11.47,19.22-15.83c1.09-0.64,2.17-1.28,3.25-1.89l16.45-0.02
	l-16.45-0.02c10.46-6.28,20.82-12.94,32.67-16.03l10.19-1.38c8.51-2.12,17.11-3.83,26.14-4.67l26.25-0.11
	c9.23,1.06,18.27,2.66,26.98,4.78c5.63,2.97,12.54,2.97,17.97,6.38c5.93,3.72,12.95,4.89,19.11,8.39c1.5,0.89,3.01,1.75,4.52,2.64
	l0.05,0c5.35,3.05,10.72,6.11,15.51,10.32c6.9,3.81,10.93,11.04,17.09,15.93c2.12,3.04,4.46,5.96,6.91,8.82h0.02
	c2.6,3.01,5.33,5.93,8.06,8.82c3.19,5.73,7.65,11.05,9.46,17.42c1.98,2.8,3.33,5.88,4.51,9.04l-2.98,0l2.98,0
	c1.1,2.96,2.06,5.99,3.24,8.92c3.96,5.84,4.47,13.18,4.99,20.4l0.65,0.63c5.19,0.64,10.2-1.16,15.4,0
	c4.68-0.74,9.98-0.63,14.98-1.06c3.08-2.23,9.35-0.53,9.88-5.52c-0.32-7.22-4.57-12.86-5.94-19.66c-0.59-1.22-1.15-2.45-1.69-3.7h0
	c-4.25-9.94-6.82-20.65-11.92-30.19c-0.48-1.71-1.07-3.38-1.72-5.05h-0.01c-1.81-4.56-4.08-8.94-5.72-13.54l-6.27-9.24l-0.62-1.81
	c-3.4-3.44-6.48-7.02-9.53-10.5l8.23-0.02l-8.23-0.03c-5.33-6.17-10.56-12.17-17.24-16.97c-9.99-7.22-17.75-18.59-28.69-23.59
	c-0.75-0.51-1.5-1.02-2.25-1.55l-0.05,0c-4.67-3.12-9.39-5.97-14.49-7.8c-7.44-3.82-15.19-7-22.42-11.05c-5-1.8-9.9-3.93-14.88-5.73
	c-13.17-2.98-26.67-5.64-41.22-5.1c-4.15-0.22-7.44,1.7-11.8,0.96c-18.39,3.41-37.72,4.46-54.61,11.47
	c-4.26,3.08-9.57,4.04-13.92,6.81c-7.69,3.37-15.39,6.76-22.97,10.41h-0.01c-1.95,0.94-3.88,1.89-5.81,2.86
	C8.7,177.38,4.58,179.84,0.57,182.53z M235.53,242.54c1.68-3.83,4.65,0.1,7.32-0.75c5.51-2.87,11.26-4.89,16.26-8.92
	c2.12-0.31,3.6-2.33,4.76-3.93c-0.31-1.91-1.03-3.83-0.4-5.74c0.85-0.53,2.02-1.27,2.86-0.42c2.23,2.01,2.55,4.89,4.05,7.22
	c3.93,3.71,5.73,8.61,8.28,13.07c0.42,1.8,2.03,3.72,0.64,5.62c-1.38,1.92-3.61,2.24-5.84,2.24c-1.08-0.54-0.78-1.92-0.53-2.76
	c1.72-5.83-0.74-9.14-5.43-9.46c-0.85,3.08-5.87,1.67-4.5,5.39c1.08,1.48,3.01,3.43,2.5,5.45c0.21,2.24-2.02,3.29-3.62,4.14
	l-1.39-0.1c-1.68-2.34-4.04-4.25-4.57-6.91c-0.43-0.52-1.28-0.95-1.91-0.42c-0.96,1.92-4.47,3.08-3.4,5.85
	c2.55,2.44,2.33,6.16,5.53,8.18c1.48,0.42,2.66-0.63,4.24-0.63c2.23,0.95,5.75-0.43,7.23,1.7c0.31,2.33-2.45,2.13-3.82,2.86
	c-3.52,1.29-7.65,3.09-11.38,1.4c-3.94-3.51-4.04-8.51-7.75-12.01l-0.22-1.28c-2.75-2.76-5.1-5.73-8.49-7.11
	C234.98,244.65,235.19,243.28,235.53,242.54z M188.77,203.6c2.02-0.95,4.15-0.12,6.05-1.49c5.73-2.23,10.73-6.59,15.82-10.31
	c2.99-4.13,7.02-6.47,11.49-7.75c3.18,0.11,4.13-0.07,4.86,2.16c0,0-0.31,3.02,0.22,7.47c-0.96,1.5-3,24.89-3.85,26.48
	c-2.44,5.21-0.85,0.91,1.06,6.23c0.1,0.95-0.64,1.91-1.5,2.23c-2.84-0.53-7.17-3.13-8.56-5.79c-1.71-1.7-6.94-4.96-7.05-7.94
	c0-0.53,0.43-1.05,0.85-1.05c1.58,1.27,3.61,0.49,5.41,0.07c0.84-1.27,0.61-2.12-0.22-3.08c-4.05-3.19-6.32-5.95-11.86-4.24
	c-1.26,1.38,0.23,3.08,0.33,4.57c-3.19,2.34-4.25-1.91-6.7-2.86c-2.22-0.53-4.02-2.03-6.06-2.98
	C188.77,204.87,188.56,204.23,188.77,203.6z M159.78,184.25c4.79-2.02,5.16-8.28,6.85-12.31c0.54-2.97,2.77-5.73,2.12-8.93
	c-1.38-1.69-4.77-2.54-3.28-5.41c1.38-2.44,4.15-0.21,6.17-0.43c1.7,2.23,7.06,3.6,9.08,4.87c1.9,0.65,3.8,1.71,5.09,3.3
	c-0.43,4.14-5.85,1.69-7.44,4.88c-2.43,7.75-11.41,16.66-4.94,25.17c0.22,0.84-0.21,1.69-1.06,1.91c-3.3,0.11-8.23-4.24-10.98-5.73
	c-2.88-0.64-6.27-0.53-8.08-3.18C153.61,185.2,157.76,186.05,159.78,184.25z M99.87,154.78c0.53-1.59,0.31-4.04,2.33-4.25
	c8.08-0.96,16.68,0.75,24.66-0.53c4.03,0.64,9.35-1.17,11.68,2.44c-0.2,3.52-0.74,7.12-1.27,10.63c-0.21,0.74-0.97,1.28-1.7,1.17
	c-1.73-0.17-4.14-0.21-3.66-7.68c-3.36-3.73-7.99-1.77-8.13,2.16c-0.4,11.41-2.13,13.07-0.97,20.82c1.69,2.02,1.69,4.88,4.24,6.38
	c0.54,1.06-0.32,2.23-1.37,2.45c-2.99,0.52-5.32-1.27-8.19-1.38c-3.61-0.32-7.33,0.74-10.62-0.42c-1.06-0.53-0.63-1.81-0.2-2.55
	c7.43-4.89,5.83-14.56,6.48-22.63c-0.11-1.28-0.79-2.57-2.02-3.08c-6.22-2.62-5,2.02-7.86,2.66c-0.63,0.64-2.03,0.64-2.65,0
	C98.49,159.46,99.87,156.8,99.87,154.78z M49.32,161.23c1.81-0.86,11-3.72,12.49-1.91c4.35,2.65,19.22,20.89,19.22,20.89
	c2.96,4.36,2.29,1.67,6.11,5.18l-0.21,0.84c-4.36,1.71-10.67,7.6-15.15,6.31c-4.5-1.3,1.37-4.27,0.73-6.4
	c-0.1-1.49-0.73-2.63-2-3.59c-2.34-1.7-10.36,2.67-12.49,3.54c-1.89,1.7-4.35,3.29-4.45,6.06c-0.21,1.16,0.54,1.8,1.05,2.65
	c0.75,0.43,2.14,0.1,2.24,1.28c-0.54,2.12-3.07,1.97-4.67,3.24c-2.54,0.85-5.85,3.02-7.96,0.91c1.59-4.04,2.86-8.19,3.51-12.55
	l0.42-13.18C47.29,170.26,44.75,164.41,49.32,161.23z"/>
<path class="st0" d="M64.58,178.53c0.53-0.85,0.53-2.44,0-3.4c-2.34-2.02-6.49-9.79-10.73-7.88c-1.92,3.51-1.1,11.73,0.17,14.92
	C55.5,183.34,63.18,179.28,64.58,178.53z"/>
<path class="st0" d="M209.66,249.25l-19.73-0.01c-5.69-0.19-11.29-0.13-16.9,0.01l-34.43-0.04c-0.22-1.27-0.45-2.54-0.96-3.72
	c-0.83-3.18,3.3-3.4,4.9-5.2c0.1-0.95,0.54-2.44-0.42-3.18c-2.35-2.13-4.78-4.78-7.55-6.27c-2.44-1.8-4.99-3.5-7.75-4.46
	c-7.34-1.7-16.36-1.7-23.05,1.28c-5.1,2.65-9.14,7.74-12.32,12.42c-1.57,2.96-3.17,5.95-4.21,9.18h-0.01
	c-0.86,2.65-1.34,5.44-1.1,8.46c1.92,5.42,3.31,12.22,9.68,14.87c7.65,5.96,17.21,9.25,27.52,6.8c4.35-1.05,9.14-0.74,12.64-3.82
	c5.84-5.1,8.08-11.79,8.08-19.34c-0.12-2.23-2.56-1.7-3.94-2.12c-0.92-1.47-1.2-3.18-1.5-4.85l34.43,0.04
	c-6.87,0.22-13.77,0.61-20.89,0.9c-1.6,0.42-2.43,1.91-2.02,3.61c5.32,7.12,14.44,6.58,22.2,8.6c5.64,0.22,10.85,1.38,15.83,2.97
	c6.71,0.32,12.11,3.62,18.71,4.26c7.2,0,13.28,3.18,20.19,4.25c4.66,1.17,9.13,3.19,14,3.93c0.97,0,2.02-0.53,2.35-1.49
	c-0.42-4.04-2.76-7.22-4.57-10.62c-6.38-8.61-17.53-5.21-26.78-5.41c-3.92,0-7.97-0.65-11.68,0.21c-7.66-0.11-15.19-0.64-22.42-1.59
	c-1.28-0.21-1.71-1.7-1.48-2.76c2.74-4.47,7.74-0.32,11.78-1.49c5.62-0.53,10.73,0,16.15-0.32c8.4,1.81,18.06,0.64,26.14-0.53
	c0.32-1.38-1.37-2.34-2.13-3.19c-2.39-0.83-5.01-1.24-7.72-1.36l10.52-0.01l-10.52-0.03C217.09,248.97,213.31,249.16,209.66,249.25z
	 M95.47,249.21l-2.32,0.02l2.32,0.02c-0.55,0.69-1.2,1.36-1.38,2.2c-1.16,1.59-1.27,5.2-4.14,4.57c-2.42-2.35-0.77-4.57,0.49-6.81
	l0.02,0c0.44-0.84,0.84-1.64,0.98-2.44c1.27-0.53,4.35-1.8,4.89,0.54C96.28,248.05,95.91,248.65,95.47,249.21z M101.11,249.64
	c-0.14-0.1-0.27-0.22-0.4-0.34l3.52-0.05C103.38,249.97,102.2,250,101.11,249.64z M104.62,248.78c-0.12,0.16-0.25,0.31-0.39,0.43
	l-3.52,0.03c-1.62-1.54-1.71-4.36-4.28-5.35c-1.16,0.21-2.75,0.32-3.72-0.43c-0.64-0.53-0.54-1.7-0.11-2.33
	c2.54-1.7,5.84-1.81,9.04-1.49l1.27,1.49C105.04,243.05,105.47,246.13,104.62,248.78z M117.15,255.48
	c-0.64,0.53-1.49,0.53-2.34,0.53c-0.86-2.16-1.03-4.53-1.51-6.76l5.98,0C118.83,251.35,117.61,253.35,117.15,255.48z M119.28,249.25
	l-5.98,0c-0.11-0.51-0.24-1.02-0.4-1.52c-0.85-2.24-3.3-4.46-2.23-7.01c0.32-0.53,0.84-1.18,1.48-1.28c3.5-0.32,5.42,3.4,6.81,5.85
	C119.56,246.68,119.56,247.98,119.28,249.25z M133.83,249.32c-0.21,2.02-0.96,4.15-2.77,5.21c-2.55-0.53-0.42-4.25-3.39-4.89
	c-2.34-1.06-2.34,3.19-4.46,0.75c-0.33-0.3-0.56-0.68-0.71-1.09l11.33-0.05C133.83,249.25,133.83,249.28,133.83,249.32z
	 M122.5,249.25c-0.38-1.02-0.24-2.34,0.07-3.33c0.32-2.12,2.23-3.71,4.25-4.24c2.01-0.43,3.5,0.53,4.99,1.59
	c1.67,1.57,2.01,3.66,2.02,5.95L122.5,249.25z M206.96,249.33l-8.17,0.43c-2.99-0.26-5.93-0.43-8.86-0.51l19.73,0.02
	C208.75,249.3,207.85,249.32,206.96,249.33z"/>
<path class="st0" d="M184.44,402.54c2.34,4.46,3.72,9.46,6.49,13.71c5.19,10.09,9.66,20.61,15.51,30.39c1.81,0.42,3.59,0,4.89-1.18
	c6.7-6.69,15.39-12.53,19.11-21.03c3.61-5.2-1.26-9.78-3.92-13.7c-4.9-4.45-9.54-9.02-14.14-13.67l-0.02,0
	c-4.07-4.09-8.11-8.22-12.3-12.36l-3.94-1.82c-5.3-0.42-11.15-0.85-16.45-0.1c-1.39,0.75-2.78,1.92-2.88,3.51
	c0.14,4.12,2.23,7.45,4.37,10.74h0C182.34,398.83,183.54,400.63,184.44,402.54z"/>
<path class="st0" d="M216.12,204c0.66-4.06,2.1-9.67,2.31-12.53l-0.41-0.43c-2.66,1.28-3.04,2.52-5.49,4.21
	c-0.21,0.64-5.41,4.27-4.76,4.9C209.04,201.75,215.82,205.81,216.12,204z"/>
<path class="st0" d="M149.6,245.73l7.53-0.53c17.02-0.22,33.47-1.81,50.7-1.28c3.82,0.74,8.39,0.21,11.47-2.13
	c0.51-3.71-3.08-5.63-5.85-7.44c-3.49-2.65-8.17-0.32-12.32-0.53c-4.9,1.06-9.64,2.24-14.54,3.19l-8.21,0.31l-12.74,1.59
	c-2.65,0.75-5.74,0.11-8.07,1.29c-3.29,0.31-5.42,3.18-8.93,2.97C148.33,244.13,148.53,245.2,149.6,245.73z"/>
<path class="st0" d="M390.81,264.22c-5-18.92-10.31-37.71-19.99-54.72c-4.44-9.88-11.26-19.01-17.63-27.94
	c-3.5-5.95-7.76-11.57-11.79-17.32c-11.36-12.22-23.05-24.11-35.26-36.01c-6.17-4.89-12.44-10.2-18.07-16.04
	c-13.91-11.79-28.26-22.63-44.62-28.37c-7.86-3.92-15.92-7-23.57-11.25c-13.29-6.27-27.41-10.63-42.62-12.22
	c-4.77-0.32-9.34-2.13-14.43-1.06l-15.62-2.65c-8.62-1.17-17.32-0.95-26.14-1.7c-12.42,0.53-24.96,0.75-36.76,2.87
	c-8.39,0.96-16.78,2.44-25.17,3.4c-5.53,2.02-11.79,2.65-17.42,4.36c-9.35,1.49-18.38,3.61-27.52,5.84
	c-4.82,0.83-9.29,2.56-13.62,4.62v4.8c2.4-0.68,5.01-1.14,7.23-0.76c3.5-0.75,2.07-6.57,6.95-4.34l0.96,1.17
	c0.1,4.89,3.36,7.47,1.86,11.83c-1.07,1.27-0.81,1.69-2.52,1.69c-0.73-0.32-1.9,0.21-2.23-0.85c-0.32-2.12-2.55-4.37-4.46-5.12
	c-1.46-0.07-5.05,1.21-7.79,2.85v9.69c5.75,3.04,12.59-1.69,18.45-2.34c2.76,0.32,5.2,1.91,7.54,3.72
	c4.04,4.46,6.37,10.73,4.35,16.67c-3.28,6.27-9.13,13.5-17.1,12.75c-2.87,0.86-5.11-2.76-7.33-0.53c-0.1,1.7,0.43,3.72-1.37,4.36
	c-1.39,0.31-2.98,0.21-4.04-0.85c-0.23-0.33-0.39-0.67-0.49-1v7.79c8.75-4.91,18.33-7.77,27.15-12.53
	c5.95-2.34,11.59-5.52,17.97-6.8c3.89-1.21,8.1-1.76,12.22-2.5l19.81,0.04c-0.58,3.2-1.69,6.14-3.25,8.37
	c-2.97,3.29-6.58,6.59-11.15,6.27c-5.52-4.56,4.78-4.89,3.61-9.67c-0.65-1.49-2.66-1.17-4.04-1.06c-2.97,0.74-7.22,1.27-7.76,5.21
	c-0.74,3.5,0.23,6.91,2.77,9.45c3.5,2.34,8.28,0.65,12,0.11c6.69-2.56,12.59-9.81,13.13-16.61c0.43-1.12,0.93-1.74,1.5-2.11l0.08,0
	c0.78-0.4,1.67-0.25,2.64,0l-0.96,0.01l0.96,0.01c1.46,0.41,3.09,1.06,4.75,0.42c0.32-0.13,0.67-0.27,1.01-0.45l0.02,0
	c1.02-0.49,1.98-1.18,1.83-2.53c-0.84-2.66-2.97-0.1-4.89-0.74c-3.07-1.49-2.55-5.21-2.55-8.3c-0.96-2.43-10.12-5.73-11.81-4.68
	c2.52,4.85,3.07,10.95,2.11,16.24l-19.81-0.02c3.51-0.65,6.96-1.44,10.09-2.9c2.22-1.91,3.71-4.99,2.66-7.96
	c-3.3-3.83-8.3-4.78-13.5-4.25c-3.19-0.11-7.01,4.04-9.46,0c0-5.73,6.06-10.52,10.84-12.86c11.37-4.99,20.94,3.19,29.76,8.51
	c2.65,0.42,5.95,0.64,7.97-1.17c2.23-2.34,4.99-5.1,3.82-8.61c-0.95-2.54-3.6-4.89-6.15-5.53c-1.39-0.21-2.98-0.42-4.04,0.64
	c-1.49,1.59-2.12,4.57-4.78,4.89c-1.8,0.43-3.61,0-4.78-1.59c-3.3-3.3-0.95-8.4,0-11.9c3.72-6.28,10.62-10.21,18.06-8.83l7.33,3.08
	c4.57,2.98,9.89,3.94,14.34,7.44c4.68,0.42,7.23-4.57,10.95-6.38c7.33-5.21,17.53-4.03,26.56-3.29c2.77,0.42,5.21,1.59,7.55,2.97
	c1.48,2.12,2.02,4.88,1.59,7.44c-0.43,2.02-2.14,4.35-4.25,4.68c-5.75-1.81-12.97-3.72-18.08,0.64c-2.45,1.91-6.04,4.04-6.04,7.44
	c0.32,3.08,2.33,6.48,5.4,7.33c3.52,0.64,6.8,4.89,10.42,1.92c6.28-5.43,12.97-9.57,21.04-10.84c5.3-0.63,9.13,2.65,12.32,6.69
	c0.21,1.71,0.32,4.15-1.28,5.53c-4.67,3.29-12.09-0.42-15.51,5.31c-0.75,3.94-3.56,7.46-3.12,11.61h0c0.06,0.55,0.18,1.1,0.37,1.67
	c3.07,1.8,6.79-0.32,10.19,0.74c6.59,1.49,12.12,5.32,18.17,7.97c2.55,1.81,5.54,2.34,8.07,3.94c8.5,3.4,16.26,8.18,24.33,12.54
	c5.53,2.55,10.3,6.9,16.15,8.81c4.79,2.76,8.72,7.54,13.61,9.88c3.95,3.6,8.01,7.14,11.94,10.73l-5.46,0.02l5.46,0.02
	c5.6,5.18,10.97,10.54,15.47,16.54c5.1,4.04,7.12,9.67,12.12,13.38c2.65,3.72,6.48,7.11,7.53,11.47c0.24,0.25,0.46,0.5,0.66,0.76h0
	c2.73,3.45,2.79,8.01,4.95,11.56c3.84,6.8,5.65,14.46,10.21,20.83c0.33,0.89,0.66,1.78,1,2.67h0c4.51,11.76,9.93,23.11,13.29,35.27
	l-2.77,0.01l2.77,0.01c0.49,1.78,0.94,3.58,1.33,5.4c2.77,11.84,4.2,24.19,4.98,36.78l-7.79-0.01c-0.63-6.94-1.77-17.77-3.15-23.6
	c-0.88-6.31-2.11-12.47-3.59-18.55h-0.01c-1.56-6.38-3.41-12.64-5.42-18.85c-2.43-5.45-4.58-11-7.04-16.45l2.2,0l-2.2,0
	c-1.85-4.1-3.88-8.14-6.35-12.02c-2.97-7.02-6.61-13.6-9.68-20.4c-0.56-0.84-1.13-1.69-1.69-2.59l-0.03,0
	c-7.15-10.82-14.33-22.1-24.95-30.56c-4.34-3.56-8.22-7.68-12.21-11.65l-0.03,0c-4.2-4.15-8.51-8.09-13.58-10.98
	c-9.78-7.65-20.5-13.28-31.65-17.63c-8.82-4.67-17.54-9.35-26.68-13.18c-1.7,3.19-5.1,4.99-7.52,7.76
	c-2.46,1.71-5.54,1.91-7.99,3.61c-0.63,0.75-0.09,1.7,0.64,2.23c6.59,1.91,12.96,4.04,19.13,6.9c10.1,6.17,20.82,10.94,31.24,16.48
	c2.92,1.16,5.62,2.81,8.23,4.75l0.05,0c6.19,4.52,11.79,10.42,18.27,14.38c5.44,2.44,8.62,8.29,13.61,11.37
	c5.23,5.12,8.6,11.07,13.65,16.45l0.03,0c0.07,0.08,0.15,0.15,0.22,0.23c2.36,3.83,4.16,7.76,7.34,11.15
	c4.56,7.22,8.51,14.87,11.16,22.95c0.12,0.24,0.25,0.48,0.37,0.74l0.01,0c2.78,5.27,5.97,10.36,7.8,16.05
	c3.11,6.17,5.51,12.63,7.57,19.24l-8.41,0l8.41,0c2.17,6.95,3.96,14.05,5.81,21.13c1.81,3.41,0.87,7.97,2.45,11.48
	c0.63,3.11,1.02,6.37,1.21,9.58l-14.17,0c-0.35-1.59-0.87-3.1-1.7-4.48c-1.39-1.17-3.18-1.7-4.99-1.91
	c-6.38,0.75-13.19,0.11-19.44,1.06c-19.97,0-41.03-0.1-60.68,1.49c-4.15,0-8.81-0.74-12.96,0.11c-13.49-1.27-28.05-0.32-41.65-1.27
	c-8.17,1.16-16.14,0.32-24.54,1.16c-2.97,0.64-5.63-0.63-8.6-0.1c-10.53,0.32-21.04,1.49-31.67,0.96c-5.31,1.16-11.37,1.59-17,0.83
	c-5.09-1.59-10.52,0.11-15.83,0.11c-9.14-0.31-19.98-1.91-28.57,0.97c-9.89,0.42-18.71-4.04-28.6-2.24
	c-3.53,0.11-7.01-0.05-10.47-0.26v3.37c5.11,0.04,11.08,0.72,15.69,0.12c2.02-0.11,4.13,0,5.74,0.84c1.37,2.45,0.84,6.06,0.52,8.83
	c-0.52,1.48-2.34,1.38-3.72,1.17c-2.33-0.74-0.96-3.61-3.4-3.94c-1.91-0.42-4.46-0.63-5.95,0.86c-0.97,0.95-1.26,4.36-1.04,5.63
	c0.95,1.71,4.8,0.83,6.18,1.47c2.23,2.13,1.44,2.04,0.81,5.12c-0.54,2.87-3.82,0-6.26,0.53c-1.5,1.8-1.05,8.12-0.1,9.94
	c3.79,1.04,8.9-0.53,10.73-2.08c1.84-1.55,2.27-3.95,4.23-4.56c1.17,0,2.55,0.53,2.66,1.81c-1.28,2.97-0.44,7.58-3.51,9.6
	c-6.66,2.71-14.9,0.86-22.58,0.6v2.41c4.65,0.57,9.23,1.4,14.1,1.28c20.93,0.32,42.38-0.21,63.21,0.32c12.64,0.85,25.5-0.95,38.47,0
	c8.5,0.11,17.43-1.38,25.38-0.21c14.25,0.43,28.48-0.42,42.39,0.63c8.3-1.05,17.64-1.37,25.92-0.2c5.32,0.53,10.42-0.75,15.64,0.1
	c5.52-0.95,11.8,0.21,17-1.49c5.3-0.85,11.47-0.43,16.79-0.95c11.46,1.06,23.16-0.64,34.74-1.06c3.83-0.43,7.44,0.96,11.05-0.11
	c0.96-0.29,2.05-0.66,2.95-1.25h0.01c0.7-0.46,1.28-1.04,1.6-1.83c1.06-7.97-1.8-14.87-1.59-22.84c-0.29-3.51-0.24-7.18-0.96-10.49
	l14.17,0.04c0.14,2.3,0.17,4.6,0.13,6.84c0.2,0.43,5.6-2.53,7.81-2.76c2.17-0.23,5.37,2.32,5.37,2.32s-0.2-2.64-0.54-6.44l7.79,0.01
	c0.18,2.88,0.32,5.78,0.44,8.68c-0.63,7.32-0.1,14.55-2.12,21.26c-0.34,1.73-0.67,3.46-0.98,5.22h0
	c-1.8,10.15-3.14,20.51-5.51,30.47c-0.41,1.57-0.81,3.14-1.23,4.69l-8.4-0.01c2.89-8.73,5.45-17.56,6.35-27.1
	c0.07-1.82,1.96-5.58,2.13-8.05l5.06-0.01l-5.06-0.03c0.05-0.7-0.04-1.31-0.34-1.76c-1.63-0.79-4.07,0.98-6.26,0.66
	c-2.25-0.33-4.26-2.72-6.25-1.76c-0.68,0.84-0.77,1.86-0.82,2.89h0c-0.01,0.28-0.02,0.55-0.04,0.83c-0.14,2.1-1.17,12.22-3.28,13.71
	c-2.65,6.64-4.24,13.73-6.3,20.62l-7.13,0.01l7.13,0.02c-1.43,4.81-3.1,9.54-5.5,13.98c-5.96,15.09-12.86,29.85-23.29,43.13
	c-1.67,2.77-3.56,5.41-5.6,7.97h17.77c3.59-5.56,6.94-11.23,9.84-17.11c8.19-12.75,13.6-26.56,19.02-40.37
	c0.87-2.55,1.74-5.09,2.58-7.64l8.4,0.02c-3.13,11.9-6.6,23.66-12.89,34.17c-2.87,6.38-6.39,12.44-9.9,18.48
	c-1.97,4.24-4.29,8.38-6.82,12.43h7.14c2.02-1.06,1.18-5.62,4.46-4.25c1.9,0.83,1.5,2.68,1.43,4.25h13.46
	c-1.74-2.97-3.05-5.6-3.09-6.91c0.11-1.59,23.66,1.61,23.89,0.45c-0.32-1.8-13.82-7.39-15.1-8.14c-3.61-0.1-7.47-5.71-12.29,2.07
	c-0.68,1.11-3.08,0.21-3.63-1.28c0.33-1.59,1.71-2.76,2.13-4.36c2.45-4.04,1.28-10.09,6.28-12.75c1.27-0.11,2.24,0.74,2.97,1.81
	l0.22,3.29c5.3,5.52,11.57,9.88,18.37,12.32c4.89,4.04,10.41,6.8,15.94,9.56c1.36,0.86,2.43,2.26,2.06,3.93h7.22
	c6.83-16.4,12.31-33.26,16.77-50.58c3.2-7.11,4.03-15.09,5.53-22.84c0.73-2.65-0.23-5.52,0.84-8.07c0.29-8.61,0.69-17.23,1.58-25.67
	h0c0.39-3.71,0.88-7.38,1.5-10.99C400.15,316.6,400.25,288.65,390.81,264.22z M83.36,360.65c-2.13,3.07-7.54,2.06-10.5,1.53
	c-4.9-1.17-8.14-5.46-12.33-8.07c-7.58-4.73-5.08,0.76-5.27,2.74c-0.22,2.23,1.81,4.46-0.42,6.05c-1.17,0.75-2.23,0.21-3.51,0
	c-2.44-0.42-7.32,1.65-8.8-0.89c-2.02-2.13,2.47-3.08,2.47-5.21c0.54-7.01,1.69-18.77,0.52-25.79c-0.95-1.38-3.47-1.4-2.73-3
	c1.28-1.91,4.44-1.12,6.46-1.44c5.32,0.32,11.05-0.63,15.84,0.85c6.94,2.2,8.34,5.67,8.45,11.47c0.12,6.5-4.97,7.41-6.66,9.49
	c2.12,3.72,7.46,7.21,11.29,6.88c4.8-0.42,2.23-4.89,5.09-5.95c1.48-0.64,1.84,0.77,2.58,1.94
	C86.59,354.99,85.16,357.67,83.36,360.65z M114.67,354.16c1.16,1.59,3.92,1.17,4.35,3.5c0.84,2.02,0.44,3.67-1.06,4.63
	c-2.97,1.38-8.8-0.32-12.31-0.11c-2.02,1.06-4.64,0.44-6.76-0.41c-1.39-1.17-1.48-2.09-0.63-3.79c1.06-2.66,4.68-1.07,5.63-3.93
	c2.23-5.31,0.45-14.41,1.2-20.26c-0.75-2.44-3.78-0.41-5.38-2.43c-0.74-0.85-2.39-4.25-1.1-4.25c6.26,0,12.46-0.95,19.16-0.21
	c0.85,0.21,1.39,1.17,1.7,1.91c0.21,1.17,0.21,2.34-0.43,3.29c-1.59,0.53-3.29,1.38-4.45,2.98
	C115.33,341.34,114.76,348.1,114.67,354.16z M172.56,330.93c0.2,1.49,0.82,3.94-1.07,4.68c-3.61,0.74-2.56-5.13-6.4-3.53l-5.38,0.96
	c-0.41,6.58-0.19,15.49-1.16,21.86c0.21,2.65,3.48,1.43,3.8,4.08c0,1.39-0.01,3.16-1.48,3.26c-1.71,0.1-2.88,0.65-4.15-0.19
	c-3.3,0.96-7.54,1.52-10.95-0.09c-1.06-0.84-1.17-2.33-0.74-3.5c1.37-1.91,4.36-1.48,4.47-4.03c-0.12-6.69,1.58-15.2-0.01-21.47
	c-1.17-1.7-4.52-1.5-5.68-1.07c-2.65,0.53-1.34,5.96-3.88,5.32l-1.39-1.8l-0.53-7.8l0.86-0.74c9.88,0,20.39,0.64,29.96-0.54
	c1.38,0.11,3.19-0.42,4.24,0.75C174.04,328.97,172.22,328.91,172.56,330.93z M226.75,361.2c-5.4,0.19-9.48,0.14-14.16,0.77
	c-1.27-0.11-2.56-0.06-2.56-1.45c-0.32-1.38,0.55-2.44,1.61-2.97c0.85-0.42,3.04,0.6,2.87-0.74c-0.58-4.56-4.56-2.76-7.02-3.61
	c-3.71-0.43-7.52-1.92-9.77,3.39c-0.22,0.51-0.53,1.28,0,1.82c0.64,0.53,1.49,0.85,1.69,1.8c0.21,0.85-0.73,1.16-1.26,1.38
	c-4.46,0.21-11.12-0.11-15.26,0.21c-0.63-0.63-0.95-1.37-0.22-2.12c1.92-0.85,3.41-2.66,5.22-3.93c5.1-9.03,11.47-17.53,13.04-28.05
	c0.45-1.6,3.92-2.23,5.39-2.44c1.5,0,2.67,1.49,3.3,2.76c3.5,9.57,9.13,18.17,14.02,27.2C224.71,356.81,228.94,361.12,226.75,361.2z
	 M265.01,358.73c-4.25,4.04-12.32,4.04-17.33,1.6c-2.97-0.11-6.06,3.29-8.5,0.31l2.84-4.47c1.81-2.76,1.21-4.24,3.76-6.37l0.97,0.11
	c1.35,5.1,2.48,7.47,7.99,7.61c3.67,0.1,6.03-0.6,6.55-2.4c0.86-1.17,0.21-2.66,0-3.84c-3.59-5.09-14.88-4.39-17.44-10.23
	c-1.15-4.14-1.55-9.61,2.07-12.58c4.44-2.98,14.06-4.37,19.16-1.5l0.84,1.49c0,2.76,0.54,5.95-0.43,8.39
	c-1.15,0.85-2.75,0.11-4.15,0.11c-0.83-0.54,0.64-3.08,0.12-3.7c-1.06-1.81-2.88-3.3-4.9-3.19c-1.16,0.21-5.38,2.53-5.58,3.69
	c0.2,7.65,12.57,6.11,15.78,11.99C269.65,351.06,268.3,355.12,265.01,358.73z M251.49,108.56l-3.65,2.9
	c-0.83,0.32-1.59-0.53-1.79-1.17c-2.03-4.36,2.12-4.91-0.52-8.85c-1.29-1.81-2.66-4.25-5-4.68c-1.59-0.1-2.98,1.16-3.72,2.44
	c-2.88,5.42,1.36,9.46,2.65,14.03c2.12,2.54,2.97,5.63,3.82,8.71c1.27,4.57-0.53,8.71-3.82,11.58c-4.9,3.73-9.88,4.67-16.14,2.76
	c-2.98-1.7-6.37-2.76-8.82-5.53l-3.41-5.42c-2.03-0.53-4.67-0.11-6.16-1.91c-0.65-1.17,0.21-2.45,0.86-3.41l9.02-9.99
	c0.63-0.63,2.01-0.53,2.75-0.11c1.07,0.54,1.17,1.81,1.48,2.77c-0.21,2.97-3.5,4.67-2.96,7.97c-0.43,3.94,3.7,6.16,6.37,7.97
	c1.8,0.84,4.68,0.95,6.48,0.1c2.35-1.38,3.51-4.04,2.55-6.59c-0.31-4.99-6.37-7.54-7.12-12.23c-0.73-4.25-2.33-9.66,0.76-13.27
	c4.14-6.16,11.56-7.44,18.37-6.59c2.55,0.63,4.9,2.13,6.59,4.25c1.71,1.7,1.81,5.21,4.9,5.52c1.59,0.1,3.92-0.53,4.34,1.6
	C257.87,104.84,253.93,106.01,251.49,108.56z M259.85,139.04c-1.28-3.08-0.32-6.92,1.7-9.57c1.7-1.8,3.39-3.93,5.62-4.78
	c2.88-0.11,5.64,0,7.87,1.48c2.96,2.55,3.07,6.17,2.56,9.99c-0.54,3.83-4.25,6.06-7.76,6.92
	C266.12,143.07,261.55,143.07,259.85,139.04z M304.9,193.09c-0.37,2.23,1.58,3.96-1.4,6.06c-1.64,1.15-2.96-2.45-4.46-3.83
	c-2.43-3.29-4.87-7.21-8.7-9.03c-0.21-0.2-0.12-2.31,0.09-2.63c0.94-1.59,2.05,0,3.42-0.11c1.5,0.21,3.17,1.26,3.82-0.01
	c0.86-1.48,1.28-3.4,0.75-5.1c-2.77-3.94-7.31-10.87-12.54-8.39c-3.93,1.87-1.02,5.24-3.16,5.24c-5.07,0-7.9-7.47-12.35-10.23
	c-0.75-1.17-1.28-2.55-0.86-4.04c1.26-1.38,3.19-0.21,4.58,0c2.96,1.7,6.68,1.07,10.18,1.07c11.37-3.62,21.58-9.88,33.05-13.07
	c1.59,0.11,3.81,0.22,4.13,2.02c-1.17,7.76-7.24,15.83-9.07,23.37C310.18,181.51,305.71,188.13,304.9,193.09z M318.15,228.99
	c-2.53-4.66-3.67-8.33-3.58-11.15c0.12-2.8,2.54-5.97,2.87-8.43c1.41-3.42,4.7-6.22,7.56-8.65c2.87-2.42,6.31-4.22,10.33-5.38
	c3.66-0.2,7.27-1.89,10.27-1.7c3.02,0.2,5.78,0.95,8.29,2.25c2.6,1.33,4.04,3.56,6.47,5.51c7.17,9.22,8.23,19.45,4.33,21.49
	l-1.13,0.75l-4.26,2.01c-1.72,1.13-2.93,1.2-3.61,1.59c-0.66,0.4-1.16,0.65-1.49,0.75c-0.47,0.14-0.9,0.14-1.27,0
	c-0.37-0.14-0.59-0.36-0.65-0.68c-0.09-0.48,0.4-1.44,1.48-2.87c0.52-0.69,0.93-1.25,1.22-1.67c1.43-2.1,2.97-2.51,3.48-4.27
	c0.53-1.77,0.07-4.99-0.24-6.63c-0.63-3.31-2.87-6.12-6.38-7.4c-3.49-1.29-7.55-0.29-12.27,1.08c-5.32,1.54-8.64,3.15-11.28,6.28
	c-2.62,3.14-3.86,7.62-2.51,11.44c0.29,1.54,0.78,2.57,1.47,3.07c0.43,2.57,7.11,10.16,8.37,9.8c1.83,1.14-1.29,3.21-1.29,3.21
	C333.52,239.63,321.52,235.61,318.15,228.99z M341.36,287.16c0.1-1.27-0.21-2.98,1.28-3.4c2.44,0,2.7,3.68,5.04,4.21
	c1.39,0.32,4.52-1.91,5.03-3.08c0.23-2.34-0.62-4.58-0.73-6.91c-0.75-2.98-1.39-7.78-2.65-10.75c-1.61-1.28-2.13-1.98-4.35-1.77
	c-1.08,0.32-3.56-1.51-4.08-0.44c0.31,1.17,0.68,5.86-0.59,5.98c-1.08,0.32-2.34-0.11-2.65-1.38c-1.59-3.72-2.02-6.59-3.93-10.67
	c-1.29-2.76-1.7-6.56-0.97-8.67c0.65-1.85,4.05-0.74,4.58,1.17c0,0,1.35,4.63,7.11,7.32c6.37,2.98,23.38,3.62,25.06,4.15
	c4.57-0.11,8.61,2.44,13.08,0.74c1.49,0,2.56,1.49,3.4,2.55c0.54,1.39,0.1,3.09-0.73,4.25c-1.39,1.49-4.76,5.35-6.46,6.19
	c-3.61,2.13-22.25,18.33-27.36,22.61c-4.84,4.05,0.25,4.35-4.87,7.64c-1.68,0.75-2.54-1.05-3.17-2.23
	C342.11,301.61,342.53,289.93,341.36,287.16z M388.74,399.57c-2.86,5.63-4.76,11.79-5.1,18.48c-0.53,1.28-1.27,2.97-2.86,3.4
	c-4.36,0.43-8.06-0.53-11.9-1.28c-1.39-0.63-3.05-3.6-1.48-3.62c9.86-0.11,14.64-13,13.86-14.56c-0.74-1.48-9.36-1.8-12.76-2.9
	c-2.48-0.81,1.49,7.36-2.77,8.85c-3.62,0.64-1.49-0.6-5.09-0.29c-1.17-0.53-2.24-1.48-2.66-2.76c-0.43-1.48-0.1-3.19,1.17-4.25
	c0.65-0.42,1.38-0.82,1.59-1.67c0.42-1.59-1.59-2.25-3.07-2.67c-4.04-0.42-10.41-5.74-12.84-2.03c-1.15,5-3.9,11.43,3.34,19
	c0.52,0.54-0.19,1.59-1.06,1.91l-2.22-0.32l-8.62-5.95c-1.48-1.92-0.62-4.78-0.2-6.8c1.48-6.06,3.5-11.7,5.51-17.53
	c1.06-2.45,1.71-5.21,4.05-6.91c4.26-0.21,2.65,4.1,5.95,5.38c7.02,4.89,16.02,4.75,24.52,6.24c3.19,0.32,6.72,3.68,9.57,0.92
	c0.97-1.59,1.5-3.62,3.3-4.67c1.59-0.21,3.17,0.85,3.5,2.34C391.84,392.13,389.4,395.54,388.74,399.57z M395.07,330.14
	c0,5.21-1.17,10.27-1.82,14.35c-1.18,1.51-0.86,3.6-1.84,5.23l-4.3,5.94c-4.21,3.61-8.62,7.57-13.82,7.57
	c-5.89,0-11.18-0.12-15.5-3.26c-2.59-1.98-10.87-13.15-10.77-17.34c-0.53-6.75-0.01-15.86-1.52-22.03c0-0.81,0.55-1.16,1.07-1.39
	c2.06-0.25,3.45,1.74,4.43,3.37c0.63,1.86,3.3,0.14,4.7,0.95c7.98,1.87,13.83-1.88,21.67-0.02c4.01,0.23,8.46-0.87,12.13-2.27
	c1.39-1.86,1.93-9.77,5.39-4.53C395.97,320.66,395.07,326.13,395.07,330.14z"/>
<path class="st0" d="M160.03,108.86c0.54-6.58,6.19-9.73,11.5-13.34v-0.43l-0.21-0.42c-3.72,1.81-5.07,0.25-11.08,5.06
	c-2.75,1.37-3.68,7.48-7.41,7.16c-3.29,0.96-3.92-3.83-6.9-3.61c-1.27-0.11-3.47-0.1-3.67,0.86l-1.59,1.32
	c-1.81,0.63-1.33,2.91-1.01,4.51c0.85,2.55,3.62,2.76,5.64,3.51c2.55,0.84,5.63-0.64,7.74,1.38l0.25,0.88l2.85,9.96
	c3.39,4.88,7.43,9.99,13.6,10.51c1.7,0,3.07-0.42,4.13-1.8c1.07-1.49,4.17-1.81,4.28-3.73c0.62-2.02,0.81-5.2,0.41-5.52
	c-3.1-0.21-5.1-2.87-8.4-2.65c-0.63,0.11-1.59,0.31-1.59,1.17c1.17,2.86,2.64,5.52,3.07,8.6c-0.52,0.96-1.37,0.96-2.12,1.28
	c-1.81,0.85-3.4-0.43-4.77-1.49c-2.13-4.61-3.83-10.49-4.48-16.31h0C160,113.42,159.91,111.09,160.03,108.86z"/>
<path class="st0" d="M100.92,99.81c-3.39-0.95-6.58,1.71-8.39,4.36c-0.31,0.97-0.63,2.56,0.22,3.41c2.55,1.07,6.12,1.56,8.02,0.06
	c1.49-1.49,1.44-4.84,1.12-6.76L100.92,99.81z"/>
<path class="st0" d="M367.91,335.61c-4.3-0.58-9.64-1.5-13.41,0.71c-0.97,1.4-0.25,6.18,0.07,7.7c0.97,3.25,4.09,5.24,6.69,6.52
	c8.4,0.94,19.16,2.55,24.98-5.47c0.55-1.75,0.45-7.9,0.56-9.64C385.18,333.67,371.7,336.07,367.91,335.61z"/>
<path class="st0" d="M126.75,287.47c-0.1,2.13,1.17,4.04,2.02,6.06c0.32,6.49,2.24,12.44,3.83,18.38c1.28,2.33,3.7,2.77,5.94,3.08
	c1.7,0.1,2.56-1.6,2.99-2.87c0.4-9.24-7.75-15.09-11.16-22.84C129.63,288.22,128.24,286.32,126.75,287.47z"/>
<path class="st0" d="M7,65c7.86-2.12,15.94-3.3,23.28-6.7c3.5,0.11,6.04-2.44,9.35-3.19c9.24-1.06,17.2-5.32,27.08-4.99
	c5.84-0.32,11.27-2.02,17.22-2.13c8.92-2.76,19.33-3.61,28.99-1.81c12.64-0.32,25.72,0.21,38.69,1.06
	c8.17,1.17,16.66,1.38,24.96,2.34c12.32,4.57,26.56,4.57,38.56,9.77c7.23,2.76,14.44,5.32,21.35,8.5
	c6.81,3.62,13.29,7.76,20.3,10.95c12.75,7.43,25.18,15.41,36.76,25.71c18.06,11.79,33.04,29.64,48.24,45.04
	c14.43,14.56,21.56,32.41,33.45,48.24l0.65,1.7c2.54,4.46,5.72,8.61,7.21,13.59c2.97,4.47,5.43,9.14,6.69,14.46
	c9.26,22.1,14.46,45.9,17.54,70.65c0.85,6.91,0.74,14.55,2.02,21.47c0.54,9.66-0.74,19.23-0.12,28.79c0.13,2.2,0.15,4.37,0.1,6.53h0
	c-0.26,10.88-2.43,21.33-3.06,32.14c-1.39,13.71-5.57,25.72-8.33,38.9c-2.55,6.62-9.22,25.05-13.51,36.11h13.13
	c1.88-5.22,3.01-10.94,5.05-15.73c2.04-12.14,9.63-20.91,10.92-33.36c3.97-16.1,6.78-33.71,8.61-50.77
	c2.14-7.19,1.92-15.77,1.71-23.71c1.28-8.16,0.63-17.39-0.53-25.44c-0.75-9.87-1.5-19.85-3.44-29.29
	c-2.26-11.71-7.08-22.21-9.97-33.59c-2.91-13.63-9.56-25.75-13.96-38.74c-3.86-8.58-7.82-17.17-14.16-24.79
	c-6.56-12.12-14.8-23.5-23.19-34.88c-4.08-4.72-7.5-9.66-11.36-14.38c-4.73-3.54-8.05-8.37-12.56-12.24
	c-4.93-4.94-10.19-9.55-15.14-14.59c-3.74-3.01-6.64-7.51-10.61-10.08c-7.73-5.91-15.56-11.7-23.6-16.64
	c-9.66-8.26-21.25-11.49-31.23-18.78c-13.62-6.76-28.02-11.69-41.96-17.49c-5.68-1.82-11.91-2.26-17.49-4.29
	c-5.58-0.86-10.09-4.19-15.77-4.39c-4.4-0.96-8.59-1.93-12.78-3.22c-8.69-1.51-17.16-3.33-26.5-3.11c-2.68,0.53-5.7,0.64-8.59,0.42
	c-4.95-0.53-9.23,0.86-14.07,0.44c-12.01,0.21-23.49-2.68-35.3-0.86c-5.15,1.82-11.04,1.82-16.42,3.22
	c-5.15,1.08-9.88,3.32-15.46,3.65c-5.89,2.26-12.12,3.65-18.35,4.93c-10.32,3.4-20.75,6.39-30.86,10.13v12.47
	C2.62,66.12,4.73,65.35,7,65z"/>
<path class="st0" d="M131.02,94.72c0.23-15.94,13.53-20.79,17.97-21.02c4.45-0.23,7.32-0.04,5.68-1.94
	c-1.64-1.9-11.69-1.19-17.1-0.02c-5.41,1.17-17.05,11.38-17.05,11.38s-11.64-10.21-17.05-11.38c-5.41-1.17-12.9-0.96-14.53,0.94
	c-1.64,1.9,1.5,2.04,5.95,2.27c4.45,0.23,14.91,3.83,15.14,19.77c0.16,10.96-2.32,17.24-4.66,21.02h-0.01
	c-1.06,1.7-2.09,2.89-2.82,3.77c-2.37,2.81-7.74,9.85-3.05,8.26c5.03-1.71,12.76-7.41,17.31-12.03c2.17-2.17,3.62-4.11,3.71-5.24
	c0.09,1.14,1.3,3.05,3.22,5.22c4.01,4.51,11.14,10.11,17.8,12.05c4.76,1.38,0.26-4.44-2.11-7.25c-0.84-0.99-2.16-2.51-3.52-4.78h0
	C133.44,111.61,130.86,105.02,131.02,94.72z"/>
<path class="st0" d="M13.95,120.67c3.47-1.17,5.31-2.05,6.67-5.83c0.6-1.68,0.96-3.73-0.22-5.32c-1.06-1.28-2.55-2.12-4.35-2.12
	c-4.46,0.42-7.22,4.88-12.33,4.04c-1.06-0.12-2.12-0.3-3.14-0.54v6.16c0.28-0.25,0.63-0.51,1.08-0.77
	C6,115.75,10.24,121.92,13.95,120.67z"/>
<path class="st0" d="M306.81,158.45c-2.23,1.17-10.75,5.37-12.35,7.5c1.39,2.23,4.31,6.06,7.39,6.17
	C303.76,170.84,309.23,157.7,306.81,158.45z"/>
<path class="st0" d="M357.62,280.87c2.77-2.12,18.37-12.17,14.84-12.08c-4.42,0.11-15.25-3.41-18.23-1.28l1.59,11.34
	C356.25,279.59,356.45,280.98,357.62,280.87z"/>
<path class="st0" d="M204.15,335.36c-2.05,0.39-1.77,3.27-2.27,4.92c0.77,1.77-4.54,8.33-1.83,8.97c2.16,0.12,7.9,0.3,9.43-0.96
	c0.4-1.79-2.51-6.23-3.28-8.01C205.68,338.37,205.93,335.36,204.15,335.36z"/>
<path class="st0" d="M55.65,332.32c-0.76,1.15-1.06,3.3-0.55,4.57c0.9,1.66-1,8.03,1.17,9.05c2.43,0.24,5.23,0,6.37-2.42
	c0.89-1.79,0.81-7.4,0.05-9.31C61.43,331.27,57.95,331.41,55.65,332.32z"/>
<path class="st0" d="M0.85,123.01c-0.06-0.41-0.16-0.79-0.28-1.16v5.06C0.81,125.63,1.17,124.32,0.85,123.01z"/>
<path class="st0" d="M325.65,352.29c2.43,0.53,4.45-0.85,6.26-2.44c1.17-1.49,2.23-3.4,1.39-5.42l-0.71-2.9
	c-2.57-2.44-7.86-3.19-10.83-0.75c-0.74,0.96-2.17,5.68-1.75,6.84C321.3,349.63,323.09,352.08,325.65,352.29z"/>
<path class="st0" d="M85.43,414.43c-5.73,11.15-0.18,37.41,11.27,44.1c2.79,2.07,7.06,3.24,11.66,3.62h6.62
	c4.84-0.38,9.47-1.58,12.63-3.51c8.5-3.39,14.45-12.53,17.53-20.5c5.21-6.69,4.04-17.65,1.92-25.39c0.32-6.8-6.24-10.21-10.81-14.13
	l-2.35-1.58l-0.97-0.65c-6.48-2.23-13.59-3.4-20.93-2.98c-3.23,0.17-6.78,1.54-10.23,3.63h-0.04
	C94.54,401.35,87.81,408.69,85.43,414.43z"/>
<path class="st0" d="M156.31,409.76c2.95,17.11,3.36,35.37,6.37,52.38h24.01c5.01-2.2,9.91-4.68,14.01-8.61
	c0.53-0.96,0.43-1.91,0-2.86c-5.21-7.12-8.91-14.77-13.6-22c-3.93-7.75-6.47-16.04-11.05-23.48c-1.46-2.65-2.78-5.37-4.1-8.12
	l-0.02,0c-2.21-4.54-4.44-9.05-7.36-13.23c-2.33-2.77-7.2-3.94-9.87-1.07c-0.85,2.34-1.06,5.52-0.32,8.07
	c0.35,2.02,0.58,4.09,0.77,6.18h0C155.53,401.3,155.72,405.63,156.31,409.76z"/>
<path class="st0" d="M37.71,442.39c-1.59,3.82-2.02,9.24,1.28,12.32c5,2.98,9.56,7.54,15.84,6.69c4.24-4.36,4.81-10.73,8.95-15.41
	l1.96-13.32c0.8-13.74,5.88-26.09,16.14-35.65h0.01c0.68-0.63,1.38-1.26,2.11-1.86c6.7-5.52,16.2-6.23,24.17-8.36
	c5.95,0.32,12.42-1.69,17.84,0.75c2.98,1.27,10.52,4.51,10.52,4.51c4.62,1.61,3.93,4.52,6.7,3.24c0.75-0.85,0.75-2.23,0.52-3.29
	c-0.85-3.72-0.73-7.76-3.3-10.73c-4.88-2.65-11.58-1.81-16.98-1.06c-3.51,1.06-6.28,3.82-10.1,3.93c-2.13,0.33-3.72-0.74-5-2.33
	c-3.07-1.71-6.36-1.28-9.66-0.21c-1.59,0.21-2.44,2.54-4.46,1.59c-4.36-5.73-12.43-7.75-19.02-4.77c-6.16,3.93-8.71,10.4-12,16.14
	c-0.57,0.79-1.1,1.6-1.6,2.46l-0.02,0c-4,6.51-6.22,13.67-10.27,20.18C48.34,426.24,41,433.46,37.71,442.39z"/>
<path class="st0" d="M4.78,404.25c2.65-2.15,4.97-4.65,7.24-7.21l10.45,0.02c-3.04,4.04-6.05,8.09-9.41,11.97
	c-3.29,5.73-8.28,11.38-6.79,18.6c5.52,6.58,12.32,13.27,20.29,15.72c5.21-0.43,5.31-6.27,8.18-9.24c3.19-4.46,4.14-9.88,7.55-14.24
	c4.24-7.43,7.76-15.15,11.27-22.83l4.16-0.02l-4.16-0.02c0.7-1.55,1.41-3.1,2.12-4.65c1.06-3.62,3.94-6.38,4.46-10.1
	c0-0.95-0.21-2.12-1.07-2.76c-8.91-2.97-19.54-1.59-26.34,5c-3.77,4.03-7.03,8.3-10.24,12.54l-10.45-0.02c2-2.28,3.95-4.61,6.04-6.8
	c1.6-2.87,4.57-5.1,4.78-8.5c-1.59-1.6-4.14-1.91-6.48-2.23l-5.74-0.32c-3.07,0.51-6.56,0.05-10.06-0.41v28.95
	C1.95,406.54,3.21,405.03,4.78,404.25z"/>
<path class="st1" d="M83.25,349.33c-2.86,1.06-0.29,5.53-5.09,5.95c-3.83,0.34-9.17-3.16-11.29-6.88c1.69-2.08,6.78-2.99,6.66-9.49
	c-0.11-5.8-1.5-9.27-8.45-11.47c-4.79-1.49-10.52-0.53-15.84-0.85c-2.02,0.32-5.17-0.47-6.46,1.44c-0.73,1.59,1.79,1.61,2.73,3
	c1.17,7.01,0.02,18.78-0.52,25.79c0,2.13-4.49,3.08-2.47,5.21c1.48,2.54,6.36,0.47,8.8,0.89c1.28,0.21,2.33,0.75,3.51,0
	c2.23-1.59,0.2-3.82,0.42-6.05c0.19-1.98-2.31-7.47,5.27-2.74c4.18,2.61,7.42,6.9,12.33,8.07c2.97,0.52,8.37,1.54,10.5-1.53
	c1.81-2.98,3.23-5.66,2.47-9.38C85.09,350.1,84.73,348.69,83.25,349.33z M62.64,343.51c-1.14,2.42-3.94,2.67-6.37,2.42
	c-2.17-1.03-0.27-7.39-1.17-9.05c-0.51-1.27-0.21-3.42,0.55-4.57c2.3-0.9,5.78-1.04,7.04,1.88
	C63.45,336.12,63.53,341.72,62.64,343.51z"/>
<path class="st1" d="M44.22,200.23c2.11,2.12,5.42-0.06,7.96-0.91c1.6-1.27,4.14-1.12,4.67-3.24c-0.1-1.18-1.49-0.85-2.24-1.28
	c-0.51-0.85-1.26-1.49-1.05-2.65c0.1-2.76,2.55-4.36,4.45-6.06c2.13-0.86,10.15-5.23,12.49-3.54c1.27,0.96,1.9,2.09,2,3.59
	c0.64,2.13-5.23,5.1-0.73,6.4c4.48,1.29,10.79-4.6,15.15-6.31l0.21-0.84c-3.83-3.51-3.15-0.82-6.11-5.18
	c0,0-14.87-18.24-19.22-20.89c-1.49-1.81-10.69,1.06-12.49,1.91c-4.57,3.18-2.03,9.02-1.17,13.27l-0.42,13.18
	C47.09,192.04,45.81,196.19,44.22,200.23z M53.85,167.25c4.24-1.91,8.39,5.86,10.73,7.88c0.53,0.96,0.53,2.54,0,3.4
	c-1.39,0.74-9.07,4.81-10.56,3.64C52.75,178.98,51.93,170.76,53.85,167.25z"/>
<path class="st1" d="M5.64,229.47c0.74-1.8-0.53-4.22-2.78-3.28c-0.78-0.09-1.64-0.31-2.28-0.83v9.2L5.64,229.47z"/>
<path class="st1" d="M16.79,220.65c3.3-1.49,6.7-4.68,7.55-8.28c0.52-3.51,0-7.55-3.51-9.57c-1.8-0.42-3.62,0.1-4.79,1.49
	c-0.85,1.48-0.74,3.5-0.54,5.2c-0.52,1.91-1.69,3.93-3.83,4.46c-1.9,0-6.06-0.23-6.06-0.23c1.54-4.51,1.72-11.35-2.11-15.07
	c-0.98-1.04-1.93-1.97-2.94-2.72v27.43C5.38,221.17,11.8,222.65,16.79,220.65z"/>
<path class="st1" d="M42.29,419.86c-3.41,4.36-4.36,9.78-7.55,14.24c-2.87,2.97-2.97,8.81-8.18,9.24
	c-7.97-2.45-14.77-9.14-20.29-15.72c-1.49-7.22,3.5-12.87,6.79-18.6c3.36-3.88,6.37-7.93,9.41-11.97l-10.45-0.02
	c-2.26,2.56-4.59,5.07-7.24,7.21c-1.57,0.78-2.84,2.29-4.21,3.45v32.38c1.12,1.29,2.22,2.59,3.26,3.9
	c5.74,5.74,12.21,10.74,17.84,16.15c0.85,0.7,1.72,1.36,2.58,2.02h39.27c1.24-3.54,2.61-7.04,4.49-10.31
	c0.41-1.37,1.52-2.88,1.52-2.88l4.55,5.55c1.56,3.37,3.96,5.75,6.74,7.64h27.54c-4.6-0.38-8.87-1.54-11.66-3.62
	c-11.45-6.69-17-32.94-11.27-44.1c2.37-5.74,9.11-13.08,16.3-17.4l-19.86,0.01c0,0,0.01-0.01,0.01-0.01h-0.01
	c-10.26,9.56-15.34,21.91-16.14,35.65L63.78,446c-4.14,4.68-4.71,11.05-8.95,15.41c-6.28,0.85-10.84-3.71-15.84-6.69
	c-3.3-3.08-2.86-8.5-1.28-12.32c3.29-8.93,10.62-16.15,13.61-25.18c4.05-6.5,6.27-13.67,10.27-20.18l-3.87-0.02l-4.16,0.02
	C50.05,404.71,46.53,412.43,42.29,419.86z"/>
<path class="st1" d="M187.1,428.68c4.68,7.22,8.39,14.88,13.6,22c0.43,0.96,0.53,1.91,0,2.86c-4.1,3.93-9,6.41-14.01,8.61h21.61
	c9.63-7.6,16.92-18.2,25.97-26.78c4.26-8.06,12.11-14.55,15.29-23.04c2.16-5.34,5.5-10.17,8.12-15.27l-9.45-0.02
	c-2.26,4.58-5.65,8.76-8.86,12.95c-3.83,0.85-6.49-3.19-8.93-5.73c-2.07-2.38-4.03-4.82-6.07-7.21h-0.41l-11.58,0.02
	c4.6,4.65,9.24,9.22,14.14,13.67c2.66,3.92,7.53,8.5,3.92,13.7c-3.72,8.5-12.41,14.35-19.11,21.03c-1.3,1.18-3.08,1.6-4.89,1.18
	c-5.86-9.78-10.32-20.29-15.51-30.39c-2.77-4.25-4.15-9.25-6.49-13.71c-0.9-1.91-2.09-3.71-3.27-5.51h0c0,0,0,0,0,0l-9.22,0.05
	c1.32,2.75,2.64,5.47,4.1,8.12C180.63,412.64,183.17,420.92,187.1,428.68z"/>
<path class="st1" d="M309.81,449.71c3.51-6.05,7.03-12.1,9.9-18.48c6.29-10.51,9.75-22.27,12.89-34.17l-8.4-0.02
	c-0.84,2.54-1.72,5.09-2.58,7.64c-5.42,13.81-10.84,27.63-19.02,40.37c-2.89,5.87-6.25,11.54-9.84,17.11h10.24
	C305.52,458.09,307.84,453.96,309.81,449.71z"/>
<path class="st1" d="M298.36,397.03L298.36,397.03c-0.2,0.96-0.38,1.9-0.55,2.86c-2.56,6.69-4.57,13.6-7.43,20.08
	c-3.62,6.9-5.42,14.56-10.21,21.04c-4.86,7.11-9.15,14.48-14.83,21.14h9.64c2.04-2.56,3.93-5.21,5.6-7.97
	c10.43-13.28,17.33-28.04,23.29-43.13c2.4-4.44,4.06-9.17,5.5-13.98l-7.13-0.02l-3.88,0C298.36,397.04,298.36,397.04,298.36,397.03z
	"/>
<path class="st1" d="M147.06,412.75c2.12,7.75,3.29,18.7-1.92,25.39c-3.08,7.97-9.02,17.11-17.53,20.5
	c-3.16,1.94-7.79,3.13-12.63,3.51h25.03c0.52-0.45,1.03-0.93,1.51-1.48c5.3-3.83,6.9-9.56,10.18-14.45c0.85-1.7,2.45-0.22,2.45,0.96
	c0.55,5.04,1.31,10,1.98,14.98h6.54c-3.02-17.01-3.43-35.27-6.37-52.38c-0.58-4.14-0.77-8.47-1.16-12.74h0c0,0,0,0,0,0.01H133.9
	l2.35,1.58C140.82,402.54,147.38,405.95,147.06,412.75z"/>
<path class="st1" d="M332.67,361.87c-0.17,2.48-2.05,6.23-2.13,8.05c-0.9,9.53-3.46,18.37-6.35,27.1l8.4,0.01
	c0.41-1.55,0.82-3.12,1.23-4.69c2.37-9.97,3.71-20.33,5.51-30.47l-1.6-0.01L332.67,361.87z"/>
<path class="st1" d="M10.63,379.16l5.74,0.32c2.33,0.32,4.89,0.64,6.48,2.23c-0.21,3.4-3.18,5.63-4.78,8.5
	c-2.09,2.19-4.04,4.52-6.04,6.8l10.45,0.02c3.22-4.25,6.48-8.51,10.24-12.54c6.8-6.59,17.43-7.97,26.34-5
	c0.86,0.64,1.07,1.81,1.07,2.76c-0.53,3.72-3.41,6.48-4.46,10.1c-0.71,1.55-1.41,3.1-2.12,4.65l4.16,0.02l3.9-0.02
	c-0.01,0.01-0.01,0.03-0.02,0.04l0.02,0c0.5-0.86,1.04-1.66,1.6-2.46c3.3-5.74,5.84-12.21,12-16.14c6.59-2.98,14.66-0.96,19.02,4.77
	c2.02,0.96,2.87-1.37,4.46-1.59c3.3-1.06,6.59-1.49,9.66,0.21c1.28,1.59,2.87,2.66,5,2.33c3.82-0.11,6.59-2.87,10.1-3.93
	c5.4-0.75,12.11-1.59,16.98,1.06c2.56,2.97,2.45,7.01,3.3,10.73c0.23,1.06,0.23,2.44-0.52,3.29c-2.77,1.28-2.08-1.63-6.7-3.24
	c0,0-7.54-3.24-10.52-4.51c-5.42-2.45-11.9-0.43-17.84-0.75c-7.97,2.13-17.47,2.84-24.17,8.36c-0.73,0.61-1.43,1.23-2.11,1.86
	l19.89-0.03c-0.01,0.01-0.03,0.02-0.04,0.03h0.04c3.45-2.09,7-3.46,10.23-3.63c7.33-0.42,14.45,0.75,20.93,2.98l0.97,0.65
	l21.25-0.01c-0.19-2.09-0.42-4.15-0.77-6.18c-0.74-2.54-0.54-5.73,0.32-8.07c2.66-2.87,7.53-1.7,9.87,1.07
	c2.92,4.18,5.14,8.69,7.36,13.23l0.02,0c-0.01-0.02-0.02-0.03-0.02-0.05l9.24,0c-2.15-3.3-4.24-6.62-4.37-10.74
	c0.1-1.59,1.48-2.76,2.88-3.51c5.3-0.74,11.15-0.31,16.45,0.1l3.94,1.82c4.19,4.13,8.23,8.27,12.3,12.36l0.02,0
	c-0.01-0.01-0.02-0.02-0.02-0.02l11.6,0l0.41,0c-2.97-3.5-6.09-6.89-9.86-9.79c-1.48-2.02-4.04-3.82-3.83-6.48l1.59-1.06
	c11.16-0.54,22.42-3.5,33.37-0.54l3.92,1.5l0.85,1.48c1.09,5.61-0.02,10.43-2.18,14.85l9.45,0.04c1.13-2.18,2.13-4.44,2.84-6.81
	c2.32-4.99,3.38-10.41,6.67-14.98c6.79-2.34,14.87-1.69,22.32-2.34l13.27,0.21c2.02,1.81,0.31,4.79-0.1,7.01
	c-1.37,5.65-3.13,11.16-4.34,16.91l3.87,0.01l7.13-0.01c2.06-6.89,3.66-13.98,6.3-20.62c2.11-1.49,3.15-11.61,3.28-13.71
	c0.02-0.28,0.03-0.55,0.04-0.83l-10.79,0.01c0,0,0.01,0,0.01-0.01h-0.01c-0.9,0.59-1.99,0.96-2.95,1.25
	c-3.61,1.07-7.22-0.32-11.05,0.11c-11.58,0.42-23.28,2.12-34.74,1.06c-5.32,0.52-11.49,0.11-16.79,0.95c-5.2,1.7-11.47,0.54-17,1.49
	c-5.21-0.85-10.31,0.43-15.64-0.1c-8.28-1.17-17.62-0.85-25.92,0.2c-13.91-1.05-28.14-0.2-42.39-0.63
	c-7.95-1.17-16.89,0.32-25.38,0.21c-12.97-0.95-25.82,0.85-38.47,0c-20.83-0.53-42.28,0-63.21-0.32c-4.87,0.12-9.44-0.71-14.1-1.28
	v13.94C4.07,379.22,7.56,379.67,10.63,379.16z"/>
<path class="st1" d="M212.36,397.03c0.01,0.01,0.02,0.02,0.02,0.02l11.58-0.02L212.36,397.03z"/>
<path class="st1" d="M61.61,396.99l-3.9,0.02l3.87,0.02C61.6,397.02,61.6,397.01,61.61,396.99z"/>
<path class="st1" d="M181.17,397.03l-9.24,0c0.01,0.02,0.02,0.03,0.02,0.05L181.17,397.03
	C181.17,397.03,181.17,397.03,181.17,397.03z"/>
<path class="st1" d="M101.73,397.03c0.01-0.01,0.03-0.02,0.04-0.03l-19.89,0.03c0,0-0.01,0.01-0.01,0.01L101.73,397.03z"/>
<path class="st1" d="M298.35,397.05l3.88,0l-3.87-0.01C298.36,397.04,298.36,397.04,298.35,397.05z"/>
<polygon class="st1" points="155.15,397.03 133.9,397.03 155.15,397.03 "/>
<path class="st1" d="M318.99,361.87L318.99,361.87c0.05-1.03,0.14-2.05,0.83-2.89c1.99-0.96,4,1.43,6.25,1.76
	c2.2,0.32,4.64-1.45,6.26-0.66c0.3,0.44,0.39,1.05,0.34,1.76l5.06,0.03l1.6,0c0,0,0,0.01,0,0.01h0c0.31-1.75,0.63-3.49,0.98-5.22
	c2.02-6.71,1.5-13.93,2.12-21.26c-0.12-2.91-0.26-5.8-0.44-8.68l-7.79-0.01c0.35,3.8,0.54,6.44,0.54,6.44s-3.21-2.55-5.37-2.32
	c-2.21,0.23-7.61,3.19-7.81,2.76c0.04-2.24,0-4.54-0.13-6.84l-14.17-0.04c0.72,3.31,0.67,6.98,0.96,10.49
	c-0.21,7.97,2.65,14.88,1.59,22.84c-0.32,0.79-0.91,1.37-1.6,1.83H318.99C318.99,361.87,318.99,361.87,318.99,361.87z
	 M321.76,340.77c2.97-2.44,8.26-1.69,10.83,0.75l0.71,2.9c0.84,2.02-0.23,3.93-1.39,5.42c-1.81,1.59-3.83,2.97-6.26,2.44
	c-2.56-0.21-4.35-2.65-5.65-4.67C319.59,346.45,321.02,341.73,321.76,340.77z"/>
<polygon class="st1" points="318.99,361.87 318.99,361.87 308.2,361.87 308.19,361.88 "/>
<path class="st1" d="M337.73,361.86l1.6,0.01c0,0,0-0.01,0-0.01L337.73,361.86z"/>
<path class="st1" d="M28.32,284.51L9.7,284.55c0.04-0.01,0.08-0.02,0.13-0.03l-0.13,0c-3.09,0.87-6.09,2.04-9.13,3.12v8.27
	c3.33-1.2,6.68-2.38,9.84-3.96C13.14,290.85,20.26,287.87,28.32,284.51z"/>
<path class="st1" d="M300.58,288.22c1.37,6.8,5.62,12.43,5.94,19.66c-0.53,4.99-6.8,3.29-9.88,5.52
	c-5.01,0.43-10.31,0.32-14.98,1.06c-5.21-1.16-10.21,0.64-15.4,0l-0.65-0.63c-0.52-7.22-1.04-14.56-4.99-20.4
	c-1.18-2.93-2.13-5.96-3.24-8.92l-2.98,0l-8.94,0.01c2.68,2.09,2.99,5.43,3.39,8.59c-0.54,1.06-1.49,2.02-2.89,1.6
	c-10.34-1.99-19.24-7.26-29.22-10.16l-12.63-0.02l-7.42,0.01c0.56,0.21,1.13,0.41,1.69,0.61l3.18,0.43c2.45,3.08,6.7,1.7,9.67,3.29
	c5.32,1.81,11.04,2.34,15.51,5.94c6.92,1.28,13.08,4.15,19.76,5.63c3.72,2.65,7.87,4.99,11.17,8.08c0.84,1.49,0.51,3.82,0.21,5.42
	c-1.61,2.34-4.79,1.81-7.12,1.49c-1.7-0.11-2.98-1.17-4.58-1.59l-7.01-0.53c-3.61-1.07-5.73-4.89-9.13-6.59
	c-2.33-0.74-4.67-2.12-6.37-4.04c-4.35-0.64-7.65-3.83-11.59-5.42c-3.92-2.33-8.17-3.93-12.2-5.84c-3.53-3.23-7.77-4.65-11.66-6.85
	l-8.68-0.03l-7.52,0.02c0.95,0.51,1.91,0.91,2.87,1.12c5.52,1.8,11.06,3.19,15.86,6.69c3.6,1.27,6.37,4.67,9.97,6.16
	c6.26,4.25,14.66,3.08,20.08,9.35c2.98,3.5,7.02,4.57,10.19,7.54c0.65,1.37-1.06,1.17-1.69,1.48c-4.9-0.74-10.09-0.84-15.3-0.95
	c-2.98-1.06-5.84-2.65-9.25-2.65c-8.61-4.15-16.15-10.1-23.69-16.47c-7.34-1.39-12.76-7.33-18.92-11.69
	c-0.41-0.22-0.82-0.44-1.23-0.67l-0.07,0c0.02,0.01,0.05,0.03,0.07,0.04h-9.62c6.73,2.64,11.77,8.86,18.2,12.32
	c6.25,4.35,13.58,6.05,19.24,11.88c3.08,2.24,6.05,4.79,9.45,6.28c-0.43,0.85-1.81,0.53-2.66,0.85c-4.25-0.43-8.8-0.11-12.75-1.39
	c-5.73-2.23-10.84-5.74-15.93-9.35c-8-6.23-14.27-14.8-22.5-20.65l-0.05,0c0.02,0.02,0.04,0.03,0.05,0.05l-4.59-0.02l-2.89,0.02
	c1.31,0.7,1.35,3.11,3.41,3.29c4.25,3.5,8.51,7.97,12.55,12.32c3.72,3.5,6.59,7.54,9.56,11.15c0.2,0.64,0.54,1.48,0.2,2.12
	c-1.68,1.16-3.61,1.6-5.73,1.7c-1.8,0-3.8,0.22-5.1-1.16c-7-8.82-11.56-18.6-17.53-27.83c-0.29-0.77,0.16-1.3,0.76-1.59l-40.25,0.02
	c3.18,1.64,6.47,3.01,10.07,3.58c3.41-0.2,7.02,0.43,10.09-0.52c1.82,1.37,4.79-0.65,5.95,1.7c0.43,3.4,2.23,6.16,3.4,9.25
	c-1.06,5.64,2.13,10.19,1.28,15.83c-0.54,1.6-2.24,1.38-3.52,1.71c-2.23,0-2.97-2.66-3.72-4.25c-1.38-4.99,0.32-10.1,1.07-14.88
	c-0.21-1.81-1.28-3.83-3.3-4.36c-1.48-0.21-3.08,0.22-3.61,1.59c-0.62,2.77-1.7,6.49,0.43,8.93c0.32,2.45-0.52,4.36-0.74,6.49
	c0.63,2.76,0.74,6.48-1.81,8.18c-1.49,0-3.82,0.42-4.57-1.38c-2.23-2.33-0.42-5.52,0-7.97c1.7-4.04,1.49-8.92,2.77-13.17
	c0.1-1.27-0.96-2.44-2.14-2.87c-1.9-0.22-3.82,0.11-4.67,1.91c-2.13,2.87-0.43,6.7-1.27,9.99c-2.34,4.36-0.86,11.16-6.26,13.4
	c-3.09,0.32-5.84-0.11-8.62-0.96c-0.64-0.53-0.52-1.7-0.1-2.34c4.24-6.16,9.46-11.9,12.54-18.59c1.48-2.66-1.28-4.26-1.7-6.49
	c-0.85-0.74-1.92-1.27-3.09-1.06c-2.45,2.87-3.18,6.49-4.88,9.67c-2.77,5.73-7.45,10.83-10.84,16.36c-2.23,3.51-6.7,1.17-9.99,1.91
	c-1.07,0-0.75-1.48-0.63-2.23c1.9-4.88,6.37-7.76,9.98-11.8c2.45-3.71,5.17-6.59,7.31-10.51c1.48-0.96,2.34-2.65,2.22-4.56
	c0-1.28-0.28-1-1.13-1.95c-0.6-0.12-1.11-0.38-1.59-0.58l-1.28-0.01l-0.55,0c0,0,0.01,0,0.01,0l-0.01,0
	c-0.15,0.11-0.31,0.25-0.46,0.44c-2.45,3.08-4.62,6.35-6.42,9.76c-5.1,7.12-12.01,13.59-17.86,20.29
	c-5.09,2.66-12.1,2.13-17.95,1.49c-0.96-0.53-1.48-1.71-0.84-2.65c11.15-7.12,20.92-17.65,31.87-25.29
	c1.72-2.52,3.71-3.13,4.85-3.98l-3.56-0.02l-3.35,0.02c0.02-0.01,0.04-0.03,0.06-0.04l-0.06,0c-1.6,1.12-3.4,2.23-5.49,3.6
	c-11.68,9.36-24.96,14.89-37.19,22.95c-6.58,3.3-16.04,3.94-23.26,1.39c-0.95-0.64-0.32-1.92,0-2.65
	c9.24-7.44,20.71-9.57,30.91-14.78c6.48-1.59,11.72-6.26,18.07-8.28c1.75-0.56,3.36-1.32,4.9-2.19l-6.64-0.02l-6,0.02
	c0.02-0.01,0.04-0.02,0.06-0.03l-0.06,0c-2.46,1.2-4.96,2.25-7.56,3.07c-9.46,3.61-18.8,7.43-27.83,12
	c-2.51,1.04-4.94,2.36-7.4,3.61v19.93c3.46,0.21,6.94,0.37,10.47,0.26c9.88-1.8,18.71,2.67,28.6,2.24
	c8.59-2.87,19.43-1.28,28.57-0.97c5.31,0,10.74-1.7,15.83-0.11c5.63,0.75,11.69,0.32,17-0.83c10.63,0.52,21.15-0.64,31.67-0.96
	c2.97-0.53,5.63,0.74,8.6,0.1c8.41-0.84,16.37,0,24.54-1.16c13.6,0.94,28.16,0,41.65,1.27c4.15-0.85,8.81-0.11,12.96-0.11
	c19.65-1.59,40.7-1.49,60.68-1.49c6.26-0.95,13.06-0.31,19.44-1.06c1.81,0.22,3.6,0.75,4.99,1.91c0.83,1.38,1.35,2.89,1.7,4.48
	l14.17,0c-0.19-3.21-0.58-6.47-1.21-9.58c-1.58-3.51-0.63-8.08-2.45-11.48c-1.84-7.08-3.63-14.18-5.81-21.13l-8.41,0l-4.67,0
	C299.42,285.77,299.98,287,300.58,288.22z M138.54,315c-2.24-0.31-4.66-0.75-5.94-3.08c-1.59-5.95-3.51-11.89-3.83-18.38
	c-0.84-2.02-2.12-3.93-2.02-6.06c1.49-1.16,2.88,0.75,3.62,1.81c3.41,7.75,11.56,13.6,11.16,22.84
	C141.1,313.4,140.24,315.1,138.54,315z"/>
<path class="st1" d="M331.06,303.1c1.38,5.83,2.52,16.66,3.15,23.6l7.79,0.01c-0.78-12.6-2.22-24.94-4.98-36.78
	c-0.39-1.82-0.84-3.62-1.33-5.4l-2.77-0.01l-5.45,0.02C328.95,290.63,330.18,296.78,331.06,303.1z"/>
<path class="st1" d="M123.21,250.39c2.13,2.43,2.13-1.81,4.46-0.75c2.97,0.64,0.84,4.36,3.39,4.89c1.81-1.06,2.56-3.19,2.77-5.21
	c0-0.03,0-0.06,0-0.07l-11.33,0.05C122.65,249.71,122.88,250.09,123.21,250.39z"/>
<path class="st1" d="M28.32,284.51l0.1,0c12.33-5.18,26.82-11.19,31.12-12.67c1.38-1.27,9.6-3.85,10.66-5.44
	c-0.74-2.65-11.53,1.95-13.43,1.74c-6.7,1.38-39.98,13.49-46.14,16.15c-0.27,0.07-0.54,0.14-0.8,0.22l18.6-0.04
	C28.39,284.49,28.35,284.5,28.32,284.51z"/>
<path class="st1" d="M198.79,249.76l8.17-0.43c0.89-0.01,1.79-0.04,2.7-0.06l-19.73-0.02C192.86,249.34,195.8,249.51,198.79,249.76z
	"/>
<path class="st1" d="M68.19,276.94c2.18-1.01-0.19-4.58-1.98-3.9c-7.95,2.99-15.13,7.83-22.79,11.48l5.93,0.02l6.64-0.02
	C60.25,282.14,63.91,278.92,68.19,276.94z"/>
<path class="st1" d="M0.57,259.91c13.1-1.91,55.68-2.15,56.6-6.2c1.9-2.97-55.5,1.26-50.36-4.16c0.1-0.1,0.2-0.2,0.3-0.3l-6.54,0.01
	V259.91z"/>
<path class="st1" d="M101.11,249.64c1.1,0.36,2.27,0.34,3.12-0.38l-3.52,0.05C100.84,249.42,100.97,249.53,101.11,249.64z"/>
<path class="st1" d="M90.47,249.21l-0.02,0c-1.26,2.24-2.91,4.47-0.49,6.81c2.87,0.63,2.97-2.98,4.14-4.57
	c0.18-0.84,0.83-1.51,1.38-2.2l-2.32-0.02l-2.71,0.02C90.45,249.24,90.46,249.22,90.47,249.21z"/>
<path class="st1" d="M114.82,256.02c0.85,0,1.7,0,2.34-0.53c0.46-2.13,1.67-4.13,2.13-6.23l-5.98,0
	C113.79,251.49,113.95,253.85,114.82,256.02z"/>
<path class="st1" d="M46.73,266.13c1.59-2.44,22.21-2.2,21.15-6.98c-0.31-1.4-40.05,4.75-43.99,5.92
	c-7.59,1.74-15.35,3.08-23.33,3.96v8.24C13.88,275.61,36.58,268.62,46.73,266.13z"/>
<path class="st1" d="M285.25,249.28c0.65,1.67,1.24,3.34,1.72,5.05c5.1,9.54,7.67,20.25,11.92,30.19h0c0,0,0,0,0,0l4.67,0l8.41,0
	c-2.06-6.61-4.47-13.07-7.57-19.24c-1.82-5.69-5.02-10.79-7.8-16.05l-0.01,0c0,0.01,0.01,0.02,0.01,0.03L285.25,249.28z"/>
<path class="st1" d="M317.2,249.25l-2.2,0c2.46,5.44,4.61,11,7.04,16.45c2.01,6.21,3.85,12.47,5.42,18.85h0.01
	c0-0.01,0-0.02-0.01-0.03l5.46,0.01l2.77-0.01c-3.36-12.16-8.78-23.51-13.29-35.27h0c0,0,0,0,0,0.01L317.2,249.25z"/>
<path class="st1" d="M187.21,283.98c-5.32-1.07-10.32-2.87-14.99-5.53c-4.35-0.53-8.06-2.54-12.32-3.3c-1.38,0-3.19-0.31-3.39,1.39
	c0.41,4.57,5.03,3.55,8.12,5.05c2.55,0.23,4.92,1.8,7.29,2.97l0.08,0c-0.03-0.01-0.06-0.03-0.08-0.04l7.61,0.02l8.68-0.02
	C187.87,284.37,187.54,284.18,187.21,283.98z"/>
<path class="st1" d="M252.87,275.47c-1.81-6.37-6.27-11.68-9.46-17.42c-2.73-2.89-5.46-5.81-8.06-8.82h-0.02
	c0.01,0.01,0.01,0.01,0.02,0.02l-4.12-0.01l-10.52,0.01c2.71,0.12,5.33,0.53,7.72,1.36c0.76,0.85,2.45,1.81,2.13,3.19
	c-8.08,1.17-17.74,2.34-26.14,0.53c-5.41,0.32-10.52-0.2-16.15,0.32c-4.04,1.17-9.04-2.98-11.78,1.49
	c-0.23,1.06,0.21,2.54,1.48,2.76c7.23,0.95,14.76,1.49,22.42,1.59c3.72-0.85,7.76-0.21,11.68-0.21c9.25,0.21,20.4-3.2,26.78,5.41
	c1.81,3.41,4.15,6.59,4.57,10.62c-0.33,0.96-1.38,1.49-2.35,1.49c-4.87-0.74-9.34-2.76-14-3.93c-6.91-1.07-12.99-4.25-20.19-4.25
	c-6.6-0.64-12-3.94-18.71-4.26c-4.98-1.59-10.19-2.76-15.83-2.97c-7.75-2.02-16.88-1.49-22.2-8.6c-0.41-1.7,0.42-3.19,2.02-3.61
	c7.12-0.29,14.02-0.68,20.89-0.9l-34.43-0.04c0.3,1.68,0.59,3.38,1.5,4.85c1.37,0.42,3.82-0.11,3.94,2.12
	c0,7.54-2.23,14.24-8.08,19.34c-3.51,3.07-8.29,2.76-12.64,3.82c-10.31,2.45-19.87-0.83-27.52-6.8c-6.37-2.65-7.76-9.45-9.68-14.87
	c-0.23-3.03,0.24-5.81,1.1-8.46l-10.63,0.01c0,0,0-0.01,0-0.01h0c-0.12,0.77-0.11,1.56,0.11,2.42c-0.95,10.85,0.53,22,9.88,28.47
	c2.69,1.42,5.34,3,8.06,4.39h0.04c-0.01-0.01-0.02-0.01-0.04-0.02l40.37-0.04c-0.03,0.01-0.06,0.03-0.08,0.04l0.08,0
	c0.21-0.13,0.44-0.19,0.65-0.22c0.48-0.06,0.85,0.02,1.15,0.19l2.89,0.01l4.54-0.03c-0.17-0.16-0.34-0.28-0.51-0.4
	c-1.17-0.64-2.12-2.01-2.12-3.39c0.1-0.74,0.76-1.28,1.48-1.49c2.77,0.11,4.26,3.62,6.61,4.79c0.53,0.16,1.05,0.34,1.56,0.54h0
	l9.55-0.04c-4.78-2.8-9.14-6.63-14.31-8.68c-0.96-0.74-2.03-2.02-1.17-3.19c1.27-3.29,3.4-6.26,3.94-9.78
	c1.7-2.22,3.73,0.11,5.42,0.43c7,2.23,14.77,2.66,21.56,5.31c9.58,2.76,20.29,2.98,29.76,6.17c7.43,1.17,14.13,4.04,21.56,5.41
	c5.65,1.49,11.38,2.87,17.22,3.93c0.23,0.14,0.45,0.29,0.65,0.45h0.01c0,0-0.01-0.01-0.01-0.01l8.95,0l2.98,0
	C256.2,281.35,254.85,278.27,252.87,275.47z"/>
<path class="st1" d="M216.22,284.4c-7.97-2.76-16.16-5.1-24.23-7.65c-6.92-1.7-14.13-2.34-20.4-5.63c-1.7-0.63-3.92-0.42-5.43,0.32
	c-0.83,0.43-1.28,1.6-0.62,2.34c3.7,3.3,9.24,2.23,13.17,4.89c5.91,2.12,11.98,3.82,17.92,5.87l0.05,0
	c-0.02-0.01-0.03-0.01-0.05-0.02l7.47,0.01l12.63-0.01C216.56,284.49,216.39,284.45,216.22,284.4z"/>
<path class="st1" d="M81.8,284.51l0.54,0l1.28,0C82.98,284.26,82.4,284.1,81.8,284.51z"/>
<path class="st1" d="M75.86,282.27c-1.39-1.4-3.03-1.94-3.71-0.83c-1.22,1.11-2.54,2.07-4.02,3.07l3.29,0.02l3.56-0.02
	C75.65,284.04,76.03,283.44,75.86,282.27z"/>
<path class="st1" d="M160.89,284.51c-0.02-0.01-0.05-0.03-0.07-0.04l-9.55,0.04H160.89z"/>
<path class="st1" d="M144.31,284.51c-0.02-0.02-0.04-0.03-0.05-0.05l-4.54,0.03L144.31,284.51z"/>
<polygon class="st1" points="298.89,284.52 303.56,284.52 298.89,284.51 "/>
<path class="st1" d="M327.46,284.54l5.45-0.02l-5.46-0.01C327.46,284.52,327.46,284.53,327.46,284.54z"/>
<polygon class="st1" points="81.79,284.52 82.34,284.52 81.8,284.51 "/>
<path class="st1" d="M94.65,284.51c0.01,0.01,0.02,0.01,0.04,0.02l40.25-0.02c0.03-0.01,0.06-0.03,0.08-0.04L94.65,284.51z"/>
<path class="st1" d="M28.32,284.51c0.03-0.01,0.07-0.03,0.1-0.04l-18.6,0.04c-0.04,0.01-0.08,0.02-0.13,0.03L28.32,284.51z"/>
<path class="st1" d="M196.68,284.53l7.42-0.01l-7.47-0.01C196.64,284.52,196.66,284.53,196.68,284.53z"/>
<path class="st1" d="M68.06,284.56l3.35-0.02l-3.29-0.02C68.1,284.53,68.09,284.54,68.06,284.56z"/>
<polygon class="st1" points="245.45,284.52 254.39,284.52 245.44,284.51 "/>
<path class="st1" d="M172,284.56l7.52-0.02l-7.61-0.02C171.94,284.53,171.97,284.54,172,284.56z"/>
<path class="st1" d="M43.37,284.55l6-0.02l-5.93-0.02C43.41,284.52,43.39,284.54,43.37,284.55z"/>
<path class="st1" d="M145.35,215.33c0.32-0.34,0.64-0.72,0.95-1.12l-2.78-0.02l-1.07,0c0.19,0.37,0.47,0.72,0.78,1.04
	C143.86,215.44,144.71,215.87,145.35,215.33z"/>
<path class="st1" d="M96.41,214.19l-0.37,0l-3.07,0.03c0.3,0.26,0.62,0.49,0.95,0.7C94.75,215.27,95.96,215.02,96.41,214.19z"/>
<path class="st1" d="M297.29,214.24c0.56,0.9,1.13,1.75,1.69,2.59c3.07,6.8,6.7,13.39,9.68,20.4c2.46,3.88,4.49,7.92,6.35,12.02
	l2.2,0l5.19,0c-0.34-0.89-0.67-1.78-1-2.67c-4.55-6.37-6.37-14.02-10.21-20.83c-2.16-3.55-2.22-8.11-4.95-11.56h0c0,0,0,0,0,0
	L297.29,214.24z"/>
<path class="st1" d="M101.64,239.65c-3.19-0.32-6.49-0.21-9.04,1.49c-0.43,0.63-0.53,1.8,0.11,2.33c0.96,0.75,2.55,0.64,3.72,0.43
	c2.57,0.99,2.66,3.81,4.28,5.35l3.52-0.03c0.14-0.12,0.27-0.27,0.39-0.43c0.85-2.65,0.42-5.73-1.7-7.64L101.64,239.65z"/>
<path class="st1" d="M126.82,241.67c-2.02,0.53-3.93,2.12-4.25,4.24c-0.31,1-0.45,2.32-0.07,3.33l11.33-0.03
	c-0.01-2.3-0.35-4.38-2.02-5.95C130.32,242.2,128.83,241.25,126.82,241.67z"/>
<path class="st1" d="M112.16,239.44c-0.64,0.1-1.17,0.75-1.48,1.28c-1.07,2.55,1.38,4.77,2.23,7.01c0.16,0.5,0.29,1.01,0.4,1.52
	l5.98,0c0.27-1.26,0.28-2.57-0.32-3.96C117.58,242.84,115.66,239.12,112.16,239.44z"/>
<path class="st1" d="M91.45,246.77c-0.14,0.81-0.53,1.6-0.98,2.44l2.68,0.02l2.32-0.02c0.43-0.56,0.81-1.16,0.86-1.91
	C95.8,244.96,92.72,246.24,91.45,246.77z"/>
<path class="st1" d="M271.34,214.17l-8.23,0.02c3.05,3.48,6.13,7.06,9.53,10.5l0.62,1.81l6.27,9.24c1.63,4.6,3.91,8.98,5.72,13.54
	h0.01c0-0.01-0.01-0.02-0.01-0.03l11.34-0.03c-0.12-0.26-0.25-0.5-0.37-0.74c-2.65-8.08-6.6-15.73-11.16-22.95
	c-3.18-3.4-4.99-7.33-7.34-11.15c-0.07-0.07-0.15-0.15-0.22-0.23l-0.03,0c0.01,0.01,0.02,0.02,0.03,0.03L271.34,214.17z"/>
<path class="st1" d="M7.15,249.2c-0.02,0.02-0.03,0.03-0.05,0.05l0.05,0c4.44-4.19,12.79-2.56,19-2.46l28.29,0.93
	c4.95,0,8.39,1.06,13.6,0c1.05-1.06,2.8,0.08,2.79-2.02c-0.01-2.56-6.58-0.79-9.88-2.48c-7.96-0.32-15.8-1.96-23.56-1.43
	c-6.79,0.54-13.17-1.27-19.86-1.59c-0.74-0.43-2.16-1.21-1.17-2.23c6.03-6.21,34.18-0.79,39.59-1c0.65-0.22,1.11-1.28,1.43-1.92
	c-0.22-2.02-29.22-5.21-24.9-9.57c6.97-7.04,21.18,2.92,31.16,6.43l4.36,1.81c3.5,2.23,7.86,2.55,11.48,4.78
	c2.03,4.18-2.24,6.88-2.88,10.75l10.63-0.03c0,0.01-0.01,0.02-0.01,0.03h0.01c1.04-3.23,2.64-6.22,4.21-9.18
	c3.18-4.68,7.22-9.77,12.32-12.42c6.69-2.98,15.72-2.98,23.05-1.28c2.76,0.95,5.31,2.65,7.75,4.46c2.77,1.49,5.2,4.15,7.55,6.27
	c0.96,0.74,0.53,2.23,0.42,3.18c-1.6,1.81-5.73,2.03-4.9,5.2c0.5,1.18,0.73,2.45,0.96,3.72l34.43,0.04
	c5.61-0.14,11.21-0.21,16.9-0.01l19.73,0.01c3.64-0.09,7.43-0.28,11.04-0.05l10.52,0.03l4.1-0.01c-2.46-2.86-4.8-5.78-6.91-8.82
	c-6.17-4.89-10.19-12.12-17.09-15.93c-4.8-4.21-10.16-7.27-15.51-10.32l-0.05,0c0.02,0.01,0.04,0.02,0.05,0.03h-16.56l1.37,1.36
	c0.09,3.4-4.38,2.45-6.28,4.25c-7.22,2.66-14.15,6.27-21.26,9.35c-0.64,0.31-0.73,1.16-0.41,1.81c0.96,1.17,2.45,0.96,3.83,1.17
	c7.74-3.93,15.92-6.59,23.69-10.73c8.7-3.09,18.04,0,24.96,5.41c0,0.42,0.42,0.96,0.11,1.39c-5.41,0.95-10.74,2.22-15.95,3.82
	l-10.8,0.65c-4.68-0.23-9.38,0.2-13.74,1.16c-5.74,0.32-10.32,3.41-15.61,4.67c-3.21-1.06-1.39-5.42-3.62-7.54
	c-0.53-1.71,0.32-3.19,1.48-4.36c4.53-4.47,9.59-9.54,15.22-12.4l-5-0.01l-3.13,0c0,0,0.01,0,0.01-0.01h-0.01
	c-4.24,3.78-8.78,7.09-12.92,11.23c-1.59,0.75-2.67-0.74-3.84-1.48c-2.64-2.95-2.39-6.38-1.45-9.76l-6.09,0.01c0,0,0-0.01,0-0.01
	l0,0c-0.22,0.56-0.43,1.12-0.64,1.68c-0.64,0.43-0.74,1.06-1.49,0.96c-0.36-0.92-0.56-1.81-0.65-2.68h0c0,0.01,0,0.03,0,0.04
	l-3.45-0.02l-3.6,0.02c-0.03,1.53,0.1,3.11-1.76,3.91c-3.4,1.17-7.64,1.06-11.26,0.21l-1.06-1.17c-0.16-0.97-0.28-1.96-0.37-2.95h0
	c0,0,0,0,0,0l-6.34,0.02c0.25,1.2,0.54,2.35,0.86,3.47c-0.63,1.92-2.97,2.65-4.57,3.51c-3.7,0.64-4.46-3.92-7.43-5.2
	c-0.58-0.58-1.12-1.17-1.64-1.78l-6.83,0c3.83,3.34,5.69,8.38,9.75,11.56l-0.11,1.06c-2.87,2.34-5.09,7.54-9.45,5.86
	c-4.57-2.35-8.83-5.75-14.24-6.07c-5.53-3.82-11.89-5.73-18.17-7.86c-0.95-0.32-0.53-1.38-0.43-1.91c1.7-2.66,4.25-0.11,6.37-0.21
	c2.86,1.81,6.49,1.92,9.78,2.76c4.46,2.97,9.77,3.83,14.44,6.17c0.96,0,1.71-0.74,2.02-1.49c0.22-1.28-0.74-2.23-1.7-2.76
	c-2.66,0-4.25-2.44-6.8-2.65c-1.98-1.76-4.11-3.11-6.25-4.48l-0.06,0c0.02,0.01,0.04,0.03,0.06,0.04l-16.45-0.02l-16.45,0.02
	c-1.08,0.61-2.16,1.26-3.25,1.89c-6.68,4.36-12.86,10.95-19.22,15.83c-2.9,2.67-5.93,5.44-8.89,8.29v9.02L7.15,249.2z
	 M148.64,243.18c3.51,0.21,5.64-2.66,8.93-2.97c2.33-1.18,5.42-0.54,8.07-1.29l12.74-1.59l8.21-0.31c4.9-0.96,9.64-2.13,14.54-3.19
	c4.15,0.21,8.83-2.12,12.32,0.53c2.77,1.8,6.37,3.72,5.85,7.44c-3.08,2.34-7.65,2.87-11.47,2.13c-17.22-0.53-33.68,1.05-50.7,1.28
	l-7.53,0.53C148.53,245.2,148.33,244.13,148.64,243.18z"/>
<path class="st1" d="M76.6,249.25c0,0,0,0.01,0,0.01l10.63-0.01c0-0.01,0.01-0.02,0.01-0.03L76.6,249.25z"/>
<path class="st1" d="M235.35,249.25c-0.01-0.01-0.01-0.01-0.02-0.02l-4.1,0.01L235.35,249.25z"/>
<path class="st1" d="M90.45,249.25l2.71-0.02l-2.68-0.02C90.46,249.22,90.45,249.24,90.45,249.25z"/>
<path class="st1" d="M285.25,249.28l11.34-0.03c0-0.01-0.01-0.02-0.01-0.03l-11.34,0.03C285.25,249.26,285.25,249.27,285.25,249.28z
	"/>
<polygon class="st1" points="322.39,249.25 322.39,249.25 317.2,249.25 "/>
<path class="st1" d="M0.57,249.22v0.04l6.54-0.01c0.02-0.02,0.03-0.03,0.05-0.05L0.57,249.22z"/>
<path class="st1" d="M272.31,183.68c10.62,8.46,17.79,19.75,24.95,30.56l0.03,0c-0.01-0.02-0.02-0.03-0.03-0.05l8.97,0
	c-0.21-0.26-0.43-0.52-0.66-0.76c-1.06-4.36-4.88-7.75-7.53-11.47c-5-3.72-7.02-9.34-12.12-13.38c-4.49-5.99-9.86-11.36-15.47-16.54
	l-5.46-0.02l-4.88,0.02C264.09,176,267.97,180.11,272.31,183.68z"/>
<path class="st1" d="M61.94,212.25c-0.75-0.74-0.96-2.11-0.22-2.86c1.07-1.48,2.65-2.97,4.57-3.08c5.1-1.38,6.8,4.77,10.73,6.06
	c0.96,0.51,1.81,1.12,2.57,1.8l6.83,0.02c-2.48-2.88-4.57-6.01-7.81-8.2c-0.43-0.74-0.22-1.82,0-2.65c1.27-1.49,3.08-1.81,4.88-1.39
	L85.1,203c2.65,3.72,4.2,8.35,7.84,11.21l0.04,0c-0.01-0.01-0.02-0.02-0.04-0.03l3.1,0l0.37,0c0.07-0.13,0.13-0.28,0.16-0.45
	c0.54-2.02-1.69-2.76-2.12-4.36c-0.53-2.44-2.55-5.52-0.32-7.86c0.52-0.42,1.17-0.74,1.7-0.96c1.17,0.22,2.55,0,3.08,1.28
	c-0.91,4.01-0.54,8.34,0.31,12.36h0c0-0.01,0-0.01,0-0.02l6.34,0c-0.39-4.31-0.21-8.73-0.38-12.88c-0.32-0.84-0.64-1.8-0.32-2.65
	c0.75-0.96,2.13-0.85,3.08-0.85c1.5,0.85,3.29,1.7,3.93,3.29c0.11,3.07-2.12,8.08,1.49,9.67c1.38-0.11,2.45-1.17,2.77-2.33
	l0.21-6.06l2.65-5.32c1.17-0.63,3.08-0.32,3.4,1.28c0.43,4.78-0.53,9.03-1.7,13.17c-0.6,0.76-0.67,1.69-0.69,2.64l3.6,0.02
	l3.44-0.02c-0.48-4.83,2.53-8.86,2.25-13.79c0.54-0.75,0.96-1.91,2.03-2.13c1.27-0.11,2.23,0.96,2.66,2.13
	c-0.48,5.01-2.38,9.34-4.15,13.83l6.1-0.05c0,0.02-0.01,0.03-0.01,0.05h0.01c0.73-2.62,1.85-5.16,2.4-7.45
	c2.11-2.34,2.87-6.81,6.9-6.38c1.8-0.32,3.19,0.42,4.77,0.95l-0.21,1.28c-2.87,3.08-5.43,6.27-7.54,9.66
	c-0.27,0.67-0.16,1.34,0.17,1.95h0.01c0,0,0-0.01-0.01-0.01l1.07,0.01l2.78-0.01c3.44-4.42,6.16-11.95,13.09-9.9
	c0.95,0.74,2.23,1.17,2.74,2.45c0.34,2.23-2,2.01-3.29,2.85c-1.5,1.65-3.08,3.15-4.7,4.6l3.13,0l5,0
	c5.07-2.56,10.61-3.36,16.66-0.34l0.34,0.34l16.51-0.03c-1.51-0.89-3.03-1.76-4.52-2.64c-6.17-3.51-13.19-4.67-19.11-8.39
	c-5.42-3.4-12.34-3.4-17.97-6.38c-8.71-2.12-17.75-3.72-26.98-4.78l-26.25,0.11c-9.03,0.85-17.63,2.55-26.14,4.67l-10.19,1.38
	c-11.85,3.08-22.21,9.74-32.67,16.03l16.45,0.02l16.39-0.02C63.83,213.51,62.88,212.9,61.94,212.25z"/>
<path class="st1" d="M0.57,172.32v10.21c4.01-2.69,8.13-5.15,12.18-7.67c1.93-0.98,3.87-1.93,5.81-2.86l-1.26,0l-16.17,0
	C0.95,172.1,0.76,172.21,0.57,172.32z"/>
<path class="st1" d="M214.92,172.03c0.75,0.53,1.5,1.04,2.25,1.55c10.95,5,18.71,16.36,28.69,23.59c6.69,4.8,11.91,10.8,17.24,16.97
	l8.23,0.03l6.13-0.01c-5.05-5.38-8.42-11.33-13.65-16.45c-4.99-3.08-8.17-8.92-13.61-11.37c-6.48-3.96-12.09-9.86-18.27-14.38
	l-0.05,0c0.02,0.01,0.03,0.02,0.05,0.03L214.92,172.03z"/>
<path class="st1" d="M99.22,214.21l6.34-0.02c0,0,0,0,0,0l-6.34,0C99.22,214.2,99.22,214.2,99.22,214.21z"/>
<polygon class="st1" points="142.44,214.19 142.44,214.2 143.51,214.2 "/>
<path class="st1" d="M195.82,214.19c-0.02-0.01-0.04-0.02-0.05-0.03l-16.51,0.03H195.82z"/>
<path class="st1" d="M127.05,214.19c0-0.01,0-0.03,0-0.04l-3.44,0.02L127.05,214.19z"/>
<polygon class="st1" points="154.13,214.2 157.26,214.19 154.13,214.19 "/>
<path class="st1" d="M92.94,214.19c0.01,0.01,0.02,0.02,0.04,0.03l3.07-0.03L92.94,214.19z"/>
<path class="st1" d="M64.77,214.15l-16.39,0.02l16.45,0.02C64.81,214.18,64.79,214.16,64.77,214.15z"/>
<path class="st1" d="M277.5,214.19c-0.01-0.01-0.02-0.02-0.03-0.03l-6.13,0.01L277.5,214.19z"/>
<path class="st1" d="M297.29,214.24l8.94-0.05c0,0,0,0,0,0l-8.97,0C297.27,214.21,297.28,214.22,297.29,214.24z"/>
<path class="st1" d="M129.84,214.19C129.84,214.19,129.84,214.2,129.84,214.19l6.09,0c0-0.02,0.01-0.03,0.01-0.05L129.84,214.19z"/>
<path class="st1" d="M17.53,139.58c5.53-2.75,11.68-3.92,17.31-6.58c2.13-0.53,4.99-0.74,6.7,0.63
	c4.79,6.49,11.79,12.44,20.29,10.52c5.01-1.49,10.32-2.66,14.35-6.69c1.27-1.28,5.82-5.26,7.62-5.68c2.34-0.22,5.86,2.36,7.98,2.9
	c6.92-0.54,9.24,0.59,15.51-2.18c3.72-1.92,7.13-3.02,10.32-5.98c2.02,0,5.69,3.32,7.29,4.17c5.09,3.29,16.09,3.33,22.04,4.71
	c0.32,0.1,0.32,0.42,0.32,0.74c-1.59,1.6-10.86-1.03-12.65-0.49c-16.05-2.76-32.3,0.74-47.72,3.61
	c-13.39,4.15-27.84,5.85-40.69,11.26c-9.88,3.4-19.02,8.71-28.47,13.39c-5.81,2.01-11.24,4.93-16.6,8.03l16.17,0.04l1.26,0
	c0,0,0,0-0.01,0h0.01c7.58-3.65,15.28-7.04,22.97-10.41c4.35-2.77,9.66-3.73,13.92-6.81c16.89-7.01,36.22-8.06,54.61-11.47
	c4.36,0.74,7.65-1.17,11.8-0.96c14.55-0.53,28.05,2.12,41.22,5.1c4.99,1.8,9.88,3.93,14.88,5.73c7.23,4.05,14.97,7.23,22.42,11.05
	c5.11,1.83,9.82,4.67,14.49,7.8l0.05,0c-0.02-0.01-0.03-0.02-0.05-0.03l17-0.03c-2.6-1.93-5.31-3.59-8.23-4.75
	c-10.42-5.54-21.15-10.31-31.24-16.48c-6.17-2.86-12.53-4.99-19.13-6.9c-0.73-0.53-1.26-1.49-0.64-2.23c2.45-1.7,5.53-1.9,7.99-3.61
	c2.42-2.77,5.82-4.57,7.52-7.76c9.14,3.83,17.86,8.51,26.68,13.18c11.15,4.35,21.87,9.98,31.65,17.63
	c5.07,2.89,9.38,6.84,13.58,10.98l0.03,0c-0.01-0.01-0.02-0.02-0.03-0.03l4.92,0.02l5.46-0.02c-3.94-3.6-7.99-7.14-11.94-10.73
	c-4.89-2.34-8.82-7.12-13.61-9.88c-5.85-1.91-10.62-6.27-16.15-8.81c-8.06-4.36-15.82-9.14-24.33-12.54
	c-2.53-1.59-5.52-2.13-8.07-3.94c-6.06-2.65-11.59-6.47-18.17-7.97c-3.4-1.07-7.12,1.06-10.19-0.74c-0.19-0.57-0.3-1.12-0.37-1.67h0
	c0,0.01,0,0.02,0,0.02l-7.35,0.02c0.65,5.83,2.35,11.7,4.48,16.31c1.37,1.06,2.97,2.34,4.77,1.49c0.75-0.32,1.6-0.32,2.12-1.28
	c-0.43-3.08-1.9-5.74-3.07-8.6c0-0.86,0.95-1.07,1.59-1.17c3.3-0.22,5.3,2.44,8.4,2.65c0.4,0.32,0.22,3.5-0.41,5.52
	c-0.11,1.91-3.2,2.23-4.28,3.73c-1.06,1.39-2.44,1.8-4.13,1.8c-6.17-0.53-10.21-5.64-13.6-10.51l-2.85-9.96l-17.36,0
	c1.36,2.26,2.68,3.78,3.52,4.78c2.36,2.81,6.87,8.63,2.11,7.25c-6.67-1.93-13.79-7.54-17.8-12.05l-6.94,0.02
	c-4.55,4.61-12.28,10.32-17.31,12.03c-4.69,1.59,0.68-5.45,3.05-8.26c0.74-0.87,1.76-2.06,2.82-3.77l-12.35,0.01
	c0.01,0,0.02-0.01,0.02-0.01l-0.02,0c-0.34,0.17-0.69,0.31-1.01,0.45c-1.66,0.64-3.29-0.02-4.75-0.42l-0.96-0.01l-1.76,0.03
	c0.03-0.02,0.05-0.02,0.08-0.04l-0.08,0c-0.57,0.36-1.07,0.99-1.5,2.11c-0.54,6.81-6.44,14.06-13.13,16.61
	c-3.72,0.54-8.5,2.23-12-0.11c-2.55-2.54-3.51-5.95-2.77-9.45c0.53-3.94,4.79-4.47,7.76-5.21c1.38-0.11,3.39-0.43,4.04,1.06
	c1.17,4.78-9.13,5.1-3.61,9.67c4.57,0.32,8.19-2.98,11.15-6.27c1.56-2.23,2.67-5.16,3.25-8.37l-19.81-0.04
	c-4.12,0.73-8.32,1.29-12.22,2.5c-6.37,1.27-12.01,4.46-17.97,6.8c-8.83,4.75-18.4,7.61-27.15,12.53v12.05
	C6.19,146.21,12.03,143.27,17.53,139.58z"/>
<polygon class="st1" points="18.57,171.99 17.31,171.99 18.56,172 "/>
<path class="st1" d="M214.92,172.03l17-0.03c-0.02-0.01-0.03-0.02-0.05-0.03l-17,0.03C214.89,172.01,214.91,172.02,214.92,172.03z"
	/>
<path class="st1" d="M260.1,172.03l4.88-0.02l-4.92-0.02C260.08,172.01,260.09,172.02,260.1,172.03z"/>
<path class="st1" d="M105.37,115.74h0.01c2.34-3.78,4.82-10.06,4.66-21.02c-0.23-15.94-10.7-19.54-15.14-19.77
	c-4.45-0.23-7.59-0.38-5.95-2.27c1.64-1.9,9.13-2.11,14.53-0.94c5.41,1.17,17.05,11.38,17.05,11.38s11.64-10.21,17.05-11.38
	c5.41-1.17,15.46-1.87,17.1,0.02c1.64,1.9-1.24,1.7-5.68,1.94c-4.45,0.23-17.74,5.08-17.97,21.02c-0.15,10.3,2.43,16.89,4.91,21.02
	h0c0,0,0,0,0,0h17.36l-0.25-0.88c-2.11-2.02-5.19-0.53-7.74-1.38c-2.02-0.75-4.79-0.96-5.64-3.51c-0.32-1.59-0.8-3.87,1.01-4.51
	l1.59-1.32c0.21-0.96,2.4-0.97,3.67-0.86c2.98-0.22,3.61,4.57,6.9,3.61c3.73,0.32,4.65-5.78,7.41-7.16
	c6.02-4.81,7.37-3.25,11.08-5.06l0.21,0.42v0.43c-5.32,3.61-10.97,6.76-11.5,13.34c-0.12,2.23-0.03,4.56,0.23,6.9h0
	c0-0.01,0-0.02,0-0.02l7.35-0.02c-0.44-4.15,2.37-7.68,3.12-11.61c3.41-5.73,10.84-2.02,15.51-5.31c1.6-1.38,1.5-3.82,1.28-5.53
	c-3.19-4.04-7.02-7.32-12.32-6.69c-8.08,1.27-14.77,5.42-21.04,10.84c-3.62,2.97-6.9-1.28-10.42-1.92c-3.07-0.85-5.09-4.25-5.4-7.33
	c0-3.4,3.59-5.53,6.04-7.44c5.12-4.36,12.33-2.44,18.08-0.64c2.11-0.33,3.82-2.66,4.25-4.68c0.43-2.55-0.12-5.32-1.59-7.44
	c-2.34-1.38-4.78-2.55-7.55-2.97c-9.03-0.75-19.22-1.92-26.56,3.29c-3.72,1.81-6.28,6.8-10.95,6.38c-4.45-3.51-9.77-4.46-14.34-7.44
	l-7.33-3.08c-7.44-1.38-14.35,2.55-18.06,8.83c-0.95,3.5-3.3,8.6,0,11.9c1.17,1.59,2.98,2.02,4.78,1.59
	c2.66-0.32,3.29-3.3,4.78-4.89c1.06-1.06,2.66-0.85,4.04-0.64c2.55,0.64,5.21,2.98,6.15,5.53c1.17,3.5-1.59,6.27-3.82,8.61
	c-2.02,1.81-5.32,1.6-7.97,1.17c-8.82-5.32-18.39-13.5-29.76-8.51c-4.78,2.34-10.84,7.13-10.84,12.86c2.45,4.04,6.28-0.11,9.46,0
	c5.2-0.53,10.19,0.42,13.5,4.25c1.05,2.97-0.44,6.05-2.66,7.96c-3.13,1.47-6.58,2.26-10.09,2.9l19.81,0.02
	c0.96-5.3,0.42-11.39-2.11-16.24c1.7-1.05,10.86,2.24,11.81,4.68c0,3.08-0.52,6.81,2.55,8.3c1.92,0.64,4.04-1.92,4.89,0.74
	c0.15,1.35-0.81,2.04-1.83,2.53l12.33-0.02C105.37,115.73,105.37,115.73,105.37,115.74z M100.77,107.64c-1.9,1.49-5.47,1-8.02-0.06
	c-0.85-0.85-0.53-2.44-0.22-3.41c1.81-2.65,5-5.31,8.39-4.36l0.97,1.07C102.21,102.8,102.26,106.15,100.77,107.64z"/>
<path class="st1" d="M116.81,115.74l6.94-0.02c-1.92-2.16-3.13-4.08-3.22-5.22C120.43,111.63,118.98,113.57,116.81,115.74z"/>
<path class="st1" d="M87.26,115.74c-0.97-0.25-1.86-0.4-2.64,0l1.68,0.01L87.26,115.74z"/>
<path class="st1" d="M105.37,115.74c0-0.01,0.01-0.01,0.01-0.02l-12.33,0.02c-0.01,0-0.02,0.01-0.02,0.01L105.37,115.74z"/>
<path class="st1" d="M86.3,115.75l-1.68-0.01c-0.03,0.01-0.05,0.02-0.08,0.04L86.3,115.75z"/>
<path class="st1" d="M160.27,115.76l7.35-0.02c0-0.01,0-0.02,0-0.02l-7.35,0.02C160.26,115.74,160.27,115.75,160.27,115.76z"/>
<polygon class="st1" points="135.93,115.74 153.29,115.74 135.92,115.74 "/>
<path class="st1" d="M406.28,387.14c0.63-10.82,2.79-21.26,3.06-32.14l-10.16,0.04c0-0.01,0-0.03,0-0.04h0
	c-0.89,8.44-1.29,17.05-1.58,25.67c-1.07,2.54-0.11,5.41-0.84,8.07c-1.5,7.75-2.34,15.73-5.53,22.84
	c-4.47,17.33-9.94,34.18-16.77,50.58h10c4.29-11.06,10.96-29.49,13.51-36.11C400.72,412.85,404.9,400.84,406.28,387.14z"/>
<path class="st1" d="M14.19,71.4c9.14-2.23,18.17-4.35,27.52-5.84c5.63-1.71,11.89-2.34,17.42-4.36c8.39-0.95,16.78-2.44,25.17-3.4
	c11.8-2.12,24.34-2.34,36.76-2.87c8.82,0.75,17.52,0.53,26.14,1.7l15.62,2.65c5.09-1.06,9.66,0.74,14.43,1.06
	c15.2,1.59,29.32,5.95,42.62,12.22c7.66,4.25,15.71,7.33,23.57,11.25c16.36,5.74,30.71,16.58,44.62,28.37
	c5.63,5.84,11.89,11.15,18.07,16.04c12.22,11.9,23.91,23.79,35.26,36.01c4.03,5.74,8.29,11.37,11.79,17.32
	c6.38,8.93,13.19,18.06,17.63,27.94c9.68,17,14.99,35.8,19.99,54.72c9.44,24.43,9.34,52.37,9.87,79.78
	c-0.62,3.61-1.11,7.28-1.5,10.99l10.16,0c0,0,0,0,0,0h0c0.05-2.16,0.03-4.33-0.1-6.53c-0.62-9.56,0.66-19.13,0.12-28.79
	c-1.28-6.92-1.17-14.56-2.02-21.47c-3.08-24.75-8.28-48.55-17.54-70.65c-1.26-5.32-3.72-9.99-6.69-14.46
	c-1.49-4.99-4.67-9.13-7.21-13.59l-0.65-1.7c-11.89-15.83-19.02-33.68-33.45-48.24c-15.2-15.4-30.18-33.25-48.24-45.04
	c-11.58-10.3-24.01-18.27-36.76-25.71c-7.01-3.19-13.49-7.33-20.3-10.95c-6.91-3.18-14.13-5.73-21.35-8.5
	c-12.01-5.2-26.24-5.2-38.56-9.77c-8.3-0.96-16.79-1.17-24.96-2.34c-12.97-0.85-26.05-1.38-38.69-1.06
	c-9.66-1.8-20.07-0.96-28.99,1.81c-5.96,0.11-11.38,1.81-17.22,2.13c-9.88-0.32-17.84,3.93-27.08,4.99
	c-3.31,0.74-5.85,3.3-9.35,3.19C22.94,61.71,14.87,62.88,7,65c-2.27,0.35-4.38,1.11-6.43,2.03v8.99
	C4.91,73.96,9.37,72.23,14.19,71.4z"/>
<path class="st1" d="M399.18,354.99c0,0.01,0,0.03,0,0.04l10.16-0.04c0,0,0,0,0,0L399.18,354.99z"/>
<path class="st1" d="M173.07,327.06c-1.05-1.17-2.86-0.64-4.24-0.75c-9.57,1.18-20.08,0.54-29.96,0.54l-0.86,0.74l0.53,7.8l1.39,1.8
	c2.54,0.64,1.23-4.78,3.88-5.32c1.17-0.43,4.52-0.63,5.68,1.07c1.59,6.27-0.11,14.78,0.01,21.47c-0.12,2.56-3.11,2.12-4.47,4.03
	c-0.43,1.17-0.32,2.65,0.74,3.5c3.41,1.6,7.65,1.05,10.95,0.09c1.27,0.85,2.44,0.3,4.15,0.19c1.48-0.1,1.48-1.87,1.48-3.26
	c-0.32-2.65-3.59-1.42-3.8-4.08c0.97-6.37,0.75-15.28,1.16-21.86l5.38-0.96c3.84-1.6,2.78,4.28,6.4,3.53
	c1.89-0.74,1.27-3.19,1.07-4.68C172.22,328.91,174.04,328.97,173.07,327.06z"/>
<path class="st1" d="M250.98,333.76c0.2-1.16,4.42-3.48,5.58-3.69c2.02-0.11,3.84,1.38,4.9,3.19c0.52,0.62-0.95,3.16-0.12,3.7
	c1.4,0,3.01,0.74,4.15-0.11c0.96-2.44,0.43-5.63,0.43-8.39l-0.84-1.49c-5.1-2.87-14.72-1.47-19.16,1.5
	c-3.62,2.97-3.22,8.44-2.07,12.58c2.56,5.84,13.85,5.14,17.44,10.23c0.21,1.18,0.86,2.67,0,3.84c-0.52,1.8-2.89,2.5-6.55,2.4
	c-5.51-0.14-6.64-2.51-7.99-7.61l-0.97-0.11c-2.55,2.13-1.95,3.61-3.76,6.37l-2.84,4.47c2.45,2.98,5.53-0.42,8.5-0.31
	c5.01,2.44,13.08,2.44,17.33-1.6c3.29-3.61,4.64-7.67,1.75-12.98C263.55,339.87,251.17,341.41,250.98,333.76z"/>
<path class="st1" d="M23.15,361.81c3.08-2.02,2.24-6.63,3.51-9.6c-0.1-1.27-1.49-1.81-2.66-1.81c-1.96,0.61-2.39,3.01-4.23,4.56
	c-1.84,1.55-6.94,3.13-10.73,2.08c-0.96-1.82-1.4-8.14,0.1-9.94c2.44-0.53,5.72,2.34,6.26-0.53c0.63-3.08,1.42-2.99-0.81-5.12
	c-1.39-0.63-5.23,0.24-6.18-1.47c-0.21-1.27,0.07-4.68,1.04-5.63c1.48-1.49,4.04-1.28,5.95-0.86c2.44,0.32,1.07,3.2,3.4,3.94
	c1.37,0.21,3.19,0.31,3.72-1.17c0.32-2.77,0.84-6.38-0.52-8.83c-1.61-0.84-3.72-0.95-5.74-0.84c-4.61,0.61-10.58-0.08-15.69-0.12
	v35.91C8.25,362.67,16.49,364.52,23.15,361.81z"/>
<path class="st1" d="M119.04,332.1c0.64-0.96,0.64-2.12,0.43-3.29c-0.31-0.74-0.85-1.7-1.7-1.91c-6.7-0.74-12.9,0.21-19.16,0.21
	c-1.3,0,0.36,3.41,1.1,4.25c1.6,2.02,4.64-0.01,5.38,2.43c-0.75,5.84,1.04,14.94-1.2,20.26c-0.95,2.86-4.57,1.27-5.63,3.93
	c-0.84,1.71-0.76,2.62,0.63,3.79c2.11,0.85,4.74,1.48,6.76,0.41c3.51-0.21,9.33,1.49,12.31,0.11c1.5-0.96,1.9-2.61,1.06-4.63
	c-0.43-2.33-3.19-1.92-4.35-3.5c0.1-6.06,0.66-12.82-0.08-19.08C115.75,333.48,117.46,332.64,119.04,332.1z"/>
<path class="st1" d="M209.63,328.01c-0.64-1.27-1.8-2.76-3.3-2.76c-1.46,0.21-4.94,0.84-5.39,2.44
	c-1.57,10.52-7.94,19.02-13.04,28.05c-1.81,1.28-3.3,3.08-5.22,3.93c-0.73,0.75-0.41,1.49,0.22,2.12c4.14-0.32,10.8,0,15.26-0.21
	c0.52-0.21,1.46-0.53,1.26-1.38c-0.2-0.95-1.05-1.28-1.69-1.8c-0.53-0.53-0.22-1.31,0-1.82c2.25-5.31,6.06-3.82,9.77-3.39
	c2.46,0.85,6.44-0.95,7.02,3.61c0.17,1.34-2.02,0.32-2.87,0.74c-1.07,0.54-1.93,1.6-1.61,2.97c0,1.39,1.29,1.34,2.56,1.45
	c4.68-0.63,8.76-0.58,14.16-0.77c2.19-0.08-2.04-4.39-3.1-5.98C218.75,346.19,213.13,337.58,209.63,328.01z M209.48,348.29
	c-1.53,1.27-7.28,1.08-9.43,0.96c-2.7-0.64,2.61-7.2,1.83-8.97c0.5-1.65,0.22-4.53,2.27-4.92c1.78,0,1.53,3.01,2.05,4.92
	C206.98,342.06,209.88,346.5,209.48,348.29z"/>
<path class="st1" d="M195.13,208.28c2.45,0.95,3.52,5.2,6.7,2.86c-0.1-1.49-1.59-3.19-0.33-4.57c5.54-1.7,7.81,1.06,11.86,4.24
	c0.83,0.96,1.06,1.81,0.22,3.08c-1.8,0.43-3.83,1.2-5.41-0.07c-0.43,0-0.85,0.52-0.85,1.05c0.11,2.98,5.34,6.24,7.05,7.94
	c1.39,2.66,5.72,5.26,8.56,5.79c0.87-0.32,1.61-1.28,1.5-2.23c-1.92-5.32-3.5-1.02-1.06-6.23c0.84-1.59,2.88-24.98,3.85-26.48
	c-0.53-4.46-0.22-7.47-0.22-7.47c-0.74-2.23-1.68-2.05-4.86-2.16c-4.47,1.28-8.5,3.62-11.49,7.75c-5.09,3.73-10.1,8.08-15.82,10.31
	c-1.9,1.37-4.03,0.54-6.05,1.49c-0.21,0.63,0,1.27,0.31,1.7C191.12,206.25,192.92,207.74,195.13,208.28z M212.53,195.25
	c2.44-1.69,2.82-2.93,5.49-4.21l0.41,0.43c-0.21,2.86-1.65,8.46-2.31,12.53c-0.29,1.81-7.07-2.25-8.35-3.85
	C207.11,199.53,212.32,195.89,212.53,195.25z"/>
<path class="st1" d="M100.62,160.94c0.63,0.64,2.02,0.64,2.65,0c2.86-0.64,1.64-5.28,7.86-2.66c1.23,0.52,1.91,1.81,2.02,3.08
	c-0.65,8.07,0.95,17.74-6.48,22.63c-0.43,0.74-0.86,2.02,0.2,2.55c3.29,1.16,7.01,0.1,10.62,0.42c2.87,0.11,5.21,1.91,8.19,1.38
	c1.05-0.22,1.9-1.38,1.37-2.45c-2.55-1.49-2.55-4.36-4.24-6.38c-1.17-7.76,0.56-9.41,0.97-20.82c0.14-3.93,4.77-5.89,8.13-2.16
	c-0.48,7.47,1.93,7.51,3.66,7.68c0.73,0.11,1.48-0.43,1.7-1.17c0.54-3.51,1.07-7.11,1.27-10.63c-2.34-3.61-7.65-1.8-11.68-2.44
	c-7.97,1.28-16.57-0.43-24.66,0.53c-2.01,0.21-1.8,2.66-2.33,4.25C99.87,156.8,98.49,159.46,100.62,160.94z"/>
<path class="st1" d="M161.38,191.57c2.75,1.49,7.69,5.84,10.98,5.73c0.85-0.22,1.28-1.07,1.06-1.91c-6.47-8.5,2.51-17.42,4.94-25.17
	c1.59-3.19,7.01-0.74,7.44-4.88c-1.29-1.6-3.19-2.66-5.09-3.3c-2.02-1.27-7.38-2.64-9.08-4.87c-2.02,0.21-4.79-2.02-6.17,0.43
	c-1.48,2.87,1.9,3.72,3.28,5.41c0.65,3.19-1.58,5.96-2.12,8.93c-1.68,4.04-2.06,10.29-6.85,12.31c-2.02,1.81-6.17,0.96-6.48,4.14
	C155.11,191.04,158.5,190.93,161.38,191.57z"/>
<path class="st1" d="M235.94,245.19c3.39,1.38,5.74,4.35,8.49,7.11l0.22,1.28c3.72,3.5,3.82,8.5,7.75,12.01
	c3.73,1.7,7.86-0.11,11.38-1.4c1.37-0.73,4.13-0.53,3.82-2.86c-1.48-2.12-5-0.75-7.23-1.7c-1.57,0-2.76,1.05-4.24,0.63
	c-3.19-2.02-2.98-5.74-5.53-8.18c-1.07-2.76,2.44-3.93,3.4-5.85c0.63-0.53,1.48-0.1,1.91,0.42c0.53,2.66,2.88,4.57,4.57,6.91
	l1.39,0.1c1.6-0.85,3.83-1.9,3.62-4.14c0.51-2.02-1.42-3.97-2.5-5.45c-1.37-3.72,3.65-2.31,4.5-5.39c4.68,0.32,7.14,3.63,5.43,9.46
	c-0.25,0.84-0.54,2.22,0.53,2.76c2.23,0,4.46-0.32,5.84-2.24c1.39-1.91-0.22-3.83-0.64-5.62c-2.55-4.46-4.35-9.36-8.28-13.07
	c-1.5-2.33-1.82-5.21-4.05-7.22c-0.84-0.85-2.01-0.11-2.86,0.42c-0.63,1.91,0.09,3.83,0.4,5.74c-1.16,1.6-2.64,3.62-4.76,3.93
	c-4.99,4.04-10.74,6.06-16.26,8.92c-2.67,0.85-5.64-3.08-7.32,0.75C235.19,243.28,234.98,244.65,235.94,245.19z"/>
<path class="st1" d="M277.21,439.45c-4.24-1.81-7.05-5.26-11.74-6.22c-1.27,0.54-2.12,1.82-2.02,3.19c1.92,2.44,5.85,4.68,4.15,8.19
	c-1.38,1.7-2.34,4.35-4.79,4.99c-1.89,0.42-4.02,0-5.19-1.7c-1.28-0.85-1.54-3.44-1.44-4.6c0.64-2.44,3.28-1.16,4.68-2.33
	c0.54-0.65,0-1.5-0.23-2.02c-1.68-2.67-2.84-3.13-6.23-3.23c-4.68,0-0.21,4.89-3.5,6.27c-2.45,0.21-5.62-2.59-6.89-5.02
	c0.21-2.03,2.45-3.3,3.84-4.57c3.5-2.66,7.97-2.66,11.88-4.05c0.87-1.17-0.21-2.33-1.15-3.19c-3.52-0.95-6.24-5.57-10.15-3.03
	c-4.16,5.74-8.18,9.29-11.57,15.24c-1.82,3.08-5.97,5.31-7.24,8.71c-0.41,1.17-0.47,2.5,0.91,3.13c1.28,0.53,2.7,0.13,3.87-0.83
	c2.02-2.45,2.58-3.91,5.99-2.97c5.96,2.34,13.35,9.95,16.1,13.69c0.57,0.78-0.04,1.89-0.7,3.04h4.85
	c5.95-6.04,9.9-12.24,15.51-18.97C276.78,442.11,277.52,440.84,277.21,439.45z"/>
<path class="st1" d="M8.36,84.44c1.91,0.74,4.15,2.99,4.46,5.12c0.33,1.06,1.5,0.53,2.23,0.85c1.71,0,1.45-0.42,2.52-1.69
	c1.49-4.36-1.76-6.94-1.86-11.83l-0.96-1.17c-4.88-2.23-3.45,3.59-6.95,4.34c-2.22-0.38-4.83,0.08-7.23,0.76v6.47
	C3.32,85.65,6.91,84.37,8.36,84.44z"/>
<path class="st1" d="M3.71,111.43c5.11,0.85,7.87-3.62,12.33-4.04c1.81,0,3.29,0.84,4.35,2.12c1.17,1.59,0.82,3.63,0.22,5.32
	c-1.35,3.78-3.19,4.66-6.67,5.83c-3.7,1.25-7.95-4.92-12.29-4.38c-0.45,0.26-0.8,0.52-1.08,0.77v4.8c0.12,0.37,0.22,0.75,0.28,1.16
	c0.32,1.31-0.04,2.62-0.28,3.9v2.85c0.11,0.34,0.26,0.67,0.49,1c1.06,1.06,2.65,1.16,4.04,0.85c1.8-0.64,1.27-2.66,1.37-4.36
	c2.23-2.23,4.46,1.39,7.33,0.53c7.97,0.75,13.82-6.48,17.1-12.75c2.02-5.95-0.31-12.21-4.35-16.67c-2.34-1.81-4.78-3.4-7.54-3.72
	c-5.86,0.65-12.7,5.37-18.45,2.34v13.91C1.6,111.14,2.65,111.31,3.71,111.43z"/>
<path class="st1" d="M255,99.85c-3.08-0.32-3.19-3.83-4.9-5.52c-1.69-2.12-4.04-3.61-6.59-4.25c-6.81-0.85-14.23,0.43-18.37,6.59
	c-3.09,3.61-1.49,9.02-0.76,13.27c0.76,4.68,6.81,7.23,7.12,12.23c0.96,2.55-0.21,5.21-2.55,6.59c-1.8,0.85-4.68,0.73-6.48-0.1
	c-2.67-1.82-6.79-4.04-6.37-7.97c-0.54-3.29,2.75-5,2.96-7.97c-0.32-0.96-0.42-2.23-1.48-2.77c-0.75-0.42-2.12-0.52-2.75,0.11
	l-9.02,9.99c-0.65,0.96-1.5,2.24-0.86,3.41c1.49,1.8,4.13,1.38,6.16,1.91l3.41,5.42c2.45,2.77,5.84,3.83,8.82,5.53
	c6.26,1.91,11.24,0.96,16.14-2.76c3.29-2.87,5.09-7.01,3.82-11.58c-0.85-3.08-1.7-6.17-3.82-8.71c-1.29-4.57-5.53-8.61-2.65-14.03
	c0.75-1.28,2.13-2.54,3.72-2.44c2.33,0.42,3.71,2.87,5,4.68c2.64,3.93-1.52,4.49,0.52,8.85c0.2,0.64,0.95,1.49,1.79,1.17l3.65-2.9
	c2.44-2.55,6.37-3.72,7.84-7.12C258.92,99.32,256.58,99.95,255,99.85z"/>
<path class="st1" d="M277.6,136.16c0.52-3.82,0.4-7.43-2.56-9.99c-2.23-1.48-4.99-1.59-7.87-1.48c-2.23,0.85-3.91,2.97-5.62,4.78
	c-2.02,2.66-2.98,6.49-1.7,9.57c1.7,4.04,6.27,4.04,9.98,4.04C273.34,142.22,277.06,139.99,277.6,136.16z"/>
<path class="st1" d="M388.97,385.55c-1.8,1.05-2.33,3.08-3.3,4.67c-2.85,2.76-6.38-0.6-9.57-0.92c-8.5-1.49-17.5-1.36-24.52-6.24
	c-3.3-1.27-1.69-5.59-5.95-5.38c-2.34,1.7-2.98,4.46-4.05,6.91c-2.01,5.83-4.03,11.47-5.51,17.53c-0.43,2.01-1.28,4.88,0.2,6.8
	l8.62,5.95l2.22,0.32c0.87-0.32,1.58-1.37,1.06-1.91c-7.24-7.57-4.49-14-3.34-19c2.44-3.71,8.81,1.61,12.84,2.03
	c1.48,0.42,3.49,1.08,3.07,2.67c-0.21,0.85-0.94,1.25-1.59,1.67c-1.27,1.06-1.6,2.76-1.17,4.25c0.42,1.28,1.48,2.23,2.66,2.76
	c3.6-0.31,1.47,0.93,5.09,0.29c4.26-1.49,0.29-9.66,2.77-8.85c3.39,1.1,12.02,1.42,12.76,2.9c0.78,1.56-4,14.46-13.86,14.56
	c-1.57,0.02,0.09,2.98,1.48,3.62c3.83,0.74,7.53,1.71,11.9,1.28c1.59-0.43,2.33-2.12,2.86-3.4c0.34-6.69,2.24-12.85,5.1-18.48
	c0.65-4.03,3.09-7.44,3.73-11.68C392.14,386.4,390.56,385.33,388.97,385.55z"/>
<path class="st1" d="M314.59,457.9c-3.28-1.37-2.44,3.19-4.46,4.25h5.89C316.08,460.58,316.48,458.73,314.59,457.9z"/>
<path class="st1" d="M365.17,458.22c-5.53-2.76-11.05-5.53-15.94-9.56c-6.8-2.44-13.07-6.81-18.37-12.32l-0.22-3.29
	c-0.73-1.06-1.7-1.92-2.97-1.81c-5,2.65-3.84,8.71-6.28,12.75c-0.42,1.6-1.8,2.76-2.13,4.36c0.56,1.49,2.95,2.39,3.63,1.28
	c4.82-7.79,8.69-2.18,12.29-2.07c1.28,0.75,14.78,6.34,15.1,8.14c-0.23,1.17-23.78-2.04-23.89-0.45c0.03,1.31,1.35,3.95,3.09,6.91
	h37.75C367.59,460.48,366.52,459.08,365.17,458.22z"/>
<path class="st1" d="M346.56,306.92c5.12-3.29,0.04-3.59,4.87-7.64c5.11-4.28,23.75-20.48,27.36-22.61c1.7-0.84,5.08-4.7,6.46-6.19
	c0.84-1.17,1.27-2.87,0.73-4.25c-0.84-1.06-1.91-2.55-3.4-2.55c-4.46,1.7-8.5-0.86-13.08-0.74c-1.68-0.53-18.69-1.18-25.06-4.15
	c-5.76-2.69-7.11-7.32-7.11-7.32c-0.54-1.91-3.94-3.02-4.58-1.17c-0.73,2.11-0.33,5.91,0.97,8.67c1.91,4.08,2.34,6.95,3.93,10.67
	c0.31,1.27,1.57,1.7,2.65,1.38c1.27-0.11,0.9-4.81,0.59-5.98c0.52-1.07,3.01,0.76,4.08,0.44c2.23-0.22,2.74,0.49,4.35,1.77
	c1.26,2.97,1.9,7.78,2.65,10.75c0.1,2.33,0.96,4.57,0.73,6.91c-0.51,1.17-3.65,3.4-5.03,3.08c-2.34-0.53-2.6-4.21-5.04-4.21
	c-1.48,0.42-1.17,2.12-1.28,3.4c1.17,2.76,0.75,14.45,2.03,17.53C344.02,305.87,344.88,307.67,346.56,306.92z M372.45,268.79
	c3.54-0.09-12.06,9.96-14.84,12.08c-1.17,0.11-1.37-1.27-1.8-2.02l-1.59-11.34C357.2,265.38,368.04,268.9,372.45,268.79z"/>
<path class="st1" d="M317.33,149c-11.48,3.19-21.68,9.45-33.05,13.07c-3.5,0-7.22,0.64-10.18-1.07c-1.39-0.21-3.32-1.38-4.58,0
	c-0.42,1.48,0.11,2.87,0.86,4.04c4.44,2.76,7.27,10.23,12.35,10.23c2.14,0-0.77-3.37,3.16-5.24c5.23-2.48,9.77,4.45,12.54,8.39
	c0.53,1.71,0.11,3.62-0.75,5.1c-0.65,1.28-2.31,0.22-3.82,0.01c-1.37,0.11-2.48-1.48-3.42,0.11c-0.21,0.33-0.31,2.43-0.09,2.63
	c3.83,1.82,6.27,5.74,8.7,9.03c1.5,1.38,2.83,4.98,4.46,3.83c2.98-2.09,1.03-3.82,1.4-6.06c0.81-4.97,5.29-11.58,7.49-18.7
	c1.83-7.54,7.9-15.62,9.07-23.37C321.14,149.21,318.92,149.1,317.33,149z M301.85,172.12c-3.08-0.11-5.99-3.94-7.39-6.17
	c1.6-2.13,10.12-6.33,12.35-7.5C309.23,157.7,303.76,170.84,301.85,172.12z"/>
<path class="st1" d="M334.33,239.39c0,0,3.12-2.07,1.29-3.21c-1.26,0.36-7.94-7.23-8.37-9.8c-0.68-0.5-1.17-1.53-1.47-3.07
	c-1.35-3.82-0.11-8.3,2.51-11.44c2.64-3.13,5.96-4.74,11.28-6.28c4.72-1.37,8.78-2.36,12.27-1.08c3.51,1.28,5.75,4.1,6.38,7.4
	c0.31,1.64,0.77,4.86,0.24,6.63c-0.51,1.76-2.06,2.17-3.48,4.27c-0.29,0.42-0.7,0.97-1.22,1.67c-1.08,1.43-1.57,2.39-1.48,2.87
	c0.06,0.32,0.28,0.54,0.65,0.68c0.37,0.14,0.8,0.14,1.27,0c0.33-0.1,0.83-0.35,1.49-0.75c0.69-0.39,1.89-0.47,3.61-1.59l4.26-2.01
	l1.13-0.75c3.9-2.05,2.84-12.28-4.33-21.49c-2.43-1.95-3.86-4.18-6.47-5.51c-2.51-1.31-5.28-2.06-8.29-2.25
	c-2.99-0.18-6.6,1.5-10.27,1.7c-4.02,1.16-7.46,2.96-10.33,5.38c-2.87,2.43-6.15,5.22-7.56,8.65c-0.33,2.46-2.75,5.62-2.87,8.43
	c-0.1,2.81,1.04,6.48,3.58,11.15C321.52,235.61,333.52,239.63,334.33,239.39z"/>
<path class="st1" d="M412.55,437.81c3.61-10.09,7.01-20.18,9.35-30.81c3.18-19.12,7.32-37.93,9.24-57.69
	c2.33-12.33-0.32-25.28-0.74-37.93c-2.24-12.32-2.24-25.49-6.7-36.97c-3.3-19.34-10.3-37.29-16.68-55.35
	c-3.3-6.69-5.52-13.81-10.3-19.76c-2.45-4.79-5.43-9.25-7.55-14.02c-4.99-6.59-7.22-14.35-12.1-20.83
	c-6.17-6.59-10.53-14.34-16.26-21.15c-5.3-7.64-12.75-13.92-18.17-21.57c-5.2-2.44-6.81-8.7-12.01-11.58
	c-2.01-3.94-6.89-4.78-9.03-8.82c-6.48-5.53-12.22-12.33-19.12-17.32c-10.21-8.72-23.06-11.04-33.06-20.08l-8.48-4.25
	c-7.45-5.52-16.26-7.76-24.24-12.11c-6.8-3.41-13.8-6.06-20.6-9.24c-5.63-1.6-10.84-4.36-16.79-5.31c-1.6,0-2.67-1.49-4.26-1.28
	c-13.7,0.11-25.18-5.1-38.03-6.8c-11.58-0.32-22.96-2.34-34.32-3.83c-5.09,0.64-10.2-0.31-15.08,0.75
	c-9.24,0.64-18.6,0.84-27.51,2.12c-13.4,2.34-27.31,3.4-39.22,9.15c-13.27,4.46-26.56,9.02-39.63,13.81
	c-0.23,0.14-0.47,0.27-0.7,0.4v7.21c10.11-3.74,20.55-6.73,30.86-10.13c6.23-1.29,12.46-2.68,18.35-4.93
	c5.58-0.33,10.31-2.57,15.46-3.65c5.38-1.4,11.27-1.4,16.42-3.22c11.81-1.82,23.29,1.07,35.3,0.86c4.84,0.43,9.12-0.96,14.07-0.44
	c2.89,0.22,5.9,0.11,8.59-0.42c9.34-0.22,17.8,1.6,26.5,3.11c4.19,1.29,8.38,2.26,12.78,3.22c5.69,0.2,10.19,3.53,15.77,4.39
	c5.58,2.04,11.81,2.47,17.49,4.29c13.94,5.79,28.34,10.73,41.96,17.49c9.97,7.3,21.57,10.52,31.23,18.78
	c8.04,4.94,15.88,10.73,23.6,16.64c3.98,2.57,6.87,7.07,10.61,10.08c4.95,5.04,10.22,9.66,15.14,14.59
	c4.51,3.86,7.83,8.69,12.56,12.24c3.86,4.72,7.28,9.66,11.36,14.38c8.39,11.38,16.63,22.76,23.19,34.88
	c6.34,7.62,10.3,16.21,14.16,24.79c4.4,12.99,11.06,25.11,13.96,38.74c2.89,11.38,7.71,21.88,9.97,33.59
	c1.93,9.45,2.69,19.42,3.44,29.29c1.17,8.04,1.82,17.28,0.53,25.44c0.22,7.94,0.43,16.52-1.71,23.71
	c-1.83,17.06-4.64,34.67-8.61,50.77c-1.29,12.45-8.88,21.23-10.92,33.36c-2.04,4.79-3.16,10.51-5.05,15.73h6.79
	c1.19-2.49,2.3-5.02,3.2-7.64C410,449.29,411.27,443.56,412.55,437.81z"/>
<path class="st1" d="M389.52,321.23c-3.68,1.4-8.13,2.5-12.13,2.27c-7.85-1.86-13.69,1.89-21.67,0.02c-1.4-0.82-4.07,0.91-4.7-0.95
	c-0.97-1.63-2.37-3.62-4.43-3.37c-0.52,0.23-1.07,0.58-1.07,1.39c1.51,6.17,0.99,15.28,1.52,22.03c-0.1,4.19,8.18,15.36,10.77,17.34
	c4.31,3.14,9.6,3.26,15.5,3.26c5.2,0,9.61-3.95,13.82-7.57l4.3-5.94c0.98-1.63,0.66-3.72,1.84-5.23c0.65-4.08,1.82-9.15,1.82-14.35
	c0-4,0.91-9.48-0.16-13.43C391.45,311.46,390.9,319.37,389.52,321.23z M386.24,345.06c-5.82,8.02-16.58,6.41-24.98,5.47
	c-2.6-1.28-5.72-3.27-6.69-6.52c-0.32-1.52-1.04-6.3-0.07-7.7c3.77-2.21,9.12-1.3,13.41-0.71c3.78,0.46,17.26-1.93,18.89-0.18
	C386.69,337.17,386.79,343.31,386.24,345.06z"/>
</svg>
